<svg width="980" height="551" xmlns="http://www.w3.org/2000/svg" xmlns:xlink="http://www.w3.org/1999/xlink">
<path fill="#ff595e" d="M 46.53 417.38 Q 46.53 417.38 46.11 417.11 45.69 416.84 45.66 416.72 45.63 416.61 45.64 416.50 45.65 416.39 45.69 416.29 45.73 416.18 45.79 416.09 45.85 416.00 45.94 415.93 46.02 415.86 46.12 415.81 46.21 415.76 46.32 415.73 46.43 415.70 46.54 415.70 46.65 415.70 46.75 415.73 46.86 415.76 46.95 415.81 47.05 415.86 47.13 415.93 47.22 416.00 47.28 416.09 47.34 416.19 47.38 416.29 47.42 416.39 47.43 416.50 47.44 416.61 47.60 417.86 47.76 419.12 48.09 421.16 48.42 423.19 48.75 425.50 49.07 427.80 49.35 430.08 49.63 432.37 49.86 434.36 50.09 436.35 50.32 437.99 50.55 439.63 50.70 440.39 50.85 441.16 50.12 441.05 49.38 440.94 49.86 438.94 50.34 436.94 50.64 435.28 50.94 433.62 51.22 432.04 51.50 430.46 51.74 429.14 51.97 427.83 52.15 426.87 52.33 425.90 53.08 425.01 53.83 424.11 55.09 425.09 56.34 426.07 57.21 427.96 58.08 429.86 58.73 431.65 59.39 433.45 59.95 434.96 60.51 436.48 60.98 437.55 61.46 438.62 61.79 439.21 62.12 439.79 62.11 438.93 62.10 438.07 62.29 436.80 62.47 435.52 62.56 433.05 62.65 430.58 62.51 428.28 62.38 425.98 62.09 424.07 61.81 422.16 61.48 420.76 61.15 419.35 60.90 418.39 60.64 417.42 60.48 416.87 60.32 416.31 60.26 416.06 60.20 415.81 60.18 415.66 60.15 415.51 60.16 415.35 60.17 415.20 60.22 415.05 60.27 414.90 60.35 414.77 60.44 414.64 60.55 414.53 60.66 414.43 60.79 414.35 60.93 414.27 61.08 414.23 61.22 414.18 61.38 414.18 61.53 414.17 61.69 414.20 61.84 414.23 61.98 414.30 62.12 414.36 62.24 414.46 62.36 414.56 62.45 414.68 62.55 414.81 62.61 414.95 62.67 415.09 62.75 416.93 62.82 418.76 62.82 418.77 62.81 418.77 62.81 418.77 62.80 418.77 61.50 417.29 60.20 415.81 60.18 415.66 60.15 415.51 60.16 415.35 60.17 415.20 60.22 415.05 60.27 414.90 60.35 414.77 60.44 414.64 60.55 414.53 60.66 414.43 60.79 414.35 60.93 414.27 61.08 414.23 61.22 414.18 61.38 414.18 61.53 414.17 61.69 414.20 61.84 414.23 61.98 414.30 62.12 414.36 62.24 414.46 62.36 414.56 62.45 414.68 62.55 414.81 62.61 414.95 62.67 415.09 62.75 415.33 62.83 415.57 63.01 416.16 63.19 416.75 63.45 417.76 63.71 418.77 64.05 420.27 64.40 421.78 64.69 423.81 64.98 425.84 65.12 428.25 65.25 430.67 65.15 433.30 65.05 435.92 64.79 437.44 64.54 438.96 64.04 440.11 63.55 441.27 62.98 441.66 62.41 442.05 61.18 441.60 59.94 441.15 59.52 440.41 59.09 439.67 58.58 438.52 58.08 437.38 57.52 435.85 56.96 434.33 56.34 432.63 55.72 430.92 54.97 429.22 54.21 427.52 54.02 426.98 53.83 426.44 54.35 426.40 54.87 426.37 54.70 427.33 54.52 428.29 54.28 429.60 54.05 430.91 53.77 432.50 53.48 434.08 53.18 435.78 52.87 437.48 52.49 439.21 52.12 440.94 51.29 442.09 50.47 443.25 49.40 442.46 48.34 441.67 48.18 440.83 48.01 439.99 47.78 438.32 47.55 436.64 47.32 434.65 47.09 432.67 46.83 430.40 46.56 428.14 46.26 425.86 45.96 423.57 45.64 421.35 45.32 419.13 45.47 417.87 45.63 416.61 45.64 416.50 45.65 416.39 45.69 416.29 45.73 416.19 45.79 416.09 45.85 416.00 45.94 415.93 46.02 415.86 46.12 415.81 46.21 415.76 46.32 415.73 46.43 415.70 46.54 415.70 46.64 415.70 46.75 415.73 46.86 415.76 46.95 415.81 47.05 415.86 47.13 415.93 47.22 416.00 47.28 416.09 47.34 416.18 47.38 416.29 47.42 416.39 47.43 416.50 47.44 416.61 47.41 416.72 47.38 416.84 46.96 417.11 46.55 417.38 46.54 417.38 Z" data-drauu_index="1"></path><path fill="#ff595e" d="M 69.40 431.70 Q 69.40 431.70 70.63 430.98 71.87 430.27 72.39 429.87 72.90 429.47 73.10 428.99 73.29 428.51 73.38 427.90 73.46 427.29 73.31 426.80 73.16 426.32 72.66 425.89 72.16 425.46 71.36 425.33 70.56 425.20 70.02 426.14 69.48 427.08 69.34 428.49 69.20 429.90 69.13 431.39 69.05 432.87 69.19 434.10 69.33 435.32 69.63 436.13 69.94 436.93 70.55 437.31 71.17 437.69 71.79 437.86 72.42 438.04 74.09 438.27 75.76 438.51 75.76 438.51 75.77 438.52 75.77 438.52 75.77 438.52 73.73 439.43 71.68 440.34 70.70 439.99 69.72 439.64 68.75 438.79 67.78 437.94 67.35 436.77 66.91 435.60 66.77 434.17 66.63 432.74 66.72 431.18 66.81 429.61 67.07 427.83 67.32 426.06 67.91 425.01 68.50 423.97 69.42 423.44 70.34 422.91 71.46 422.99 72.58 423.07 73.21 423.48 73.83 423.89 74.56 424.79 75.28 425.68 75.46 426.66 75.64 427.65 75.42 428.59 75.19 429.54 74.65 430.34 74.12 431.15 73.20 431.68 72.27 432.22 70.84 431.97 69.40 431.72 69.40 431.71 Z" data-drauu_index="2"></path><path fill="#ff595e" d="M 98.18 428.15 Q 98.18 428.15 97.18 428.34 96.17 428.54 95.53 428.49 94.89 428.44 94.33 429.13 93.77 429.83 93.50 430.63 93.23 431.43 93.03 432.45 92.83 433.48 92.75 434.46 92.66 435.44 92.63 436.07 92.61 436.70 93.23 436.75 93.85 436.81 94.56 436.34 95.27 435.87 95.84 435.21 96.42 434.55 96.80 433.66 97.18 432.77 97.38 431.75 97.58 430.72 97.67 429.74 97.76 428.75 97.51 428.01 97.26 427.26 96.85 426.67 96.44 426.09 96.33 425.97 96.22 425.86 96.14 425.72 96.06 425.57 96.01 425.41 95.96 425.25 95.95 425.08 95.94 424.91 95.98 424.75 96.01 424.58 96.08 424.43 96.15 424.28 96.26 424.15 96.36 424.02 96.50 423.91 96.63 423.81 96.78 423.75 96.94 423.68 97.10 423.65 97.27 423.62 97.44 423.64 97.61 423.65 97.77 423.70 97.93 423.75 98.07 423.84 98.21 423.93 98.33 424.05 98.44 424.17 98.54 425.45 98.63 426.73 98.62 428.06 98.60 429.38 98.71 430.83 98.81 432.27 99.04 433.53 99.27 434.80 99.55 435.83 99.82 436.86 100.40 438.44 100.98 440.03 100.98 440.03 100.98 440.04 100.98 440.04 100.97 440.05 99.06 438.82 97.15 437.58 96.84 436.44 96.52 435.29 96.28 433.88 96.03 432.47 95.92 430.91 95.81 429.35 96.02 427.60 96.22 425.86 96.14 425.72 96.06 425.57 96.01 425.41 95.96 425.25 95.95 425.08 95.94 424.91 95.98 424.75 96.01 424.58 96.08 424.43 96.15 424.28 96.26 424.15 96.36 424.02 96.50 423.91 96.63 423.81 96.78 423.75 96.94 423.68 97.10 423.65 97.27 423.62 97.44 423.64 97.61 423.65 97.77 423.70 97.93 423.75 98.07 423.84 98.21 423.93 98.33 424.05 98.44 424.17 98.81 424.65 99.17 425.12 99.53 425.83 99.89 426.53 100.17 427.74 100.45 428.96 100.33 430.12 100.21 431.28 99.91 432.59 99.61 433.89 99.00 435.12 98.39 436.35 97.45 437.29 96.51 438.23 95.11 438.81 93.71 439.39 92.60 439.13 91.49 438.87 90.85 438.11 90.20 437.36 90.11 436.28 90.01 435.20 90.12 434.07 90.24 432.94 90.50 431.72 90.77 430.49 91.24 429.39 91.70 428.28 92.43 427.45 93.16 426.61 94.13 426.29 95.10 425.97 96.06 426.20 97.03 426.43 97.61 427.28 98.19 428.13 98.19 428.14 Z" data-drauu_index="3"></path><path fill="#ff595e" d="M 106.00 427.20 Q 106.00 427.20 106.90 428.93 107.80 430.66 108.15 432.37 108.51 434.07 108.73 435.95 108.95 437.82 109.05 438.98 109.14 440.15 109.18 440.76 109.22 441.37 109.24 441.62 109.26 441.88 109.26 442.02 109.25 442.17 109.20 442.31 109.16 442.45 109.08 442.58 109.01 442.70 108.90 442.81 108.80 442.91 108.67 442.99 108.55 443.06 108.41 443.10 108.27 443.15 108.12 443.16 107.97 443.17 107.83 443.14 107.69 443.11 107.55 443.05 107.42 442.99 107.30 442.90 107.19 442.81 107.10 442.69 107.01 442.58 106.95 442.45 106.89 442.31 106.86 442.17 106.83 442.02 106.80 441.03 106.77 440.04 106.77 438.90 106.77 437.76 106.77 436.35 106.77 434.94 106.89 432.98 107.00 431.03 107.26 429.69 107.52 428.36 107.94 427.57 108.37 426.78 110.64 427.15 112.91 427.51 112.91 427.52 112.91 427.52 112.90 427.53 112.90 427.53 111.48 428.21 110.06 428.89 109.83 430.04 109.60 431.19 109.49 433.06 109.37 434.94 109.37 436.35 109.37 437.77 109.37 438.91 109.36 440.05 109.31 440.97 109.26 441.88 109.26 442.02 109.25 442.17 109.20 442.31 109.16 442.45 109.08 442.58 109.01 442.70 108.90 442.81 108.80 442.91 108.67 442.99 108.55 443.06 108.41 443.10 108.27 443.15 108.12 443.16 107.97 443.17 107.83 443.14 107.69 443.11 107.55 443.05 107.42 442.99 107.30 442.90 107.19 442.81 107.10 442.70 107.01 442.58 106.95 442.45 106.89 442.31 106.86 442.17 106.83 442.02 106.82 441.77 106.81 441.51 106.78 440.92 106.75 440.32 106.68 439.20 106.60 438.07 106.43 436.29 106.26 434.51 105.95 432.80 105.65 431.09 105.81 429.14 105.98 427.20 105.99 427.20 Z" data-drauu_index="4"></path><path fill="#ff595e" d="M 117.90 433.17 Q 117.90 433.17 118.64 433.24 119.38 433.31 119.95 432.96 120.52 432.61 120.68 432.01 120.85 431.42 120.48 430.62 120.12 429.81 119.35 430.58 118.58 431.35 118.44 432.65 118.30 433.96 118.22 435.22 118.14 436.49 118.32 437.40 118.49 438.30 119.20 438.82 119.90 439.34 120.48 439.35 121.05 439.36 121.64 439.26 122.22 439.16 123.67 438.96 125.12 438.75 125.12 438.75 125.12 438.75 125.13 438.76 125.13 438.76 123.93 440.26 122.72 441.75 121.78 441.94 120.83 442.13 119.81 442.00 118.78 441.87 117.78 441.26 116.77 440.65 116.30 439.71 115.84 438.77 115.67 437.55 115.49 436.32 115.60 434.95 115.71 433.57 116.01 431.92 116.31 430.28 116.87 429.25 117.42 428.22 118.18 427.68 118.94 427.14 119.88 427.28 120.81 427.43 121.42 427.90 122.02 428.37 122.58 429.31 123.14 430.26 123.09 431.17 123.05 432.08 122.87 432.60 122.69 433.12 122.22 433.75 121.75 434.39 120.96 434.68 120.16 434.97 119.44 434.71 118.72 434.45 118.30 433.82 117.89 433.19 117.89 433.18 Z" data-drauu_index="5"></path><path fill="#ff595e" d="M 141.91 425.11 Q 141.91 425.11 142.41 425.99 142.91 426.86 143.27 428.08 143.63 429.29 143.88 431.26 144.12 433.22 144.24 434.88 144.36 436.54 144.41 437.83 144.46 439.12 144.49 439.96 144.51 440.80 144.53 441.39 144.55 441.98 144.53 442.13 144.52 442.28 144.47 442.42 144.42 442.56 144.33 442.68 144.25 442.81 144.14 442.91 144.03 443.01 143.90 443.08 143.77 443.16 143.62 443.19 143.48 443.23 143.33 443.24 143.18 443.24 143.03 443.21 142.89 443.17 142.75 443.11 142.62 443.04 142.51 442.94 142.39 442.84 142.30 442.72 142.22 442.60 142.16 442.46 142.11 442.32 142.08 442.18 142.06 442.03 142.06 440.60 142.05 439.17 142.00 437.73 141.94 436.28 141.87 434.18 141.81 432.08 141.83 430.48 141.84 428.88 142.21 427.66 142.58 426.43 143.35 425.67 144.12 424.91 145.34 424.85 146.56 424.78 147.68 426.02 148.81 427.25 149.29 428.38 149.78 429.51 150.00 431.71 150.22 433.92 150.29 435.61 150.37 437.31 150.38 438.49 150.40 439.67 150.39 440.37 150.38 441.08 150.96 440.68 151.53 440.27 151.53 440.27 151.53 440.28 151.53 440.28 151.53 440.28 151.53 440.28 151.53 440.28 151.53 440.28 151.53 440.28 151.53 440.28 151.53 440.28 151.53 440.28 151.52 440.28 151.52 440.28 151.52 440.28 151.52 440.28 151.52 440.28 151.52 440.28 151.52 440.28 151.52 440.28 151.52 440.28 151.52 440.28 151.51 440.28 151.51 440.28 151.51 440.28 151.51 440.27 151.51 440.27 151.52 440.27 151.52 440.27 151.53 440.27 151.53 440.27 151.53 440.27 151.53 440.28 151.53 440.28 151.53 440.28 151.53 440.28 151.53 440.28 151.53 440.28 151.53 440.28 151.53 440.28 151.53 440.28 151.53 440.28 151.52 440.28 151.52 440.28 151.52 440.28 151.52 440.28 151.52 440.28 151.52 440.28 151.52 440.28 151.52 440.28 151.52 440.28 151.52 440.28 151.51 440.28 151.51 440.28 151.51 440.28 151.51 440.27 151.51 440.27 149.72 440.69 147.92 441.10 147.91 440.40 147.89 439.69 147.88 438.56 147.87 437.42 147.80 435.78 147.72 434.13 147.59 432.28 147.47 430.43 147.14 429.59 146.80 428.74 146.27 427.77 145.74 426.81 145.30 427.07 144.86 427.33 144.60 428.13 144.34 428.93 144.33 430.47 144.33 432.01 144.39 434.09 144.45 436.18 144.51 437.68 144.57 439.18 144.56 440.58 144.55 441.98 144.53 442.13 144.52 442.28 144.47 442.42 144.42 442.56 144.33 442.68 144.25 442.81 144.14 442.91 144.03 443.01 143.90 443.08 143.77 443.16 143.62 443.19 143.48 443.23 143.33 443.24 143.18 443.24 143.03 443.21 142.89 443.17 142.75 443.11 142.62 443.04 142.51 442.94 142.39 442.85 142.30 442.72 142.22 442.60 142.16 442.46 142.11 442.32 142.08 442.18 142.06 442.03 142.06 441.44 142.06 440.86 142.04 440.03 142.03 439.21 141.99 437.95 141.95 436.69 141.87 435.08 141.78 433.46 141.63 431.54 141.48 429.63 141.45 428.35 141.43 427.08 141.66 426.10 141.89 425.12 141.90 425.11 Z" data-drauu_index="6"></path><path fill="#ff595e" d="M 159.12 430.63 Q 159.12 430.63 158.99 431.42 158.85 432.20 158.81 432.95 158.77 433.69 158.73 434.56 158.68 435.43 158.63 436.47 158.59 437.51 158.85 438.49 159.12 439.46 159.57 439.83 160.02 440.19 160.61 440.31 161.19 440.43 161.81 440.26 162.42 440.09 163.15 439.32 163.89 438.56 164.35 437.74 164.80 436.91 164.98 436.14 165.16 435.37 164.81 434.69 164.46 434.01 163.74 433.33 163.02 432.65 162.07 432.14 161.13 431.63 160.61 431.62 160.10 431.62 160.01 432.13 159.93 432.64 159.83 433.81 159.73 434.98 159.92 436.86 160.10 438.75 160.10 438.75 160.10 438.75 160.09 438.76 160.09 438.76 158.55 436.76 157.00 434.76 157.16 433.22 157.32 431.67 157.85 430.60 158.37 429.54 159.33 429.09 160.28 428.63 161.40 428.92 162.51 429.22 163.75 429.98 165.00 430.73 166.00 431.86 166.99 432.99 167.40 434.37 167.81 435.75 167.48 437.02 167.16 438.28 166.44 439.42 165.72 440.57 164.41 441.62 163.10 442.67 161.81 442.84 160.53 443.02 159.37 442.59 158.22 442.15 157.41 441.22 156.60 440.29 156.26 438.85 155.92 437.41 155.99 436.23 156.07 435.05 156.30 433.97 156.53 432.89 157.07 432.05 157.60 431.22 158.36 430.92 159.11 430.62 159.12 430.63 Z" data-drauu_index="7"></path><path fill="#ff595e" d="M 174.79 428.61 Q 174.79 428.61 175.32 430.74 175.85 432.87 175.81 434.88 175.78 436.88 175.89 438.46 176.01 440.04 176.29 440.81 176.58 441.57 176.97 441.05 177.37 440.53 177.97 439.61 178.57 438.69 178.95 437.68 179.33 436.67 179.49 435.81 179.64 434.95 179.72 434.41 179.79 433.86 179.83 433.24 179.88 432.63 179.91 432.46 179.94 432.29 180.01 432.14 180.09 431.98 180.19 431.85 180.30 431.72 180.44 431.61 180.57 431.51 180.73 431.44 180.89 431.38 181.05 431.35 181.22 431.32 181.39 431.33 181.56 431.35 181.73 431.40 181.89 431.45 182.03 431.54 182.18 431.63 182.30 431.76 182.41 431.88 182.50 432.02 182.59 432.17 182.63 432.34 182.68 432.50 182.69 432.67 182.70 432.84 182.71 434.07 182.72 435.29 183.08 436.48 183.44 437.67 183.93 438.37 184.43 439.06 185.25 439.07 186.08 439.07 186.99 438.07 187.90 437.07 188.63 435.85 189.37 434.64 189.71 433.37 190.06 432.11 190.09 431.09 190.13 430.07 189.77 429.69 189.41 429.32 188.64 429.19 187.87 429.05 187.44 429.64 187.02 430.22 187.49 430.85 187.97 431.47 188.72 431.62 189.47 431.77 190.27 431.68 191.07 431.59 191.79 431.28 192.52 430.96 194.12 430.22 195.72 429.47 195.72 429.47 195.72 429.48 195.73 429.48 195.73 429.48 194.69 431.55 193.65 433.62 192.47 434.09 191.30 434.56 189.99 434.60 188.68 434.64 187.38 434.18 186.08 433.72 185.15 432.62 184.23 431.52 184.34 430.17 184.46 428.83 185.18 427.87 185.90 426.91 187.18 426.58 188.47 426.26 189.98 426.84 191.49 427.42 192.21 428.63 192.93 429.83 192.88 431.36 192.83 432.89 192.33 434.52 191.83 436.15 190.85 437.66 189.87 439.16 188.29 440.47 186.71 441.77 185.20 441.82 183.68 441.86 182.89 441.26 182.09 440.66 181.41 439.57 180.72 438.47 180.31 436.90 179.89 435.33 179.88 433.98 179.88 432.63 179.91 432.46 179.94 432.29 180.01 432.14 180.09 431.98 180.19 431.85 180.30 431.72 180.44 431.61 180.57 431.51 180.73 431.44 180.89 431.38 181.05 431.35 181.22 431.32 181.39 431.33 181.56 431.35 181.73 431.40 181.89 431.45 182.03 431.54 182.18 431.63 182.30 431.76 182.41 431.88 182.50 432.02 182.59 432.17 182.63 432.34 182.68 432.50 182.69 432.67 182.70 432.84 182.68 433.04 182.67 433.23 182.63 433.74 182.58 434.25 182.49 434.87 182.40 435.50 182.17 436.60 181.94 437.69 181.41 438.99 180.88 440.28 179.98 441.52 179.07 442.75 177.93 443.43 176.79 444.10 175.44 443.40 174.09 442.71 173.66 441.48 173.24 440.26 173.13 438.53 173.02 436.80 173.10 434.75 173.18 432.70 173.98 430.66 174.77 428.61 174.78 428.61 Z" data-drauu_index="8"></path><path fill="#ff595e" d="M 211.77 430.09 Q 211.77 430.09 211.23 430.00 210.69 429.91 209.76 430.95 208.84 432.00 208.38 432.88 207.92 433.75 207.69 434.73 207.46 435.70 207.38 436.78 207.29 437.86 208.08 437.91 208.88 437.96 209.38 437.37 209.88 436.77 210.26 435.98 210.63 435.19 210.77 434.35 210.92 433.50 210.64 432.59 210.37 431.69 210.08 431.13 209.79 430.58 210.64 430.26 211.49 429.94 211.71 431.33 211.94 432.72 212.15 433.80 212.37 434.88 212.82 435.97 213.28 437.06 213.69 437.56 214.10 438.06 215.11 438.75 216.11 439.44 216.11 439.44 216.11 439.45 216.11 439.45 216.11 439.46 214.14 439.67 212.17 439.89 211.42 439.03 210.66 438.18 210.12 436.81 209.57 435.44 209.33 434.19 209.09 432.94 209.01 431.78 208.93 430.63 209.15 429.72 209.38 428.80 209.96 428.45 210.55 428.10 211.43 428.73 212.32 429.37 212.69 430.20 213.06 431.04 213.34 432.49 213.62 433.94 213.35 435.18 213.07 436.42 212.46 437.55 211.84 438.68 210.84 439.58 209.83 440.48 208.62 440.74 207.41 441.00 206.42 440.44 205.43 439.88 205.02 438.83 204.61 437.77 204.74 436.39 204.87 435.01 205.24 433.74 205.61 432.47 206.29 431.34 206.96 430.21 207.99 429.29 209.01 428.37 209.83 428.25 210.66 428.13 211.26 428.51 211.85 428.88 211.82 429.48 211.78 430.08 211.77 430.09 Z" data-drauu_index="9"></path><path fill="#ff595e" d="M 223.02 426.73 Q 223.02 426.73 223.72 429.40 224.41 432.07 224.69 435.01 224.96 437.96 225.19 441.18 225.42 444.41 225.64 448.22 225.85 452.03 226.03 454.64 226.22 457.25 226.33 458.69 226.45 460.12 226.52 461.06 226.59 461.99 226.58 462.40 226.57 462.81 226.57 462.96 226.56 463.11 226.52 463.25 226.49 463.39 226.41 463.52 226.34 463.65 226.24 463.76 226.14 463.87 226.01 463.95 225.89 464.03 225.75 464.08 225.61 464.13 225.46 464.14 225.31 464.16 225.16 464.14 225.01 464.11 224.88 464.06 224.74 464.00 224.62 463.91 224.50 463.82 224.40 463.71 224.31 463.60 224.24 463.46 224.18 463.33 224.14 463.18 224.11 463.04 224.78 461.44 225.46 459.84 225.46 459.84 225.47 459.84 225.47 459.84 225.48 459.84 226.02 461.32 226.57 462.81 226.57 462.96 226.56 463.11 226.52 463.25 226.49 463.39 226.41 463.52 226.34 463.65 226.24 463.76 226.14 463.87 226.01 463.95 225.89 464.03 225.75 464.08 225.61 464.13 225.46 464.14 225.31 464.16 225.16 464.14 225.01 464.11 224.88 464.06 224.74 464.00 224.62 463.91 224.50 463.82 224.40 463.71 224.31 463.60 224.24 463.46 224.18 463.33 224.14 463.18 224.11 463.04 223.99 462.64 223.86 462.25 223.76 461.30 223.65 460.35 223.54 458.90 223.42 457.45 223.23 454.82 223.05 452.18 222.85 448.39 222.65 444.59 222.46 441.38 222.27 438.16 222.09 435.15 221.91 432.14 222.45 429.43 223.00 426.73 223.01 426.73 Z" data-drauu_index="10"></path><path fill="#ff595e" d="M 222.40 429.21 Q 222.40 429.21 224.03 428.06 225.67 426.91 227.30 427.09 228.93 427.26 230.16 428.20 231.38 429.14 232.05 430.81 232.72 432.49 232.75 433.93 232.77 435.37 232.29 436.56 231.80 437.76 230.97 438.57 230.15 439.37 229.20 439.79 228.24 440.20 227.00 439.86 225.75 439.51 225.75 439.51 225.75 439.51 225.74 439.51 225.74 439.51 225.74 439.51 225.74 439.51 225.74 439.51 225.74 439.51 225.74 439.51 225.74 439.51 225.74 439.51 225.74 439.51 225.73 439.51 225.73 439.51 225.73 439.50 225.73 439.50 225.73 439.50 225.73 439.50 225.73 439.50 225.73 439.50 225.74 439.50 225.74 439.50 225.74 439.50 225.74 439.50 225.74 439.49 225.74 439.49 225.74 439.50 225.74 439.50 225.75 439.51 225.75 439.51 225.75 439.51 225.75 439.51 225.74 439.51 225.74 439.51 225.74 439.51 225.74 439.51 225.74 439.51 225.74 439.51 225.74 439.51 225.74 439.51 225.74 439.51 225.74 439.51 225.73 439.51 225.73 439.51 225.73 439.50 225.73 439.50 225.73 439.50 225.73 439.50 225.73 439.50 225.73 439.50 225.74 439.50 225.74 439.50 225.74 439.50 225.74 439.50 225.74 439.49 225.74 439.49 226.45 438.64 227.17 437.79 227.75 437.51 228.33 437.24 228.85 436.87 229.36 436.51 229.75 435.86 230.14 435.21 230.22 434.22 230.30 433.24 230.01 432.02 229.73 430.80 229.06 430.12 228.40 429.43 227.33 429.16 226.25 428.89 224.33 429.06 222.40 429.22 222.40 429.22 Z" data-drauu_index="11"></path><path fill="#ff595e" d="M 237.74 425.58 Q 237.74 425.58 238.39 427.20 239.04 428.81 239.36 431.24 239.68 433.68 239.82 437.83 239.96 441.99 240.02 445.59 240.07 449.18 240.09 452.08 240.11 454.98 240.10 457.26 240.09 459.54 239.69 460.40 239.29 461.25 239.29 461.26 239.29 461.26 239.29 461.26 239.29 461.26 239.29 461.26 239.29 461.26 239.29 461.26 239.29 461.26 239.29 461.26 239.29 461.26 239.29 461.26 239.28 461.26 239.28 461.26 239.28 461.26 239.28 461.26 239.28 461.26 239.28 461.26 239.28 461.26 239.28 461.26 239.28 461.26 239.27 461.26 239.27 461.26 239.27 461.26 239.27 461.26 239.27 461.26 239.27 461.25 239.28 461.25 239.28 461.25 239.29 461.25 239.29 461.25 239.29 461.26 239.29 461.26 239.29 461.26 239.29 461.26 239.29 461.26 239.29 461.26 239.29 461.26 239.29 461.26 239.29 461.26 239.29 461.26 239.29 461.26 239.28 461.26 239.28 461.26 239.28 461.26 239.28 461.26 239.28 461.26 239.28 461.26 239.28 461.26 239.28 461.26 239.28 461.26 239.27 461.26 239.27 461.26 239.27 461.26 239.27 461.26 239.27 461.26 239.27 461.25 238.25 460.40 237.23 459.55 237.21 457.28 237.19 455.00 237.17 452.11 237.15 449.22 237.12 445.64 237.08 442.06 237.02 437.98 236.96 433.90 236.89 431.42 236.81 428.94 237.27 427.26 237.72 425.59 237.73 425.59 Z" data-drauu_index="12"></path><path fill="#ff595e" d="M 234.97 429.95 Q 234.97 429.95 235.97 428.80 236.96 427.66 238.57 427.16 240.18 426.66 241.84 426.97 243.49 427.28 244.97 428.43 246.45 429.58 247.16 430.88 247.88 432.18 247.93 433.58 247.99 434.99 247.18 436.32 246.37 437.64 245.35 438.40 244.32 439.15 243.27 439.56 242.21 439.97 240.55 439.28 238.89 438.59 238.89 438.59 238.89 438.58 238.90 438.58 238.90 438.58 240.05 438.00 241.19 437.42 241.95 437.09 242.72 436.77 243.42 436.35 244.13 435.92 244.75 435.30 245.38 434.67 245.44 433.93 245.51 433.20 245.15 432.28 244.79 431.37 243.84 430.41 242.88 429.45 241.73 429.14 240.58 428.84 239.22 429.00 237.87 429.16 236.43 429.56 234.98 429.96 234.98 429.96 Z" data-drauu_index="13"></path><path fill="#ff595e" d="M 249.18 415.63 Q 249.18 415.63 249.77 416.34 250.36 417.05 250.92 418.75 251.49 420.45 251.87 422.86 252.24 425.27 252.45 427.93 252.65 430.58 252.73 432.95 252.82 435.32 252.86 437.06 252.90 438.80 252.56 440.83 252.23 442.86 252.23 442.86 252.23 442.86 252.23 442.87 252.23 442.87 252.23 442.87 252.23 442.87 252.23 442.87 252.23 442.87 252.23 442.87 252.22 442.87 252.22 442.87 252.22 442.87 252.22 442.87 252.22 442.87 252.22 442.87 252.22 442.87 252.22 442.87 252.22 442.87 252.21 442.87 252.21 442.87 252.21 442.87 252.21 442.87 252.21 442.87 252.21 442.86 252.21 442.86 252.21 442.86 252.22 442.86 252.22 442.86 252.23 442.86 252.23 442.86 252.23 442.86 252.23 442.86 252.23 442.87 252.23 442.87 252.23 442.87 252.23 442.87 252.23 442.87 252.23 442.87 252.23 442.87 252.22 442.87 252.22 442.87 252.22 442.87 252.22 442.87 252.22 442.87 252.22 442.87 252.22 442.87 252.22 442.87 252.22 442.87 252.21 442.87 252.21 442.87 252.21 442.87 252.21 442.87 252.21 442.87 252.21 442.86 252.21 442.86 252.21 442.86 251.20 440.86 250.19 438.85 250.17 437.13 250.14 435.40 250.08 433.08 250.02 430.75 249.88 428.18 249.74 425.60 249.50 423.27 249.25 420.93 249.08 419.20 248.91 417.46 249.03 416.55 249.16 415.63 249.17 415.63 Z" data-drauu_index="14"></path><path fill="#ff595e" d="M 257.72 431.44 Q 257.72 431.44 258.20 432.94 258.68 434.45 258.63 435.84 258.59 437.22 258.56 438.44 258.54 439.66 258.92 440.30 259.31 440.94 260.12 440.90 260.93 440.86 261.44 440.32 261.94 439.79 262.47 438.61 263.00 437.44 263.26 436.27 263.51 435.11 263.41 434.16 263.31 433.21 263.03 432.69 262.74 432.17 262.26 431.81 261.78 431.45 261.72 431.29 261.67 431.12 261.66 430.95 261.65 430.78 261.68 430.61 261.70 430.44 261.77 430.28 261.84 430.13 261.95 429.99 262.05 429.85 262.19 429.74 262.32 429.64 262.48 429.56 262.63 429.49 262.80 429.46 262.97 429.43 263.14 429.43 263.31 429.44 263.48 429.49 263.64 429.54 263.79 429.63 263.94 429.72 264.06 429.84 264.19 429.96 264.28 430.10 264.37 430.25 264.08 431.34 263.80 432.43 263.77 433.37 263.75 434.30 263.81 436.14 263.87 437.97 264.21 440.43 264.56 442.88 265.04 445.76 265.52 448.64 265.94 452.20 266.37 455.77 266.55 458.39 266.73 461.01 266.62 462.85 266.51 464.70 265.27 466.01 264.03 467.32 262.82 467.16 261.62 467.00 260.28 465.54 258.94 464.08 257.84 461.97 256.75 459.85 256.13 457.61 255.51 455.37 255.74 453.00 255.98 450.63 256.94 448.98 257.91 447.32 259.15 446.28 260.39 445.23 261.62 444.76 262.86 444.29 264.80 444.65 266.73 445.00 266.73 445.01 266.73 445.01 266.73 445.02 266.73 445.02 265.30 445.85 263.87 446.68 263.03 447.10 262.19 447.52 261.27 448.22 260.35 448.92 259.60 450.00 258.85 451.09 258.60 452.88 258.36 454.68 258.87 456.59 259.38 458.51 260.32 460.36 261.25 462.21 262.46 463.22 263.67 464.23 263.72 462.72 263.77 461.21 263.59 458.66 263.42 456.11 263.01 452.61 262.61 449.12 262.13 446.20 261.66 443.28 261.31 440.67 260.96 438.05 260.92 436.04 260.88 434.03 261.33 432.74 261.78 431.45 261.72 431.29 261.67 431.12 261.66 430.95 261.65 430.78 261.68 430.61 261.70 430.44 261.77 430.28 261.84 430.13 261.95 429.99 262.05 429.85 262.19 429.74 262.32 429.64 262.48 429.56 262.63 429.49 262.80 429.46 262.97 429.43 263.14 429.43 263.31 429.44 263.48 429.49 263.64 429.54 263.79 429.63 263.94 429.72 264.06 429.84 264.19 429.96 264.28 430.10 264.37 430.25 264.77 430.56 265.18 430.86 265.62 431.91 266.06 432.95 266.12 434.33 266.18 435.70 265.82 437.17 265.45 438.64 264.61 440.21 263.77 441.79 262.68 442.62 261.60 443.45 260.38 443.56 259.16 443.67 258.12 443.01 257.08 442.34 256.49 441.04 255.90 439.75 255.94 438.41 255.98 437.08 256.09 435.65 256.19 434.22 256.95 432.83 257.70 431.44 257.71 431.44 Z" data-drauu_index="15"></path><path fill="#ff595e" d="M 273.12 429.82 Q 273.12 429.82 273.92 430.87 274.72 431.92 275.12 433.34 275.53 434.76 275.73 436.52 275.92 438.27 275.42 440.38 274.92 442.48 274.92 442.48 274.92 442.48 274.92 442.49 274.92 442.49 274.92 442.49 274.92 442.49 274.92 442.49 274.92 442.49 274.92 442.49 274.92 442.49 274.92 442.49 274.91 442.49 274.91 442.49 274.91 442.49 274.91 442.49 274.91 442.49 274.91 442.49 274.91 442.49 274.91 442.49 274.91 442.49 274.90 442.49 274.90 442.49 274.90 442.49 274.90 442.49 274.90 442.48 274.90 442.48 274.91 442.48 274.91 442.48 274.92 442.48 274.92 442.48 274.92 442.48 274.92 442.48 274.92 442.49 274.92 442.49 274.92 442.49 274.92 442.49 274.92 442.49 274.92 442.49 274.92 442.49 274.92 442.49 274.92 442.49 274.91 442.49 274.91 442.49 274.91 442.49 274.91 442.49 274.91 442.49 274.91 442.49 274.91 442.49 274.91 442.49 274.91 442.49 274.90 442.49 274.90 442.49 274.90 442.49 274.90 442.49 274.90 442.48 274.90 442.48 274.09 440.51 273.28 438.53 273.14 436.89 272.99 435.24 272.87 433.84 272.74 432.44 272.92 431.13 273.10 429.82 273.11 429.82 Z" data-drauu_index="16"></path><path fill="#ff595e" d="M 273.12 422.15 Q 273.12 422.15 274.08 423.63 275.04 425.11 275.04 425.11 275.03 425.11 275.03 425.12 275.02 425.12 274.06 423.64 273.10 422.16 273.11 422.16 Z" data-drauu_index="17"></path><path fill="#ff595e" d="M 282.53 428.14 Q 282.53 428.14 283.18 429.59 283.82 431.05 284.29 432.70 284.76 434.36 285.12 436.14 285.49 437.93 285.69 439.50 285.89 441.06 285.99 442.13 286.08 443.19 286.12 443.63 286.15 444.07 286.15 444.23 286.14 444.39 286.09 444.54 286.05 444.70 285.97 444.84 285.89 444.97 285.77 445.09 285.66 445.20 285.53 445.29 285.39 445.37 285.24 445.42 285.09 445.47 284.93 445.48 284.77 445.49 284.61 445.47 284.45 445.44 284.30 445.38 284.16 445.31 284.03 445.22 283.90 445.12 283.80 444.99 283.70 444.87 283.64 444.72 283.57 444.58 283.54 444.42 283.51 444.26 283.30 443.66 283.10 443.05 282.70 441.11 282.31 439.18 282.14 437.36 281.97 435.54 282.15 433.97 282.34 432.39 283.08 431.10 283.82 429.81 285.01 429.02 286.20 428.24 287.81 428.35 289.42 428.46 290.65 429.55 291.87 430.64 292.66 432.25 293.45 433.87 293.83 435.11 294.21 436.36 294.32 438.73 294.43 441.11 294.24 442.53 294.04 443.95 292.92 444.08 291.80 444.20 291.80 444.21 291.80 444.21 291.80 444.21 291.80 444.21 291.80 444.21 291.79 444.21 291.79 444.21 291.79 444.21 291.79 444.21 291.79 444.21 291.79 444.21 291.79 444.21 291.79 444.21 291.79 444.21 291.78 444.21 291.78 444.21 291.78 444.21 291.78 444.21 291.78 444.21 291.78 444.21 291.78 444.21 291.78 444.21 291.78 444.21 291.78 444.20 291.78 444.20 291.78 444.20 291.78 444.20 291.79 444.20 291.79 444.20 291.80 444.20 291.80 444.21 291.80 444.21 291.80 444.21 291.80 444.21 291.80 444.21 291.79 444.21 291.79 444.21 291.79 444.21 291.79 444.21 291.79 444.21 291.79 444.21 291.79 444.21 291.79 444.21 291.79 444.21 291.78 444.21 291.78 444.21 291.78 444.21 291.78 444.21 291.78 444.21 291.78 444.21 291.78 444.21 291.78 444.21 291.78 444.21 291.78 444.20 291.78 444.20 291.78 444.20 291.55 443.88 291.33 443.57 291.50 442.38 291.67 441.18 291.65 439.14 291.63 437.09 291.33 436.03 291.03 434.97 290.50 433.70 289.97 432.44 289.37 431.66 288.77 430.89 287.99 430.71 287.21 430.53 286.58 430.90 285.96 431.26 285.44 432.03 284.92 432.79 284.77 434.05 284.63 435.31 284.79 436.98 284.95 438.65 285.31 440.46 285.68 442.28 285.92 443.18 286.15 444.07 286.15 444.23 286.14 444.39 286.09 444.54 286.05 444.70 285.97 444.84 285.89 444.97 285.77 445.09 285.66 445.20 285.53 445.29 285.39 445.37 285.24 445.42 285.09 445.47 284.93 445.48 284.77 445.49 284.61 445.47 284.45 445.44 284.30 445.38 284.16 445.31 284.03 445.22 283.90 445.12 283.80 444.99 283.70 444.87 283.64 444.72 283.57 444.58 283.54 444.42 283.51 444.26 283.48 443.82 283.45 443.38 283.39 442.37 283.34 441.36 283.18 439.87 283.03 438.38 282.73 436.62 282.44 434.85 282.18 433.06 281.92 431.27 282.22 429.70 282.51 428.14 282.52 428.14 Z" data-drauu_index="18"></path><path fill="#ff595e" d="M 303.56 435.00 Q 303.56 435.00 303.21 434.23 302.86 433.47 302.60 433.98 302.34 434.49 301.89 435.32 301.44 436.15 300.98 437.72 300.52 439.28 300.32 440.46 300.11 441.64 300.70 441.66 301.28 441.69 302.44 440.60 303.61 439.51 304.24 438.41 304.87 437.31 305.27 436.12 305.68 434.93 305.82 433.68 305.97 432.42 305.62 431.57 305.28 430.71 305.29 430.52 305.30 430.33 305.36 430.15 305.41 429.96 305.51 429.80 305.61 429.63 305.74 429.50 305.88 429.36 306.04 429.26 306.21 429.16 306.39 429.10 306.57 429.04 306.77 429.03 306.96 429.02 307.15 429.05 307.34 429.09 307.51 429.17 307.69 429.24 307.84 429.36 307.99 429.48 308.11 429.63 308.23 429.78 308.31 429.96 308.39 430.13 308.42 430.32 308.46 430.51 308.01 431.55 307.57 432.58 307.42 433.72 307.26 434.85 307.27 437.74 307.28 440.62 307.54 443.64 307.80 446.65 307.98 448.81 308.16 450.97 308.29 454.13 308.41 457.29 308.36 459.96 308.32 462.63 308.02 464.23 307.73 465.84 307.00 466.89 306.27 467.93 304.87 468.12 303.46 468.30 302.22 467.04 300.98 465.78 300.43 464.15 299.87 462.52 299.82 460.80 299.76 459.08 300.39 457.33 301.02 455.57 302.19 454.04 303.37 452.50 305.21 451.04 307.05 449.59 309.68 448.71 312.30 447.83 312.31 447.83 312.31 447.83 312.31 447.84 312.31 447.84 310.68 450.00 309.05 452.16 307.48 453.35 305.91 454.54 304.98 455.67 304.04 456.80 303.53 457.96 303.02 459.12 303.02 460.35 303.01 461.59 303.31 462.70 303.60 463.82 304.07 464.47 304.53 465.12 304.78 463.84 305.02 462.56 305.07 459.99 305.12 457.41 305.01 454.33 304.90 451.24 304.72 449.08 304.54 446.92 304.30 443.77 304.06 440.62 304.08 437.46 304.10 434.30 304.69 432.51 305.28 430.71 305.29 430.52 305.30 430.33 305.36 430.15 305.41 429.96 305.51 429.80 305.61 429.63 305.74 429.50 305.88 429.36 306.04 429.26 306.21 429.16 306.39 429.10 306.57 429.04 306.77 429.03 306.96 429.02 307.15 429.05 307.34 429.09 307.51 429.17 307.69 429.24 307.84 429.36 307.99 429.48 308.11 429.63 308.23 429.78 308.31 429.96 308.39 430.13 308.42 430.32 308.46 430.51 308.66 430.64 308.86 430.76 308.96 431.81 309.05 432.86 308.78 434.41 308.51 435.97 307.95 437.39 307.39 438.82 306.56 440.14 305.73 441.46 304.47 442.69 303.22 443.93 302.19 444.22 301.17 444.52 299.92 444.27 298.67 444.02 298.02 442.66 297.37 441.31 297.63 439.88 297.89 438.45 298.53 436.60 299.16 434.75 299.92 433.65 300.68 432.54 301.59 432.02 302.49 431.51 303.35 431.80 304.21 432.10 304.48 432.81 304.75 433.52 304.17 434.26 303.58 435.00 303.57 435.00 Z" data-drauu_index="19"></path><path fill="#ff595e" d="M 272.04 420.15 Q 272.04 420.15 271.80 420.74 271.56 421.33 271.31 421.54 271.05 421.76 270.94 421.80 270.82 421.84 270.70 421.85 270.58 421.86 270.46 421.85 270.34 421.83 270.23 421.78 270.11 421.74 270.01 421.67 269.92 421.60 269.84 421.50 269.76 421.41 269.70 421.30 269.65 421.19 269.62 421.07 269.60 420.95 269.60 420.83 269.60 420.71 269.63 420.59 269.66 420.48 269.72 420.37 269.78 420.26 269.86 420.17 269.95 420.08 270.05 420.02 270.15 419.95 270.06 419.93 269.96 419.92 270.05 419.78 270.14 419.65 270.26 419.55 270.37 419.44 270.51 419.36 270.65 419.29 270.81 419.25 270.96 419.21 271.12 419.21 271.28 419.20 271.43 419.24 271.59 419.28 271.73 419.35 271.87 419.42 271.99 419.52 272.11 419.63 272.20 419.76 272.29 419.89 272.35 420.03 272.41 420.18 272.43 420.34 272.45 420.50 272.44 420.65 272.42 420.81 272.36 420.96 272.31 421.11 271.59 421.46 270.86 421.81 270.81 420.78 270.77 419.76 271.60 420.42 272.42 421.08 272.42 421.08 272.42 421.08 272.42 421.09 272.42 421.09 272.42 421.09 272.42 421.09 272.42 421.09 272.42 421.09 272.42 421.09 272.42 421.09 272.42 421.09 272.41 421.09 272.41 421.09 272.41 421.09 272.41 421.09 272.41 421.09 272.41 421.09 272.41 421.09 272.41 421.09 272.41 421.09 272.41 421.09 272.40 421.09 272.40 421.08 272.40 421.08 272.40 421.08 272.40 421.08 272.41 421.08 272.41 421.08 272.42 421.08 272.42 421.08 272.42 421.08 272.42 421.08 272.42 421.09 272.42 421.09 272.42 421.09 272.42 421.09 272.42 421.09 272.42 421.09 272.42 421.09 272.42 421.09 272.42 421.09 272.41 421.09 272.41 421.09 272.41 421.09 272.41 421.09 272.41 421.09 272.41 421.09 272.41 421.09 272.41 421.09 272.41 421.09 272.41 421.09 272.40 421.09 272.40 421.08 272.40 421.08 272.40 421.08 272.40 421.08 271.17 421.55 269.94 422.02 269.88 420.76 269.83 419.51 270.48 419.34 271.13 419.17 270.54 419.54 269.96 419.92 270.05 419.78 270.14 419.65 270.26 419.55 270.37 419.44 270.51 419.36 270.65 419.29 270.81 419.25 270.96 419.21 271.12 419.21 271.28 419.20 271.43 419.24 271.59 419.28 271.73 419.35 271.87 419.42 271.99 419.52 272.11 419.63 272.20 419.76 272.29 419.89 272.35 420.03 272.41 420.18 272.43 420.34 272.45 420.50 272.44 420.65 272.42 420.81 272.36 420.96 272.31 421.11 272.27 421.13 272.24 421.14 271.65 421.45 271.05 421.76 270.94 421.80 270.82 421.84 270.70 421.85 270.58 421.86 270.46 421.85 270.34 421.83 270.23 421.78 270.11 421.74 270.01 421.67 269.92 421.60 269.84 421.50 269.76 421.41 269.70 421.30 269.65 421.19 269.62 421.07 269.60 420.95 269.60 420.83 269.60 420.71 269.63 420.59 269.66 420.48 269.72 420.37 269.78 420.26 269.86 420.17 269.95 420.08 270.05 420.02 270.15 419.95 270.47 419.87 270.80 419.80 271.41 419.96 272.03 420.13 272.03 420.14 Z" data-drauu_index="20"></path><path fill="#ff595e" d="M 329.21 417.78 Q 329.21 417.78 329.86 419.09 330.51 420.39 330.89 423.07 331.26 425.75 331.52 429.73 331.78 433.71 331.99 436.24 332.21 438.77 332.47 440.27 332.72 441.76 333.04 442.37 333.35 442.99 335.01 441.41 336.68 439.83 336.68 439.83 336.69 439.84 336.69 439.84 336.70 439.84 335.80 442.48 334.91 445.12 333.96 445.42 333.01 445.72 331.86 445.08 330.71 444.43 330.22 443.37 329.73 442.30 329.45 440.66 329.18 439.03 328.96 436.46 328.75 433.89 328.54 429.97 328.33 426.05 328.14 423.24 327.96 420.43 328.57 419.11 329.19 417.78 329.20 417.78 Z" data-drauu_index="21"></path><path fill="#ff595e" d="M 322.41 433.38 Q 322.41 433.38 323.93 432.98 325.46 432.59 327.09 432.39 328.73 432.18 330.27 431.85 331.82 431.52 334.45 431.54 337.08 431.55 337.08 431.55 337.08 431.55 337.08 431.55 337.08 431.55 337.08 431.55 337.08 431.56 337.08 431.56 337.09 431.56 337.09 431.56 337.09 431.56 337.09 431.56 337.09 431.56 337.09 431.56 337.09 431.56 337.09 431.56 337.09 431.57 337.09 431.57 337.09 431.57 337.09 431.57 337.09 431.57 337.09 431.57 337.08 431.57 337.08 431.57 337.08 431.57 337.08 431.57 337.08 431.57 337.08 431.57 337.08 431.56 337.08 431.56 337.08 431.55 337.08 431.55 337.08 431.55 337.08 431.55 337.08 431.55 337.08 431.55 337.08 431.56 337.08 431.56 337.09 431.56 337.09 431.56 337.09 431.56 337.09 431.56 337.09 431.56 337.09 431.56 337.09 431.56 337.09 431.56 337.09 431.57 337.09 431.57 337.09 431.57 337.09 431.57 337.09 431.57 337.09 431.57 337.08 431.57 337.08 431.57 337.08 431.57 337.08 431.57 337.08 431.57 334.69 432.80 332.30 434.02 330.62 434.32 328.94 434.62 327.09 434.71 325.23 434.80 323.82 434.10 322.40 433.40 322.41 433.39 Z" data-drauu_index="22"></path><path fill="#ff595e" d="M 340.10 420.94 Q 340.10 420.94 341.00 422.82 341.90 424.69 342.26 427.67 342.63 430.65 342.84 433.23 343.05 435.81 343.16 437.89 343.27 439.96 343.33 441.42 343.40 442.88 343.47 443.72 343.53 444.57 343.58 445.09 343.62 445.62 343.61 445.80 343.60 445.97 343.55 446.14 343.50 446.31 343.41 446.46 343.32 446.62 343.20 446.74 343.08 446.87 342.93 446.96 342.78 447.06 342.61 447.11 342.44 447.17 342.27 447.18 342.09 447.19 341.92 447.16 341.74 447.13 341.58 447.06 341.42 446.99 341.28 446.89 341.14 446.78 341.03 446.64 340.92 446.50 340.84 446.35 340.77 446.19 340.73 446.01 340.70 445.84 340.70 444.86 340.70 443.88 340.71 442.49 340.71 441.10 340.71 438.98 340.71 436.85 340.92 435.19 341.13 433.52 341.75 432.31 342.38 431.10 343.62 430.45 344.87 429.81 346.29 430.36 347.72 430.91 348.77 432.01 349.82 433.12 350.50 434.58 351.17 436.04 351.52 437.67 351.86 439.31 352.00 440.85 352.14 442.39 352.15 443.86 352.15 445.32 352.02 446.21 351.88 447.10 350.99 446.15 350.09 445.20 350.09 445.20 350.09 445.20 350.08 445.20 350.08 445.20 350.08 445.20 350.08 445.20 350.08 445.20 350.08 445.20 350.08 445.20 350.08 445.20 350.08 445.20 350.08 445.20 350.07 445.20 350.07 445.20 350.07 445.20 350.07 445.20 350.07 445.20 350.07 445.20 350.07 445.20 350.07 445.20 350.07 445.20 350.07 445.20 350.07 445.19 350.07 445.19 350.07 445.19 350.07 445.19 350.07 445.19 350.08 445.19 350.08 445.19 350.09 445.20 350.09 445.20 350.09 445.20 350.08 445.20 350.08 445.20 350.08 445.20 350.08 445.20 350.08 445.20 350.08 445.20 350.08 445.20 350.08 445.20 350.08 445.20 350.08 445.20 350.07 445.20 350.07 445.20 350.07 445.20 350.07 445.20 350.07 445.20 350.07 445.20 350.07 445.20 350.07 445.20 350.07 445.20 350.07 445.20 350.07 445.19 350.07 445.19 350.07 445.19 350.07 445.19 349.51 445.93 348.96 446.66 349.06 445.98 349.16 445.30 349.18 443.97 349.20 442.64 349.09 441.26 348.98 439.87 348.74 438.53 348.49 437.19 348.06 436.11 347.63 435.02 346.98 434.23 346.32 433.44 345.55 433.04 344.78 432.65 344.39 433.30 344.00 433.96 343.82 435.41 343.64 436.86 343.64 438.98 343.64 441.10 343.64 442.50 343.63 443.90 343.63 444.76 343.62 445.62 343.61 445.80 343.60 445.97 343.55 446.14 343.50 446.31 343.41 446.46 343.32 446.61 343.20 446.74 343.08 446.87 342.93 446.96 342.78 447.06 342.61 447.11 342.44 447.17 342.27 447.18 342.09 447.19 341.92 447.16 341.74 447.13 341.58 447.06 341.42 446.99 341.28 446.89 341.14 446.78 341.03 446.64 340.92 446.51 340.84 446.35 340.77 446.19 340.73 446.01 340.70 445.84 340.66 445.31 340.63 444.79 340.56 443.89 340.50 443.00 340.44 441.55 340.38 440.10 340.28 438.07 340.18 436.03 339.99 433.50 339.80 430.96 339.51 427.98 339.22 425.01 339.65 422.98 340.08 420.94 340.09 420.94 Z" data-drauu_index="23"></path><path fill="#ff595e" d="M 356.03 437.41 Q 356.03 437.41 357.03 437.06 358.04 436.71 358.52 436.23 358.99 435.74 359.16 435.17 359.33 434.60 358.96 434.24 358.59 433.89 358.11 433.75 357.63 433.61 357.18 434.72 356.73 435.83 356.63 437.36 356.52 438.89 356.52 440.31 356.53 441.73 356.82 442.59 357.12 443.45 358.45 443.65 359.79 443.86 360.73 443.52 361.67 443.18 363.71 442.44 365.76 441.70 365.76 441.71 365.77 441.71 365.77 441.71 365.78 441.72 364.21 443.97 362.64 446.23 361.13 446.65 359.62 447.07 357.89 446.80 356.15 446.53 355.18 445.55 354.20 444.58 353.81 443.16 353.42 441.74 353.44 440.17 353.47 438.60 353.70 436.74 353.92 434.88 354.42 433.67 354.91 432.46 355.76 431.74 356.62 431.02 357.66 431.01 358.70 431.00 359.65 431.50 360.60 431.99 361.17 432.76 361.74 433.53 361.84 434.39 361.93 435.26 361.64 436.00 361.34 436.75 360.73 437.32 360.11 437.89 359.08 438.12 358.04 438.36 357.04 437.90 356.03 437.43 356.03 437.42 Z" data-drauu_index="24"></path><path fill="#ff595e" d="M 388.51 427.68 Q 388.51 427.68 387.61 428.17 386.72 428.66 386.24 429.10 385.75 429.54 385.27 430.29 384.78 431.04 384.42 432.08 384.07 433.11 383.89 434.26 383.70 435.40 383.73 436.65 383.76 437.90 384.10 438.56 384.45 439.23 384.91 439.59 385.37 439.95 385.87 440.10 386.36 440.25 387.77 440.73 389.17 441.20 389.17 441.20 389.17 441.21 389.17 441.21 389.17 441.22 387.28 442.07 385.39 442.93 384.42 442.54 383.44 442.15 382.62 441.31 381.81 440.48 381.33 439.25 380.84 438.02 380.84 436.46 380.83 434.89 381.11 433.50 381.39 432.11 381.95 430.73 382.50 429.36 383.43 428.25 384.35 427.15 385.55 426.68 386.76 426.21 387.64 426.93 388.51 427.66 388.51 427.67 Z" data-drauu_index="25"></path><path fill="#ff595e" d="M 395.32 432.85 Q 395.32 432.85 395.26 433.87 395.20 434.88 395.18 435.98 395.16 437.07 395.07 438.00 394.97 438.94 395.11 439.47 395.25 440.00 395.95 440.18 396.65 440.35 397.15 440.07 397.65 439.79 398.14 439.31 398.63 438.83 398.93 438.26 399.22 437.69 399.34 437.19 399.45 436.70 399.10 436.15 398.75 435.60 398.22 435.14 397.70 434.68 397.18 434.48 396.66 434.27 396.03 434.95 395.41 435.63 394.93 437.38 394.46 439.12 394.45 439.12 394.45 439.12 394.44 439.13 394.44 439.13 393.63 436.68 392.81 434.24 393.37 433.34 393.93 432.44 394.95 431.88 395.97 431.32 396.95 431.48 397.93 431.64 398.83 432.14 399.72 432.63 400.53 433.53 401.35 434.44 401.76 435.73 402.18 437.03 401.93 438.06 401.67 439.09 401.09 440.01 400.51 440.92 399.59 441.67 398.67 442.41 397.48 442.75 396.28 443.08 395.07 442.71 393.85 442.35 393.22 441.54 392.59 440.74 392.40 439.71 392.20 438.68 392.34 437.58 392.47 436.48 392.97 435.16 393.48 433.83 394.39 433.34 395.30 432.84 395.31 432.85 Z" data-drauu_index="26"></path><path fill="#ff595e" d="M 404.80 430.62 Q 404.80 430.62 405.76 432.19 406.72 433.76 406.95 435.52 407.18 437.28 407.28 438.87 407.38 440.47 407.43 441.57 407.47 442.68 407.49 443.25 407.51 443.81 407.52 443.95 407.53 444.09 407.51 444.27 407.50 444.45 407.44 444.62 407.38 444.78 407.29 444.93 407.19 445.08 407.06 445.20 406.93 445.33 406.78 445.41 406.62 445.50 406.45 445.55 406.28 445.60 406.10 445.60 405.92 445.61 405.75 445.57 405.58 445.53 405.42 445.46 405.26 445.38 405.12 445.26 404.98 445.15 404.88 445.01 404.77 444.86 404.70 444.70 404.64 444.54 404.61 444.36 404.58 444.18 404.58 443.56 404.59 442.94 404.59 441.72 404.59 440.50 404.60 438.20 404.61 435.91 404.82 434.05 405.03 432.20 405.55 430.82 406.07 429.43 406.79 428.55 407.50 427.68 408.88 427.34 410.25 427.01 411.44 427.99 412.64 428.97 413.40 430.50 414.16 432.02 414.53 433.67 414.90 435.32 415.05 436.75 415.19 438.18 414.08 440.29 412.96 442.39 412.96 442.39 412.96 442.39 412.96 442.40 412.96 442.40 412.96 442.40 412.96 442.40 412.95 442.40 412.95 442.40 412.95 442.40 412.95 442.40 412.95 442.40 412.95 442.40 412.95 442.40 412.95 442.40 412.95 442.40 412.95 442.40 412.94 442.40 412.94 442.40 412.94 442.40 412.94 442.40 412.94 442.40 412.94 442.40 412.94 442.40 412.94 442.40 412.94 442.40 412.94 442.39 412.94 442.39 412.95 442.39 412.95 442.39 412.96 442.39 412.96 442.39 412.96 442.39 412.96 442.40 412.96 442.40 412.96 442.40 412.96 442.40 412.95 442.40 412.95 442.40 412.95 442.40 412.95 442.40 412.95 442.40 412.95 442.40 412.95 442.40 412.95 442.40 412.95 442.40 412.95 442.40 412.94 442.40 412.94 442.40 412.94 442.40 412.94 442.40 412.94 442.40 412.94 442.40 412.94 442.40 412.94 442.40 412.94 442.40 412.94 442.39 412.62 440.42 412.29 438.45 412.18 437.18 412.07 435.90 411.82 434.56 411.57 433.22 411.07 432.07 410.57 430.93 410.06 430.27 409.55 429.62 409.13 430.07 408.71 430.52 408.29 431.53 407.88 432.54 407.70 434.22 407.52 435.91 407.53 438.21 407.54 440.50 407.54 441.73 407.54 442.95 407.53 443.52 407.53 444.09 407.51 444.27 407.50 444.45 407.44 444.61 407.38 444.78 407.29 444.93 407.19 445.08 407.06 445.20 406.93 445.33 406.78 445.41 406.62 445.50 406.45 445.55 406.28 445.60 406.10 445.60 405.92 445.61 405.75 445.57 405.58 445.53 405.42 445.46 405.26 445.38 405.12 445.26 404.98 445.15 404.88 445.01 404.77 444.86 404.70 444.70 404.64 444.54 404.61 444.36 404.58 444.18 404.58 444.04 404.57 443.90 404.56 443.35 404.54 442.79 404.50 441.72 404.47 440.65 404.38 439.12 404.29 437.59 404.15 435.90 404.02 434.22 404.40 432.43 404.78 430.63 404.79 430.63 Z" data-drauu_index="27"></path><path fill="#ff595e" d="M 426.17 430.84 Q 426.17 430.84 425.36 430.50 424.54 430.16 424.02 430.79 423.50 431.42 423.14 432.20 422.79 432.99 422.54 433.99 422.30 434.98 422.20 436.05 422.10 437.12 422.04 438.06 421.99 439.00 422.30 439.48 422.61 439.97 424.21 440.86 425.81 441.76 425.81 441.77 425.81 441.77 425.81 441.78 425.81 441.78 423.54 442.26 421.27 442.74 420.57 442.03 419.87 441.32 419.42 440.16 418.97 439.00 419.03 437.89 419.09 436.78 419.26 435.48 419.44 434.19 419.83 432.90 420.23 431.60 420.93 430.46 421.63 429.32 422.73 428.72 423.82 428.11 424.81 428.57 425.80 429.03 425.99 429.92 426.18 430.82 426.18 430.83 Z" data-drauu_index="28"></path><path fill="#ff595e" d="M 433.57 435.19 Q 433.57 435.19 434.56 434.61 435.56 434.03 435.91 433.30 436.26 432.57 436.14 431.97 436.03 431.37 435.23 431.35 434.43 431.34 433.98 431.75 433.53 432.17 433.06 432.96 432.59 433.76 432.16 434.93 431.74 436.10 431.52 437.35 431.29 438.59 431.04 439.06 430.78 439.52 431.69 439.94 432.60 440.35 433.52 440.56 434.45 440.78 435.33 440.88 436.21 440.98 438.14 440.50 440.07 440.02 440.07 440.03 440.07 440.03 440.08 440.03 440.08 440.04 438.05 442.08 436.02 444.12 434.80 443.97 433.57 443.82 432.17 443.36 430.77 442.90 429.57 441.72 428.38 440.55 428.36 439.27 428.34 437.99 428.67 436.51 429.00 435.02 429.60 433.59 430.21 432.15 431.08 431.01 431.94 429.86 433.08 429.25 434.22 428.63 435.52 428.75 436.83 428.86 437.62 429.50 438.40 430.15 438.70 431.12 439.00 432.08 438.81 432.92 438.61 433.76 438.03 434.51 437.44 435.26 436.64 435.47 435.84 435.68 434.71 435.44 433.58 435.21 433.57 435.20 Z" data-drauu_index="29"></path><path fill="#ff595e" d="M 444.08 427.20 Q 444.08 427.20 444.61 428.49 445.14 429.79 445.70 431.91 446.25 434.04 446.80 436.85 447.36 439.66 447.77 442.63 448.19 445.60 448.38 448.70 448.58 451.79 448.66 453.60 448.75 455.41 448.78 456.26 448.82 457.10 448.82 457.48 448.82 457.86 448.80 458.03 448.79 458.20 448.74 458.36 448.68 458.52 448.59 458.66 448.50 458.81 448.38 458.92 448.26 459.04 448.11 459.13 447.96 459.21 447.80 459.26 447.63 459.31 447.46 459.31 447.29 459.32 447.13 459.29 446.96 459.25 446.81 459.18 446.65 459.11 446.52 459.00 446.39 458.89 446.29 458.76 446.19 458.62 446.12 458.46 446.05 458.31 446.03 458.14 446.00 457.97 446.63 455.79 447.26 453.61 447.27 453.61 447.27 453.61 447.28 453.61 447.28 453.61 448.05 455.73 448.82 457.86 448.80 458.03 448.79 458.20 448.74 458.36 448.68 458.52 448.59 458.66 448.50 458.81 448.38 458.92 448.26 459.04 448.11 459.13 447.96 459.21 447.80 459.26 447.63 459.31 447.46 459.31 447.29 459.32 447.13 459.29 446.96 459.25 446.81 459.18 446.65 459.11 446.52 459.00 446.39 458.89 446.29 458.76 446.19 458.62 446.12 458.46 446.05 458.31 446.03 458.14 446.00 457.97 445.97 457.59 445.94 457.22 445.91 456.38 445.87 455.54 445.79 453.76 445.72 451.97 445.54 448.98 445.35 445.98 444.97 443.08 444.59 440.18 444.09 437.36 443.58 434.55 443.28 432.17 442.99 429.79 443.52 428.50 444.06 427.20 444.07 427.20 Z" data-drauu_index="30"></path><path fill="#ff595e" d="M 443.25 428.27 Q 443.25 428.27 444.44 427.13 445.62 425.99 447.21 425.72 448.80 425.45 450.29 425.87 451.79 426.28 452.84 427.17 453.89 428.06 454.40 429.40 454.91 430.74 454.36 432.44 453.81 434.13 452.89 435.25 451.98 436.36 450.96 437.01 449.95 437.66 447.71 437.21 445.46 436.75 445.46 436.75 445.46 436.75 445.46 436.75 445.46 436.75 445.45 436.75 445.45 436.75 445.45 436.75 445.45 436.75 445.45 436.75 445.45 436.75 445.45 436.75 445.45 436.75 445.45 436.74 445.45 436.74 445.45 436.74 445.44 436.74 445.44 436.74 445.44 436.74 445.44 436.74 445.45 436.74 445.45 436.74 445.45 436.73 445.45 436.73 445.45 436.73 445.45 436.73 445.45 436.73 445.45 436.74 445.45 436.74 445.46 436.74 445.46 436.75 445.46 436.75 445.46 436.75 445.46 436.75 445.46 436.75 445.45 436.75 445.45 436.75 445.45 436.75 445.45 436.75 445.45 436.75 445.45 436.75 445.45 436.75 445.45 436.75 445.45 436.74 445.45 436.74 445.45 436.74 445.44 436.74 445.44 436.74 445.44 436.74 445.44 436.74 445.45 436.74 445.45 436.74 445.45 436.73 445.45 436.73 445.45 436.73 445.45 436.73 445.45 436.73 446.96 435.94 448.47 435.14 449.13 434.78 449.80 434.42 450.48 433.69 451.16 432.96 451.71 432.05 452.26 431.15 452.10 430.55 451.93 429.95 451.39 429.38 450.85 428.80 449.88 428.41 448.90 428.01 447.68 427.93 446.46 427.85 444.86 428.07 443.26 428.28 443.26 428.28 Z" data-drauu_index="31"></path><path fill="#ff595e" d="M 457.06 412.74 Q 457.06 412.74 457.92 415.90 458.78 419.06 458.95 422.29 459.11 425.53 459.23 428.74 459.34 431.96 459.46 434.66 459.58 437.37 459.78 439.15 459.98 440.93 460.15 441.45 460.32 441.98 460.58 441.45 460.85 440.93 462.50 439.24 464.15 437.56 464.15 437.56 464.16 437.56 464.16 437.56 464.17 437.56 463.50 440.43 462.84 443.30 461.72 444.02 460.61 444.75 459.41 444.41 458.22 444.07 457.48 442.71 456.74 441.35 456.53 439.43 456.32 437.51 456.21 434.78 456.11 432.05 456.04 428.84 455.98 425.64 455.91 422.41 455.85 419.18 456.44 415.96 457.04 412.74 457.05 412.74 Z" data-drauu_index="32"></path><path fill="#ff595e" d="M 450.93 424.84 Q 450.93 424.84 452.57 424.55 454.21 424.26 456.60 424.11 459.00 423.97 460.87 423.83 462.74 423.68 465.03 423.97 467.32 424.26 467.33 424.26 467.33 424.26 467.34 424.26 467.34 424.27 465.13 425.39 462.92 426.51 460.97 426.62 459.02 426.72 456.42 426.62 453.83 426.51 452.37 425.68 450.92 424.85 450.93 424.84 Z" data-drauu_index="33"></path><path fill="#ff595e" d="M 489.19 426.60 Q 489.19 426.60 488.34 427.35 487.48 428.11 487.06 428.85 486.64 429.59 486.29 430.58 485.93 431.56 485.70 432.76 485.47 433.96 485.40 435.16 485.32 436.36 486.16 436.78 487.00 437.19 487.84 437.10 488.69 437.01 489.70 436.36 490.71 435.70 491.31 435.07 491.91 434.43 491.86 433.57 491.81 432.70 491.21 432.17 490.60 431.64 489.43 430.91 488.26 430.17 487.45 429.83 486.64 429.50 487.13 429.60 487.63 429.71 488.50 429.68 489.37 429.66 490.37 429.16 491.38 428.65 492.82 427.28 494.26 425.92 495.39 424.46 496.52 423.01 497.22 421.58 497.92 420.15 498.19 418.69 498.46 417.23 497.95 415.63 497.44 414.03 497.08 413.19 496.72 412.35 496.13 411.90 495.55 411.44 495.49 411.26 495.44 411.07 495.43 410.88 495.42 410.69 495.45 410.50 495.49 410.32 495.57 410.14 495.65 409.97 495.77 409.82 495.89 409.67 496.04 409.55 496.20 409.44 496.37 409.36 496.55 409.28 496.74 409.25 496.92 409.22 497.11 409.23 497.31 409.25 497.49 409.31 497.67 409.37 497.83 409.47 497.99 409.57 498.13 409.70 498.26 409.84 498.36 410.01 498.46 410.17 498.07 411.56 497.69 412.95 497.57 414.51 497.45 416.07 497.37 419.66 497.30 423.25 497.34 426.94 497.38 430.63 497.67 434.20 497.96 437.78 498.29 441.12 498.63 444.47 498.83 447.80 499.04 451.14 499.13 453.21 499.22 455.29 499.09 456.58 498.97 457.86 498.70 458.67 498.43 459.48 497.51 460.10 496.59 460.72 495.51 460.52 494.44 460.32 493.65 459.65 492.87 458.97 492.47 458.35 492.07 457.73 492.41 455.49 492.74 453.25 492.75 453.25 492.75 453.25 492.76 453.25 492.76 453.25 493.91 454.95 495.06 456.65 495.41 457.09 495.77 457.52 495.88 456.47 496.00 455.42 495.92 453.38 495.84 451.33 495.64 448.06 495.44 444.79 495.11 441.41 494.77 438.03 494.48 434.35 494.19 430.66 494.15 426.92 494.11 423.17 494.20 419.45 494.29 415.73 494.92 413.59 495.55 411.44 495.49 411.26 495.44 411.07 495.43 410.88 495.42 410.69 495.45 410.50 495.49 410.32 495.57 410.14 495.65 409.97 495.77 409.82 495.89 409.67 496.04 409.55 496.20 409.44 496.37 409.36 496.55 409.28 496.73 409.25 496.92 409.22 497.11 409.23 497.31 409.25 497.49 409.31 497.67 409.37 497.83 409.47 497.99 409.57 498.13 409.70 498.26 409.84 498.36 410.01 498.46 410.17 498.97 410.55 499.49 410.94 499.99 412.07 500.49 413.21 501.01 415.45 501.53 417.69 501.13 419.61 500.72 421.53 499.85 423.23 498.97 424.93 497.67 426.57 496.36 428.21 494.52 429.84 492.67 431.47 491.05 432.11 489.44 432.75 488.04 432.70 486.64 432.65 485.56 432.12 484.48 431.60 484.00 430.57 483.52 429.55 483.90 428.34 484.29 427.13 485.20 426.70 486.11 426.27 487.00 426.45 487.88 426.63 488.92 427.10 489.96 427.56 491.41 428.54 492.87 429.52 493.80 430.65 494.72 431.78 494.92 433.03 495.12 434.28 494.63 435.40 494.14 436.52 493.18 437.44 492.23 438.36 490.60 439.18 488.97 440.01 487.51 440.02 486.04 440.04 484.83 439.44 483.61 438.84 483.02 437.63 482.42 436.43 482.52 434.88 482.62 433.33 482.98 431.88 483.34 430.43 484.00 429.10 484.66 427.76 485.73 426.96 486.80 426.16 488.00 426.37 489.19 426.58 489.19 426.59 Z" data-drauu_index="34"></path><path fill="#ff595e" d="M 491.21 443.73 Q 491.21 443.73 492.20 443.46 493.19 443.18 494.37 443.07 495.54 442.96 497.18 442.66 498.82 442.36 500.13 442.12 501.45 441.88 502.78 442.19 504.12 442.50 504.12 442.50 504.12 442.50 504.12 442.50 504.12 442.50 504.12 442.50 504.12 442.50 504.12 442.50 504.12 442.50 504.13 442.50 504.13 442.51 504.13 442.51 504.13 442.51 504.13 442.51 504.13 442.51 504.13 442.51 504.13 442.51 504.13 442.51 504.13 442.51 504.13 442.52 504.12 442.52 504.12 442.52 504.12 442.52 504.12 442.52 504.12 442.52 504.12 442.52 504.12 442.52 504.12 442.52 504.12 442.51 504.12 442.51 504.12 442.50 504.12 442.50 504.12 442.50 504.12 442.50 504.12 442.50 504.12 442.50 504.12 442.50 504.12 442.50 504.12 442.50 504.13 442.50 504.13 442.51 504.13 442.51 504.13 442.51 504.13 442.51 504.13 442.51 504.13 442.51 504.13 442.51 504.13 442.51 504.13 442.51 504.13 442.52 504.12 442.52 504.12 442.52 504.12 442.52 504.12 442.52 504.12 442.52 504.12 442.52 504.12 442.52 503.02 443.59 501.92 444.66 500.57 444.88 499.22 445.10 497.32 445.32 495.42 445.55 494.10 445.31 492.79 445.07 492.00 444.41 491.21 443.75 491.21 443.74 Z" data-drauu_index="35"></path><path fill="#ff595e" d="M 533.37 429.56 Q 533.37 429.56 532.57 429.13 531.76 428.71 531.10 428.59 530.43 428.47 529.62 429.30 528.80 430.14 528.21 431.50 527.63 432.86 527.33 434.17 527.04 435.49 526.89 436.49 526.75 437.49 527.55 437.74 528.36 437.99 529.51 437.51 530.66 437.04 531.24 436.26 531.82 435.48 532.19 434.41 532.56 433.34 532.72 431.31 532.88 429.28 532.56 427.03 532.24 424.77 531.68 422.20 531.13 419.63 530.57 417.31 530.00 415.00 529.55 413.44 529.10 411.87 528.89 411.26 528.68 410.65 528.65 410.46 528.62 410.28 528.64 410.09 528.66 409.91 528.71 409.73 528.77 409.56 528.87 409.40 528.97 409.24 529.11 409.11 529.24 408.99 529.40 408.89 529.57 408.80 529.74 408.75 529.92 408.70 530.11 408.69 530.29 408.69 530.48 408.73 530.66 408.76 530.83 408.84 530.99 408.92 531.14 409.04 531.28 409.16 531.39 409.31 531.50 409.46 531.57 409.63 531.65 409.80 531.59 410.87 531.54 411.95 531.57 413.81 531.60 415.68 531.81 418.06 532.01 420.44 532.36 423.80 532.70 427.16 532.91 429.30 533.11 431.43 533.35 433.76 533.60 436.09 533.83 437.48 534.06 438.87 534.29 439.54 534.52 440.21 535.11 439.97 535.71 439.73 535.71 439.73 535.71 439.73 535.71 439.73 535.71 439.74 535.71 439.74 535.71 439.74 535.71 439.74 535.71 439.74 535.71 439.74 535.71 439.74 535.71 439.74 535.71 439.74 535.71 439.74 535.71 439.75 535.71 439.75 535.71 439.75 535.71 439.75 535.71 439.75 535.70 439.75 535.70 439.75 535.70 439.75 535.70 439.75 535.70 439.75 535.70 439.74 535.70 439.74 535.70 439.74 535.70 439.74 535.70 439.74 535.71 439.73 535.71 439.73 535.71 439.73 535.71 439.73 535.71 439.73 535.71 439.74 535.71 439.74 535.71 439.74 535.71 439.74 535.71 439.74 535.71 439.74 535.71 439.74 535.71 439.74 535.71 439.74 535.71 439.74 535.71 439.75 535.71 439.75 535.71 439.75 535.71 439.75 535.71 439.75 535.70 439.75 535.70 439.75 535.70 439.75 535.70 439.75 535.70 439.75 535.70 439.74 535.70 439.74 535.70 439.74 534.14 441.09 532.58 442.44 532.07 441.85 531.56 441.27 531.24 440.33 530.92 439.39 530.68 437.90 530.43 436.42 530.19 434.07 529.95 431.73 529.75 429.60 529.55 427.48 529.22 424.09 528.89 420.70 528.69 418.21 528.49 415.72 528.48 413.67 528.46 411.63 528.57 411.14 528.68 410.65 528.65 410.46 528.62 410.28 528.64 410.09 528.65 409.91 528.71 409.73 528.77 409.56 528.87 409.40 528.97 409.24 529.11 409.12 529.24 408.99 529.40 408.89 529.57 408.80 529.74 408.75 529.92 408.70 530.11 408.69 530.29 408.69 530.48 408.73 530.66 408.76 530.83 408.84 530.99 408.92 531.14 409.04 531.28 409.16 531.39 409.31 531.50 409.46 531.57 409.63 531.65 409.80 531.82 410.42 532.00 411.05 532.46 412.67 532.91 414.29 533.48 416.65 534.05 419.01 534.62 421.69 535.19 424.38 535.51 426.96 535.83 429.54 535.58 431.95 535.32 434.36 534.73 435.83 534.13 437.30 533.18 438.41 532.22 439.52 530.81 440.23 529.39 440.95 528.45 440.87 527.51 440.79 526.21 440.22 524.91 439.64 524.40 438.49 523.90 437.35 524.06 436.08 524.21 434.80 524.62 433.22 525.03 431.63 525.91 429.91 526.80 428.18 527.75 427.32 528.70 426.46 529.74 426.15 530.79 425.85 531.62 426.16 532.45 426.47 532.94 427.08 533.44 427.69 533.41 428.62 533.38 429.55 533.38 429.55 Z" data-drauu_index="36"></path><path fill="#ff595e" d="M 540.45 425.92 Q 540.45 425.92 541.51 427.59 542.57 429.25 542.85 430.99 543.13 432.72 543.24 434.20 543.35 435.68 543.38 436.75 543.42 437.83 542.71 438.01 541.99 438.20 541.99 438.20 541.99 438.20 541.99 438.20 541.99 438.20 541.99 438.20 541.99 438.20 541.99 438.20 541.99 438.21 541.99 438.21 541.99 438.21 541.99 438.21 541.99 438.21 541.99 438.21 541.98 438.21 541.98 438.21 541.98 438.21 541.98 438.21 541.98 438.21 541.98 438.21 541.98 438.20 541.98 438.20 541.98 438.20 541.98 438.20 541.98 438.20 541.98 438.20 541.97 438.20 541.98 438.20 541.98 438.20 541.99 438.20 541.99 438.20 541.99 438.20 541.99 438.20 541.99 438.20 541.99 438.20 541.99 438.20 541.99 438.20 541.99 438.20 541.99 438.21 541.99 438.21 541.99 438.21 541.99 438.21 541.99 438.21 541.99 438.21 541.98 438.21 541.98 438.21 541.98 438.21 541.98 438.21 541.98 438.21 541.98 438.21 541.98 438.20 541.98 438.20 541.98 438.20 541.98 438.20 541.98 438.20 541.98 438.20 541.97 438.20 541.21 438.06 540.45 437.92 540.42 436.88 540.39 435.84 540.33 434.44 540.28 433.04 540.18 431.45 540.09 429.86 540.26 427.89 540.43 425.92 540.44 425.92 Z" data-drauu_index="37"></path><path fill="#ff595e" d="M 538.95 419.19 Q 538.95 419.19 539.72 419.12 540.48 419.05 540.48 419.05 540.48 419.05 540.48 419.05 540.49 419.05 540.49 419.05 540.49 419.05 540.49 419.05 540.49 419.05 540.49 419.05 540.49 419.05 540.49 419.05 540.50 419.05 540.50 419.05 540.50 419.05 540.50 419.06 540.50 419.06 540.50 419.06 540.50 419.06 540.50 419.06 540.50 419.06 540.50 419.06 540.50 419.06 540.50 419.06 540.50 419.07 540.50 419.07 540.50 419.07 540.49 419.06 540.49 419.06 540.49 419.06 540.48 419.05 540.48 419.05 540.48 419.05 540.48 419.05 540.49 419.05 540.49 419.05 540.49 419.05 540.49 419.05 540.49 419.05 540.49 419.05 540.49 419.05 540.49 419.05 540.50 419.05 540.50 419.05 540.50 419.05 540.50 419.06 540.50 419.06 540.50 419.06 540.50 419.06 540.50 419.06 540.50 419.06 540.50 419.06 540.50 419.06 540.50 419.06 540.50 419.07 540.50 419.07 540.50 419.07 539.73 419.14 538.96 419.20 538.96 419.20 Z" data-drauu_index="38"></path><path fill="#ff595e" d="M 552.54 425.98 Q 552.54 425.98 553.47 425.32 554.40 424.66 555.20 423.70 556.00 422.75 556.50 421.92 557.00 421.10 557.19 420.23 557.37 419.37 557.39 418.34 557.40 417.31 557.03 416.27 556.65 415.23 556.03 414.35 555.40 413.47 554.90 413.05 554.39 412.63 554.31 412.47 554.23 412.31 554.19 412.14 554.15 411.96 554.15 411.78 554.15 411.60 554.20 411.43 554.25 411.25 554.33 411.10 554.42 410.94 554.54 410.81 554.66 410.67 554.81 410.57 554.96 410.47 555.13 410.41 555.30 410.35 555.48 410.33 555.65 410.32 555.83 410.34 556.01 410.36 556.18 410.43 556.34 410.50 556.49 410.60 556.64 410.71 556.75 410.84 556.87 410.98 556.47 412.35 556.06 413.72 555.95 414.93 555.84 416.14 555.76 419.31 555.69 422.49 555.79 425.94 555.89 429.39 556.18 432.92 556.47 436.46 556.73 439.79 556.98 443.13 557.11 445.94 557.24 448.76 557.30 450.93 557.36 453.10 557.22 454.32 557.07 455.54 556.62 456.34 556.17 457.15 555.05 457.56 553.94 457.97 552.81 457.41 551.69 456.85 550.96 455.70 550.23 454.54 550.28 451.78 550.34 449.03 550.34 449.03 550.35 449.03 550.35 449.03 550.36 449.02 551.57 451.00 552.78 452.98 553.35 453.99 553.92 455.01 554.04 454.09 554.16 453.17 554.11 451.04 554.06 448.90 553.94 446.13 553.82 443.37 553.57 440.03 553.33 436.70 553.07 433.08 552.82 429.47 552.73 425.93 552.65 422.39 552.77 419.04 552.88 415.68 553.64 414.16 554.39 412.63 554.31 412.47 554.23 412.31 554.19 412.14 554.15 411.96 554.15 411.78 554.15 411.60 554.20 411.43 554.25 411.25 554.33 411.10 554.42 410.94 554.54 410.81 554.66 410.67 554.81 410.57 554.96 410.47 555.13 410.41 555.30 410.35 555.48 410.33 555.65 410.32 555.83 410.34 556.01 410.36 556.18 410.43 556.34 410.50 556.49 410.60 556.64 410.71 556.75 410.84 556.87 410.98 557.36 411.39 557.85 411.80 558.65 413.06 559.45 414.32 559.88 415.85 560.31 417.38 560.22 418.76 560.13 420.14 559.70 421.39 559.28 422.65 558.43 423.72 557.59 424.79 556.22 425.47 554.86 426.15 553.70 426.07 552.55 426.00 552.54 425.99 Z" data-drauu_index="39"></path><path fill="#ff595e" d="M 548.78 433.91 Q 548.78 433.91 550.80 433.19 552.83 432.46 554.23 432.29 555.64 432.11 557.32 432.53 559.00 432.94 559.00 432.94 559.00 432.95 559.00 432.95 559.01 432.96 557.46 433.89 555.92 434.83 554.42 434.95 552.93 435.08 550.85 434.51 548.78 433.93 548.78 433.92 Z" data-drauu_index="40"></path><path fill="#ff595e" d="M 564.71 428.94 Q 564.71 428.94 565.05 427.59 565.39 426.24 565.96 424.64 566.54 423.03 566.94 421.56 567.34 420.08 567.49 418.58 567.64 417.09 567.54 415.63 567.44 414.17 567.15 413.20 566.87 412.24 566.53 411.88 566.19 411.52 566.16 411.35 566.13 411.17 566.15 411.00 566.16 410.82 566.22 410.65 566.28 410.49 566.37 410.34 566.47 410.19 566.60 410.07 566.73 409.94 566.88 409.86 567.03 409.77 567.20 409.72 567.38 409.67 567.55 409.67 567.73 409.66 567.90 409.70 568.08 409.73 568.24 409.81 568.39 409.89 568.53 410.00 568.67 410.11 568.77 410.26 568.88 410.40 568.95 410.56 569.01 410.73 568.60 412.09 568.18 413.46 567.96 414.37 567.74 415.28 567.55 418.21 567.36 421.15 567.30 425.86 567.23 430.56 567.46 434.70 567.69 438.83 568.05 442.29 568.42 445.75 568.75 448.38 569.07 451.01 569.26 452.93 569.44 454.85 569.44 455.98 569.44 457.11 568.66 457.98 567.88 458.84 566.77 458.88 565.65 458.91 564.56 458.20 563.46 457.49 562.70 455.82 561.93 454.14 561.99 452.36 562.04 450.57 562.05 450.57 562.05 450.57 562.06 450.57 562.06 450.57 562.98 451.83 563.89 453.10 564.59 454.14 565.29 455.18 566.03 455.83 566.76 456.49 566.61 455.81 566.46 455.13 566.29 453.26 566.11 451.38 565.78 448.72 565.45 446.06 565.09 442.52 564.72 438.98 564.50 434.75 564.29 430.52 564.36 425.74 564.43 420.95 564.66 417.76 564.89 414.56 565.19 413.42 565.49 412.28 565.84 411.90 566.19 411.52 566.16 411.35 566.13 411.17 566.15 411.00 566.16 410.82 566.22 410.65 566.28 410.49 566.37 410.34 566.47 410.19 566.60 410.07 566.73 409.94 566.88 409.86 567.03 409.77 567.20 409.72 567.37 409.67 567.55 409.67 567.73 409.66 567.90 409.70 568.08 409.73 568.23 409.81 568.39 409.89 568.53 410.00 568.67 410.11 568.77 410.26 568.88 410.40 568.95 410.56 569.01 410.73 569.30 411.01 569.59 411.29 569.95 412.64 570.32 414.00 570.40 415.72 570.47 417.44 570.22 419.16 569.97 420.88 569.41 422.50 568.86 424.13 567.92 425.72 566.99 427.32 565.86 428.14 564.72 428.95 564.72 428.95 Z" data-drauu_index="41"></path><path fill="#ff595e" d="M 558.39 435.33 Q 558.39 435.33 560.14 434.71 561.89 434.09 563.73 433.77 565.58 433.46 567.91 433.93 570.25 434.40 570.25 434.41 570.25 434.41 570.25 434.42 570.25 434.42 568.06 435.32 565.88 436.22 563.91 436.32 561.94 436.43 560.17 435.89 558.39 435.35 558.39 435.34 Z" data-drauu_index="42"></path><path fill="#ff595e" d="M 576.43 425.18 Q 576.43 425.18 576.87 427.43 577.31 429.67 577.23 431.58 577.16 433.48 577.13 434.97 577.11 436.46 577.45 437.16 577.79 437.86 578.55 437.05 579.31 436.23 579.91 434.80 580.51 433.37 580.77 431.90 581.03 430.42 581.15 429.08 581.27 427.74 581.22 426.89 581.18 426.04 582.51 425.72 583.84 425.40 583.70 426.08 583.56 426.76 583.45 427.93 583.34 429.09 583.30 430.65 583.26 432.20 583.30 433.73 583.35 435.27 583.80 436.36 584.25 437.45 585.02 437.62 585.80 437.78 586.44 437.16 587.09 436.54 588.35 434.86 589.61 433.18 590.52 431.40 591.44 429.63 591.83 428.13 592.23 426.63 592.31 426.06 592.39 425.49 592.23 426.35 592.07 427.21 591.96 428.43 591.86 429.65 592.07 430.86 592.28 432.08 593.01 433.23 593.74 434.38 594.39 435.11 595.04 435.84 595.49 436.37 595.95 436.89 596.00 438.39 596.05 439.89 595.46 440.38 594.87 440.87 593.62 441.19 592.36 441.50 591.20 441.53 590.04 441.57 588.94 441.11 587.85 440.64 587.93 438.55 588.01 436.46 588.02 436.46 588.02 436.46 588.03 436.46 588.03 436.46 589.05 437.32 590.07 438.18 590.89 438.16 591.70 438.15 592.37 438.08 593.05 438.00 593.53 437.76 594.02 437.53 593.69 438.32 593.36 439.11 592.91 438.59 592.46 438.07 591.63 437.09 590.80 436.11 589.86 434.40 588.93 432.69 588.69 431.01 588.44 429.33 588.62 427.72 588.81 426.12 589.42 424.77 590.04 423.42 591.13 422.93 592.22 422.45 593.70 423.30 595.17 424.15 595.37 425.82 595.56 427.49 595.03 429.35 594.50 431.21 593.42 433.25 592.33 435.29 590.72 437.30 589.10 439.31 587.63 440.20 586.15 441.08 584.73 440.93 583.31 440.79 582.25 439.78 581.19 438.78 580.60 437.09 580.02 435.39 580.01 433.73 579.99 432.07 580.08 430.39 580.16 428.71 580.36 427.36 580.55 426.00 580.76 425.31 580.97 424.62 582.13 424.32 583.29 424.01 583.72 424.96 584.15 425.91 584.19 426.96 584.23 428.01 584.09 429.49 583.95 430.97 583.59 432.77 583.22 434.57 582.37 436.39 581.52 438.21 580.49 439.21 579.47 440.21 578.37 440.41 577.28 440.61 576.22 439.87 575.17 439.13 574.68 437.82 574.19 436.51 574.22 434.92 574.25 433.32 574.39 431.34 574.52 429.35 575.47 427.26 576.41 425.18 576.42 425.18 Z" data-drauu_index="43"></path><path fill="#ff595e" d="M 601.45 425.92 Q 601.45 425.92 601.78 426.81 602.10 427.69 602.30 428.90 602.50 430.11 602.60 431.92 602.70 433.73 602.77 435.15 602.85 436.58 602.88 437.57 602.91 438.56 601.97 438.33 601.04 438.11 601.04 438.11 601.04 438.11 601.04 438.11 601.04 438.11 601.04 438.11 601.04 438.11 601.04 438.11 601.04 438.12 601.03 438.12 601.03 438.12 601.03 438.12 601.03 438.12 601.03 438.12 601.03 438.12 601.03 438.12 601.03 438.12 601.03 438.12 601.02 438.12 601.02 438.11 601.02 438.11 601.02 438.11 601.02 438.11 601.02 438.11 601.02 438.11 601.02 438.11 601.02 438.11 601.02 438.11 601.03 438.11 601.03 438.11 601.04 438.11 601.04 438.11 601.04 438.11 601.04 438.11 601.04 438.11 601.04 438.11 601.04 438.11 601.04 438.11 601.04 438.12 601.03 438.12 601.03 438.12 601.03 438.12 601.03 438.12 601.03 438.12 601.03 438.12 601.03 438.12 601.03 438.12 601.03 438.12 601.02 438.12 601.02 438.11 601.02 438.11 601.02 438.11 601.02 438.11 601.02 438.11 601.02 438.11 601.02 438.11 601.02 438.11 600.29 438.41 599.57 438.71 599.51 437.71 599.45 436.71 599.41 435.26 599.36 433.81 599.37 431.87 599.38 429.93 599.72 428.59 600.07 427.24 600.75 426.58 601.43 425.92 601.44 425.92 Z" data-drauu_index="44"></path><path fill="#ff595e" d="M 598.47 419.46 Q 598.47 419.46 599.09 419.23 599.70 419.00 599.70 419.00 599.70 419.00 599.71 419.00 599.71 419.00 599.71 419.00 599.71 418.99 599.71 418.99 599.71 418.99 599.71 418.99 599.71 418.99 599.71 418.99 599.72 418.99 599.72 418.99 599.72 419.00 599.72 419.00 599.72 419.00 599.72 419.00 599.72 419.00 599.72 419.00 599.72 419.00 599.72 419.00 599.72 419.00 599.72 419.00 599.72 419.01 599.72 419.01 599.72 419.01 599.72 419.01 599.71 419.00 599.71 419.00 599.70 419.00 599.70 419.00 599.70 419.00 599.71 419.00 599.71 419.00 599.71 419.00 599.71 418.99 599.71 418.99 599.71 418.99 599.71 418.99 599.71 418.99 599.71 418.99 599.72 418.99 599.72 418.99 599.72 419.00 599.72 419.00 599.72 419.00 599.72 419.00 599.72 419.00 599.72 419.00 599.72 419.00 599.72 419.00 599.72 419.00 599.72 419.00 599.72 419.01 599.72 419.01 599.72 419.01 599.10 419.24 598.49 419.47 598.48 419.47 Z" data-drauu_index="45"></path><path fill="#ff595e" d="M 608.84 427.94 Q 608.84 427.94 609.26 429.04 609.68 430.15 609.72 431.31 609.76 432.47 609.83 433.68 609.89 434.89 609.98 435.59 610.07 436.30 610.73 436.77 611.39 437.24 612.21 437.00 613.02 436.75 613.41 436.13 613.79 435.50 614.00 434.35 614.20 433.19 613.99 432.15 613.79 431.12 613.11 430.27 612.43 429.43 611.57 428.83 610.72 428.22 610.03 427.97 609.33 427.73 608.78 428.30 608.23 428.87 608.15 429.50 608.06 430.14 609.20 432.32 610.34 434.51 610.34 434.51 610.34 434.52 610.34 434.52 610.33 434.53 607.56 432.92 604.79 431.32 604.83 430.35 604.87 429.38 605.22 428.19 605.56 427.01 606.45 426.07 607.34 425.13 608.78 424.90 610.22 424.67 611.43 425.16 612.65 425.65 613.83 426.61 615.01 427.57 615.94 429.04 616.87 430.50 617.08 432.16 617.28 433.82 616.82 435.56 616.36 437.30 615.46 438.38 614.55 439.47 613.27 439.95 611.98 440.42 610.67 439.99 609.35 439.56 608.27 438.35 607.18 437.14 606.99 436.09 606.80 435.03 606.75 433.64 606.70 432.25 606.91 430.92 607.13 429.59 607.98 428.76 608.82 427.93 608.83 427.94 Z" data-drauu_index="46"></path><path fill="#ff595e" d="M 618.66 425.72 Q 618.66 425.72 619.31 427.51 619.96 429.31 620.23 431.62 620.49 433.93 620.63 435.75 620.76 437.57 620.84 438.76 620.92 439.94 620.96 440.51 620.99 441.07 621.02 441.23 621.04 441.39 621.02 441.60 621.01 441.80 620.95 441.99 620.89 442.18 620.79 442.35 620.68 442.52 620.54 442.66 620.40 442.80 620.22 442.91 620.05 443.01 619.86 443.07 619.67 443.13 619.47 443.14 619.27 443.15 619.07 443.11 618.87 443.07 618.69 442.99 618.51 442.91 618.35 442.78 618.19 442.66 618.07 442.50 617.94 442.34 617.86 442.16 617.78 441.97 617.75 441.78 617.71 441.58 617.52 440.03 617.34 438.47 617.23 436.68 617.13 434.90 617.14 432.97 617.15 431.05 617.79 429.23 618.43 427.40 619.25 426.36 620.07 425.32 621.46 424.87 622.85 424.41 624.02 425.06 625.20 425.70 626.05 427.78 626.91 429.85 627.27 431.74 627.64 433.63 627.79 435.23 627.95 436.83 628.02 437.99 628.08 439.16 627.53 439.15 626.98 439.14 628.85 437.69 630.73 436.24 630.74 436.24 630.74 436.25 630.74 436.25 630.75 436.25 630.04 438.61 629.34 440.97 628.35 441.57 627.36 442.17 626.49 441.89 625.62 441.61 625.14 440.47 624.66 439.33 624.61 438.23 624.56 437.13 624.44 435.68 624.33 434.23 624.06 432.58 623.79 430.93 623.11 429.22 622.44 427.51 621.95 428.06 621.47 428.60 620.95 429.86 620.44 431.12 620.45 432.92 620.46 434.71 620.55 436.39 620.65 438.06 620.79 439.19 620.93 440.32 620.98 440.86 621.04 441.39 621.02 441.59 621.01 441.80 620.95 441.99 620.89 442.18 620.79 442.35 620.68 442.52 620.54 442.66 620.40 442.80 620.22 442.91 620.05 443.01 619.86 443.07 619.67 443.13 619.47 443.14 619.27 443.15 619.07 443.11 618.87 443.07 618.69 442.99 618.51 442.91 618.35 442.78 618.19 442.66 618.07 442.50 617.94 442.34 617.86 442.16 617.78 441.97 617.75 441.78 617.71 441.58 617.71 441.42 617.70 441.26 617.68 440.70 617.65 440.15 617.58 438.97 617.52 437.79 617.41 435.97 617.29 434.14 617.24 431.69 617.19 429.25 617.92 427.48 618.64 425.72 618.65 425.72 Z" data-drauu_index="47"></path><path fill="#ff595e" d="M 644.02 405.00 Q 644.02 405.00 644.81 406.96 645.61 408.92 645.88 411.56 646.15 414.19 646.40 417.91 646.66 421.63 646.80 424.71 646.93 427.78 647.15 430.05 647.37 432.31 647.69 433.55 648.01 434.79 648.91 434.94 649.82 435.09 650.80 434.38 651.79 433.67 653.24 431.92 654.69 430.17 654.70 430.17 654.70 430.17 654.71 430.18 654.71 430.18 654.35 433.06 653.98 435.94 652.76 436.98 651.54 438.03 650.57 438.23 649.60 438.43 648.13 438.14 646.66 437.85 645.76 436.80 644.86 435.76 644.47 434.19 644.07 432.62 643.87 430.27 643.67 427.92 643.55 424.87 643.44 421.81 643.27 418.13 643.11 414.44 642.95 411.75 642.79 409.06 643.40 407.03 644.00 405.00 644.01 405.00 Z" data-drauu_index="48"></path><path fill="#ff595e" d="M 637.62 423.09 Q 637.62 423.09 639.67 423.04 641.73 422.99 643.57 422.99 645.42 422.98 647.38 422.69 649.35 422.39 651.06 423.03 652.77 423.67 652.77 423.67 652.77 423.67 652.77 423.67 652.78 423.67 652.78 423.67 652.78 423.67 652.78 423.67 652.78 423.67 652.78 423.67 652.78 423.67 652.78 423.67 652.78 423.67 652.78 423.68 652.78 423.68 652.78 423.68 652.78 423.68 652.78 423.68 652.78 423.68 652.78 423.68 652.78 423.68 652.78 423.68 652.78 423.68 652.78 423.69 652.78 423.69 652.78 423.69 652.77 423.69 652.77 423.68 652.77 423.68 652.77 423.67 652.77 423.67 652.77 423.67 652.77 423.67 652.77 423.67 652.78 423.67 652.78 423.67 652.78 423.67 652.78 423.67 652.78 423.67 652.78 423.67 652.78 423.67 652.78 423.67 652.78 423.67 652.78 423.68 652.78 423.68 652.78 423.68 652.78 423.68 652.78 423.68 652.78 423.68 652.78 423.68 652.78 423.68 652.78 423.68 652.78 423.68 652.78 423.69 652.78 423.69 652.78 423.69 652.77 423.69 651.24 424.52 649.71 425.36 647.51 425.57 645.31 425.79 643.16 425.62 641.01 425.44 639.31 424.27 637.62 423.10 637.62 423.10 Z" data-drauu_index="49"></path><path fill="#ff595e" d="M 656.73 424.37 Q 656.73 424.37 657.42 426.01 658.12 427.64 658.10 429.22 658.09 430.79 658.14 432.10 658.19 433.40 658.70 434.08 659.22 434.75 660.17 434.65 661.12 434.55 661.68 433.97 662.24 433.38 662.67 432.20 663.10 431.03 663.26 430.02 663.42 429.01 663.01 428.39 662.61 427.77 661.60 427.27 660.59 426.77 659.72 426.51 658.84 426.26 658.32 426.14 657.80 426.01 657.73 426.51 657.65 427.01 657.25 428.53 656.84 430.06 656.84 430.06 656.84 430.06 656.83 430.07 656.83 430.07 655.70 427.79 654.58 425.50 655.17 424.56 655.77 423.61 656.79 423.16 657.81 422.71 658.86 422.84 659.90 422.97 661.16 423.41 662.42 423.84 663.97 424.96 665.52 426.09 666.13 427.65 666.74 429.21 666.48 430.79 666.22 432.36 665.37 434.09 664.53 435.82 663.29 436.78 662.05 437.75 660.59 437.94 659.12 438.14 657.84 437.41 656.56 436.67 655.75 435.21 654.94 433.75 654.87 432.23 654.80 430.71 654.87 429.08 654.93 427.45 655.82 425.91 656.71 424.37 656.72 424.37 Z" data-drauu_index="50"></path><path fill="#ff595e" d="M 692.36 424.65 Q 692.36 424.65 691.66 424.69 690.96 424.74 690.43 424.87 689.91 425.00 689.14 425.84 688.38 426.68 688.06 427.91 687.74 429.14 687.57 430.45 687.39 431.75 687.38 432.79 687.36 433.83 688.05 434.29 688.73 434.75 689.91 433.82 691.09 432.90 691.73 431.74 692.36 430.59 692.69 429.66 693.02 428.73 693.02 425.68 693.03 422.63 692.63 419.47 692.23 416.30 691.77 413.67 691.32 411.04 691.01 409.57 690.70 408.09 690.55 407.45 690.40 406.81 690.38 406.62 690.36 406.43 690.39 406.23 690.42 406.04 690.50 405.86 690.58 405.68 690.69 405.52 690.81 405.37 690.96 405.24 691.11 405.12 691.29 405.04 691.46 404.95 691.65 404.91 691.85 404.87 692.04 404.88 692.24 404.89 692.42 404.94 692.61 404.99 692.78 405.09 692.95 405.19 693.09 405.32 693.23 405.46 693.34 405.62 693.44 405.79 693.50 405.97 693.57 406.16 693.46 406.77 693.36 407.38 693.39 409.50 693.43 411.62 693.61 414.50 693.78 417.38 693.99 420.36 694.21 423.34 694.39 426.06 694.58 428.78 694.71 431.22 694.85 433.66 694.94 434.93 695.03 436.20 694.89 436.11 694.74 436.02 694.74 436.02 694.74 436.02 694.74 436.03 694.74 436.03 694.74 436.03 694.74 436.03 694.74 436.03 694.74 436.03 694.74 436.03 694.74 436.03 694.74 436.03 694.74 436.03 694.74 436.03 694.73 436.03 694.73 436.03 694.73 436.03 694.73 436.03 694.73 436.03 694.73 436.03 694.73 436.03 694.73 436.03 694.73 436.03 694.73 436.03 694.73 436.03 694.73 436.03 694.72 436.02 694.73 436.02 694.73 436.02 694.74 436.02 694.74 436.02 694.74 436.02 694.74 436.02 694.74 436.03 694.74 436.03 694.74 436.03 694.74 436.03 694.74 436.03 694.74 436.03 694.74 436.03 694.74 436.03 694.74 436.03 694.74 436.03 694.74 436.03 694.73 436.03 694.73 436.03 694.73 436.03 694.73 436.03 694.73 436.03 694.73 436.03 694.73 436.03 694.73 436.03 694.73 436.03 694.73 436.03 694.73 436.03 694.73 436.03 694.72 436.02 693.21 436.24 691.70 436.45 691.59 435.15 691.49 433.85 691.35 431.43 691.22 429.01 691.04 426.29 690.85 423.57 690.66 420.57 690.46 417.57 690.31 414.58 690.16 411.59 690.28 409.20 690.40 406.81 690.38 406.62 690.36 406.43 690.39 406.23 690.42 406.04 690.50 405.86 690.58 405.68 690.69 405.52 690.81 405.37 690.96 405.24 691.11 405.12 691.29 405.04 691.46 404.95 691.65 404.91 691.85 404.87 692.04 404.88 692.24 404.89 692.42 404.94 692.61 404.99 692.78 405.09 692.95 405.19 693.09 405.32 693.23 405.46 693.34 405.62 693.44 405.79 693.50 405.97 693.57 406.16 693.72 406.79 693.87 407.43 694.18 408.96 694.50 410.49 694.97 413.20 695.44 415.91 695.85 419.29 696.26 422.68 696.16 426.23 696.06 429.78 695.60 430.99 695.15 432.21 694.22 433.73 693.28 435.25 691.78 436.43 690.27 437.61 688.92 437.65 687.56 437.68 686.46 437.04 685.36 436.39 684.79 435.19 684.21 433.98 684.23 432.64 684.24 431.30 684.48 429.72 684.73 428.14 685.40 426.41 686.07 424.68 687.00 423.79 687.94 422.91 689.06 422.60 690.18 422.30 691.16 422.73 692.14 423.16 692.26 423.89 692.37 424.63 692.36 424.64 Z" data-drauu_index="51"></path><path fill="#ff595e" d="M 709.64 427.40 Q 709.64 427.40 708.85 427.25 708.07 427.10 707.25 427.07 706.44 427.05 705.56 427.90 704.69 428.75 704.32 429.30 703.96 429.85 703.61 431.30 703.26 432.75 703.08 433.83 702.89 434.91 703.15 435.39 703.40 435.87 703.88 436.12 704.35 436.38 704.91 436.49 705.47 436.60 706.28 436.16 707.08 435.71 707.73 435.02 708.39 434.33 708.73 433.54 709.06 432.75 709.09 431.59 709.12 430.43 708.88 429.59 708.64 428.75 708.43 428.24 708.21 427.72 708.08 427.44 707.94 427.15 707.90 426.95 707.85 426.75 707.85 426.54 707.85 426.34 707.90 426.13 707.95 425.93 708.04 425.75 708.14 425.57 708.28 425.41 708.42 425.26 708.59 425.14 708.76 425.02 708.95 424.95 709.15 424.88 709.35 424.85 709.56 424.83 709.77 424.85 709.97 424.88 710.17 424.95 710.36 425.03 710.53 425.14 710.70 425.26 710.84 425.42 710.97 425.57 711.07 425.76 711.17 425.94 711.07 426.83 710.97 427.73 710.96 429.45 710.95 431.17 710.95 432.62 710.95 434.06 711.06 435.18 711.17 436.29 711.28 437.07 711.39 437.85 711.45 438.57 711.50 439.30 711.50 439.30 711.50 439.30 711.50 439.30 711.50 439.30 711.50 439.30 711.50 439.30 711.50 439.31 711.50 439.31 711.50 439.31 711.50 439.31 711.49 439.31 711.49 439.31 711.49 439.31 711.49 439.31 711.49 439.31 711.49 439.31 711.49 439.31 711.49 439.31 711.49 439.31 711.48 439.31 711.48 439.31 711.48 439.31 711.48 439.31 711.48 439.30 711.48 439.30 711.48 439.30 711.49 439.30 711.49 439.30 711.50 439.30 711.50 439.30 711.50 439.30 711.50 439.30 711.50 439.30 711.50 439.30 711.50 439.30 711.50 439.30 711.50 439.31 711.50 439.31 711.50 439.31 711.50 439.31 711.49 439.31 711.49 439.31 711.49 439.31 711.49 439.31 711.49 439.31 711.49 439.31 711.49 439.31 711.49 439.31 711.49 439.31 711.48 439.31 711.48 439.31 711.48 439.31 711.48 439.31 711.48 439.30 711.48 439.30 711.48 439.30 709.78 438.90 708.09 438.49 707.87 437.56 707.66 436.62 707.54 435.33 707.43 434.05 707.44 432.58 707.46 431.12 707.70 429.14 707.94 427.15 707.90 426.95 707.85 426.75 707.85 426.54 707.85 426.34 707.90 426.14 707.95 425.93 708.04 425.75 708.14 425.57 708.28 425.41 708.42 425.26 708.59 425.14 708.76 425.02 708.95 424.95 709.15 424.88 709.35 424.85 709.56 424.83 709.77 424.85 709.97 424.88 710.17 424.95 710.36 425.03 710.53 425.14 710.70 425.26 710.84 425.42 710.97 425.57 711.07 425.76 711.17 425.94 711.27 426.23 711.38 426.53 711.64 427.27 711.90 428.02 712.14 429.33 712.38 430.65 712.18 432.37 711.98 434.09 711.31 435.34 710.64 436.60 709.48 437.63 708.32 438.65 706.68 439.17 705.04 439.68 703.75 439.31 702.46 438.94 701.50 438.05 700.55 437.17 700.16 435.89 699.76 434.60 699.98 433.25 700.19 431.90 700.78 430.00 701.36 428.11 701.91 427.34 702.46 426.58 703.43 425.69 704.39 424.81 705.54 424.45 706.69 424.10 707.77 424.36 708.85 424.62 709.45 425.19 710.06 425.77 709.86 426.58 709.66 427.39 709.65 427.40 Z" data-drauu_index="52"></path><path fill="#ff595e" d="M 719.54 407.49 Q 719.54 407.49 720.46 410.52 721.38 413.54 721.53 416.50 721.68 419.46 721.75 422.38 721.81 425.30 721.84 427.92 721.87 430.53 721.88 432.59 721.89 434.64 722.09 436.05 722.30 437.45 722.55 437.95 722.79 438.45 724.77 436.49 726.75 434.53 726.76 434.53 726.76 434.54 726.77 434.54 726.77 434.54 726.05 437.35 725.32 440.15 724.30 440.86 723.29 441.56 722.22 441.45 721.15 441.34 720.42 440.69 719.69 440.05 719.25 439.01 718.82 437.98 718.59 436.32 718.36 434.66 718.35 432.61 718.35 430.56 718.34 427.96 718.33 425.36 718.30 422.47 718.27 419.59 718.21 416.63 718.14 413.67 718.83 410.58 719.52 407.49 719.53 407.49 Z" data-drauu_index="53"></path><path fill="#ff595e" d="M 714.49 424.50 Q 714.49 424.50 716.44 423.94 718.38 423.39 720.21 423.10 722.04 422.82 725.28 422.99 728.52 423.16 728.53 423.17 728.53 423.17 728.53 423.17 728.53 423.18 725.43 424.50 722.33 425.82 720.29 425.92 718.25 426.01 716.37 425.27 714.49 424.52 714.49 424.51 Z" data-drauu_index="54"></path><path fill="#ff595e" d="M 739.23 427.74 Q 739.23 427.74 738.60 427.48 737.97 427.21 737.27 427.86 736.57 428.50 736.05 429.20 735.53 429.89 735.01 430.88 734.48 431.86 734.00 433.02 733.51 434.17 733.29 435.38 733.06 436.58 733.61 436.96 734.16 437.34 735.19 436.01 736.21 434.68 736.62 433.92 737.02 433.16 737.16 431.81 737.31 430.47 737.21 429.28 737.11 428.09 736.89 427.42 736.66 426.76 736.47 426.38 736.28 426.00 736.25 425.78 736.21 425.56 736.23 425.33 736.25 425.11 736.32 424.90 736.39 424.69 736.51 424.50 736.63 424.31 736.79 424.15 736.95 424.00 737.14 423.88 737.34 423.77 737.55 423.71 737.77 423.65 737.99 423.64 738.21 423.63 738.43 423.67 738.65 423.72 738.85 423.81 739.06 423.91 739.23 424.05 739.40 424.19 739.54 424.37 739.67 424.55 739.76 424.75 739.85 424.96 739.78 425.79 739.70 426.62 739.70 427.44 739.70 428.26 739.80 429.51 739.91 430.76 740.28 432.04 740.64 433.33 741.05 433.80 741.46 434.28 742.20 434.20 742.94 434.13 744.60 433.43 746.26 432.73 746.27 432.74 746.27 432.74 746.28 432.74 746.28 432.74 745.68 434.89 745.07 437.04 744.24 437.46 743.41 437.87 742.18 437.90 740.95 437.93 739.78 437.32 738.61 436.70 737.81 435.56 737.02 434.43 736.57 432.74 736.12 431.05 736.02 429.59 735.92 428.12 736.10 427.06 736.28 426.00 736.25 425.78 736.21 425.56 736.23 425.33 736.25 425.11 736.32 424.90 736.39 424.69 736.51 424.50 736.63 424.31 736.79 424.15 736.95 424.00 737.14 423.88 737.34 423.77 737.55 423.71 737.77 423.65 737.99 423.64 738.21 423.63 738.43 423.67 738.65 423.72 738.85 423.81 739.06 423.91 739.23 424.05 739.40 424.19 739.54 424.37 739.67 424.55 739.76 424.75 739.85 424.96 739.99 425.35 740.13 425.74 740.41 426.79 740.69 427.84 740.77 429.42 740.84 430.99 740.49 432.89 740.14 434.78 739.57 435.80 738.99 436.83 737.82 438.23 736.64 439.64 735.38 440.18 734.12 440.72 732.89 440.48 731.67 440.24 730.86 439.39 730.06 438.54 729.88 437.24 729.71 435.94 730.06 434.39 730.40 432.84 730.99 431.52 731.58 430.21 732.30 429.01 733.01 427.81 733.88 426.84 734.75 425.86 735.94 425.29 737.13 424.73 737.96 424.95 738.79 425.17 739.26 425.71 739.73 426.25 739.49 426.99 739.25 427.73 739.24 427.74 Z" data-drauu_index="55"></path><path fill="#ff595e" d="M 540.43 414.56 Q 540.43 414.56 539.92 414.46 539.42 414.36 539.58 414.84 539.74 415.31 539.52 415.50 539.29 415.69 539.29 415.69 539.29 415.70 539.29 415.70 539.29 415.71 539.20 416.56 539.11 417.42 538.34 417.01 537.56 416.59 537.41 416.06 537.25 415.54 537.33 415.03 537.40 414.53 537.64 414.03 537.88 413.53 538.32 413.20 538.77 412.87 539.45 412.87 540.13 412.87 540.56 413.23 540.99 413.58 540.72 414.07 540.45 414.55 540.44 414.55 Z" data-drauu_index="56"></path><path fill="#000000" d="M 674.54 397.01 Q 674.54 397.01 674.32 397.31 674.09 397.60 674.00 398.48 673.90 399.37 673.70 400.27 673.51 401.17 673.32 402.74 673.12 404.31 673.04 405.64 672.95 406.97 672.92 408.01 672.88 409.04 673.03 409.57 673.18 410.09 672.97 409.53 672.75 408.98 672.93 408.34 673.10 407.71 673.18 407.06 673.26 406.41 673.32 405.84 673.38 405.27 673.77 404.88 674.16 404.49 674.16 404.50 674.16 404.50 674.16 404.51 674.16 404.51 675.20 404.92 676.23 405.34 676.20 406.08 676.17 406.82 676.03 407.70 675.89 408.59 675.55 409.57 675.22 410.55 674.54 411.36 673.86 412.17 673.08 412.29 672.29 412.40 671.38 411.69 670.48 410.98 670.24 409.98 669.99 408.97 670.04 407.88 670.08 406.78 670.17 405.36 670.27 403.94 670.51 402.23 670.75 400.52 671.03 399.43 671.31 398.34 671.76 397.48 672.22 396.63 672.83 396.29 673.44 395.94 673.99 396.47 674.54 396.99 674.54 397.00 Z" data-drauu_index="57"></path><path fill="#000000" d="M 682.62 397.41 Q 682.62 397.41 682.50 398.61 682.38 399.80 682.03 401.01 681.67 402.22 681.46 403.38 681.25 404.55 681.16 405.36 681.06 406.18 681.14 407.12 681.21 408.06 681.57 408.42 681.93 408.77 681.86 408.20 681.79 407.63 681.85 406.94 681.91 406.24 681.91 406.24 681.91 406.24 681.91 406.24 681.91 406.24 681.91 406.24 681.91 406.24 681.92 406.24 681.92 406.23 681.92 406.23 681.92 406.23 681.92 406.23 681.92 406.23 681.92 406.23 681.92 406.23 681.92 406.23 681.93 406.24 681.93 406.24 681.93 406.24 681.93 406.24 681.93 406.24 681.93 406.24 681.93 406.24 681.93 406.24 681.93 406.24 681.93 406.24 681.93 406.25 681.93 406.24 681.92 406.24 681.92 406.24 681.91 406.24 681.91 406.24 681.91 406.24 681.91 406.24 681.91 406.24 681.91 406.24 681.91 406.24 681.92 406.24 681.92 406.23 681.92 406.23 681.92 406.23 681.92 406.23 681.92 406.23 681.92 406.23 681.92 406.23 681.92 406.23 681.93 406.24 681.93 406.24 681.93 406.24 681.93 406.24 681.93 406.24 681.93 406.24 681.93 406.24 681.93 406.24 681.93 406.24 681.93 406.24 681.93 406.25 683.28 406.75 684.63 407.26 684.55 407.92 684.46 408.58 684.18 409.31 683.89 410.03 683.26 410.61 682.64 411.19 681.75 411.25 680.85 411.31 680.03 410.75 679.21 410.19 678.82 409.24 678.42 408.30 678.35 407.07 678.28 405.85 678.40 404.93 678.52 404.01 678.81 402.64 679.10 401.27 679.73 399.80 680.36 398.33 681.48 397.87 682.60 397.40 682.61 397.41 Z" data-drauu_index="58"></path><path fill="#000000" d="M 746.29 402.99 Q 746.29 402.99 745.84 402.39 745.39 401.79 745.34 401.50 745.29 401.20 745.32 401.06 745.35 400.91 745.42 400.78 745.48 400.66 745.58 400.55 745.67 400.44 745.79 400.35 745.91 400.27 746.05 400.21 746.18 400.16 746.32 400.14 746.47 400.12 746.61 400.14 746.76 400.15 746.89 400.20 747.03 400.25 747.15 400.33 747.27 400.41 747.37 400.52 747.47 400.63 747.54 400.76 747.61 400.88 747.64 401.02 747.68 401.16 747.68 401.31 747.68 401.46 747.54 402.22 747.39 402.98 747.22 403.40 747.06 403.81 746.97 403.96 746.89 404.10 746.77 404.22 746.66 404.34 746.52 404.43 746.37 404.52 746.22 404.57 746.06 404.62 745.89 404.64 745.72 404.65 745.56 404.62 745.39 404.59 745.24 404.53 745.09 404.46 744.95 404.36 744.82 404.26 744.72 404.13 744.61 404.00 744.54 403.85 744.47 403.70 744.44 403.53 744.40 403.37 744.41 403.20 744.42 403.03 744.47 402.87 744.51 402.71 744.42 402.12 744.32 401.52 744.31 400.77 744.30 400.02 744.63 399.40 744.95 398.77 745.60 398.58 746.25 398.40 746.87 398.71 747.49 399.03 747.91 399.51 748.33 400.00 748.69 400.62 749.05 401.24 749.26 402.04 749.47 402.84 749.30 403.98 749.13 405.12 748.58 406.04 748.04 406.96 746.15 407.76 744.25 408.56 744.25 408.55 744.24 408.55 744.24 408.54 744.24 408.54 744.98 407.03 745.72 405.52 746.06 405.01 746.40 404.51 746.58 403.94 746.75 403.37 746.47 402.58 746.20 401.79 745.98 401.26 745.76 400.74 746.42 400.37 747.09 400.00 747.10 400.74 747.10 401.47 747.11 402.04 747.12 402.61 747.09 403.21 747.06 403.81 746.97 403.96 746.89 404.10 746.77 404.22 746.66 404.34 746.52 404.43 746.37 404.52 746.22 404.57 746.06 404.62 745.89 404.64 745.72 404.65 745.56 404.62 745.39 404.59 745.24 404.53 745.09 404.46 744.95 404.36 744.82 404.26 744.72 404.13 744.61 404.00 744.54 403.85 744.47 403.70 744.44 403.53 744.40 403.37 744.41 403.20 744.42 403.03 744.47 402.87 744.51 402.71 744.66 402.40 744.81 402.08 745.05 401.64 745.29 401.20 745.32 401.06 745.35 400.91 745.42 400.78 745.48 400.66 745.58 400.55 745.67 400.44 745.79 400.35 745.91 400.27 746.05 400.21 746.18 400.16 746.32 400.14 746.47 400.12 746.61 400.14 746.76 400.15 746.89 400.20 747.03 400.25 747.15 400.33 747.27 400.41 747.37 400.52 747.47 400.63 747.54 400.76 747.61 400.88 747.64 401.02 747.68 401.16 747.68 401.31 747.68 401.46 747.56 401.74 747.44 402.02 746.87 402.50 746.31 402.99 746.30 402.99 Z" data-drauu_index="59"></path><path fill="#000000" d="M 754.71 400.17 Q 754.71 400.17 754.19 400.41 753.66 400.64 753.25 399.83 752.85 399.02 752.77 398.67 752.69 398.32 752.70 398.16 752.71 398.01 752.75 397.86 752.80 397.71 752.88 397.58 752.96 397.44 753.07 397.33 753.17 397.22 753.31 397.14 753.44 397.06 753.59 397.01 753.73 396.96 753.89 396.95 754.04 396.94 754.20 396.97 754.35 397.00 754.49 397.06 754.63 397.12 754.76 397.22 754.88 397.31 754.97 397.43 755.07 397.55 755.14 397.70 755.20 397.84 755.23 397.99 755.26 398.14 755.29 398.82 755.32 399.50 755.33 400.22 755.33 400.93 755.11 401.39 754.90 401.86 755.03 401.55 755.17 401.24 755.15 401.41 755.13 401.57 755.07 401.73 755.01 401.89 754.91 402.03 754.82 402.16 754.69 402.28 754.57 402.39 754.42 402.47 754.27 402.54 754.10 402.58 753.94 402.62 753.77 402.62 753.60 402.62 753.44 402.58 753.28 402.54 753.13 402.47 752.98 402.39 752.85 402.27 752.73 402.16 752.63 402.02 752.53 401.89 752.47 401.73 752.41 401.57 752.39 401.40 752.37 401.24 752.12 400.42 751.87 399.61 752.09 398.83 752.30 398.05 752.69 397.68 753.08 397.31 753.96 397.22 754.84 397.12 755.92 397.69 756.99 398.26 757.58 399.09 758.17 399.93 758.40 401.03 758.63 402.13 758.14 403.42 757.65 404.70 756.53 405.94 755.41 407.19 753.27 407.84 751.12 408.49 751.12 408.49 751.11 408.48 751.11 408.48 751.11 408.47 752.22 406.87 753.32 405.26 754.20 404.34 755.08 403.42 755.40 402.40 755.72 401.38 755.23 400.61 754.73 399.83 754.95 400.54 755.17 401.24 755.15 401.41 755.13 401.57 755.07 401.73 755.01 401.89 754.91 402.03 754.82 402.16 754.69 402.28 754.57 402.39 754.42 402.47 754.27 402.54 754.10 402.58 753.94 402.62 753.77 402.62 753.60 402.62 753.44 402.58 753.28 402.54 753.13 402.47 752.98 402.39 752.85 402.27 752.73 402.16 752.63 402.02 752.53 401.89 752.47 401.73 752.41 401.57 752.39 401.40 752.37 401.24 752.49 401.08 752.60 400.93 752.60 400.21 752.61 399.49 752.65 398.90 752.69 398.32 752.70 398.16 752.71 398.01 752.75 397.86 752.80 397.71 752.88 397.58 752.96 397.44 753.07 397.33 753.17 397.22 753.31 397.14 753.44 397.06 753.59 397.01 753.73 396.96 753.89 396.95 754.04 396.94 754.20 396.97 754.35 397.00 754.49 397.06 754.63 397.12 754.76 397.22 754.88 397.31 754.97 397.43 755.07 397.55 755.14 397.70 755.20 397.84 755.23 397.99 755.26 398.14 755.23 398.47 755.20 398.81 755.05 399.32 754.90 399.84 754.80 400.00 754.70 400.15 754.71 400.16 Z" data-drauu_index="60"></path>
</svg>