<svg width="980" height="551" xmlns="http://www.w3.org/2000/svg" xmlns:xlink="http://www.w3.org/1999/xlink">
<path fill="#000000" d="M 45.58 60.20 Q 45.58 60.20 45.08 59.81 44.58 59.42 44.29 59.08 43.99 58.74 43.97 58.59 43.96 58.44 43.98 58.30 44.00 58.15 44.06 58.01 44.12 57.87 44.21 57.75 44.29 57.63 44.41 57.54 44.52 57.44 44.66 57.37 44.79 57.31 44.93 57.28 45.08 57.25 45.23 57.25 45.38 57.25 45.52 57.29 45.67 57.33 45.80 57.41 45.93 57.48 46.03 57.58 46.14 57.68 46.22 57.81 46.31 57.93 46.35 58.07 46.40 58.21 46.51 58.82 46.61 59.43 47.01 60.98 47.40 62.54 47.65 63.88 47.90 65.22 48.18 68.43 48.45 71.64 48.57 74.11 48.68 76.57 48.69 78.41 48.70 80.25 48.61 81.62 48.51 82.99 48.46 83.59 48.42 84.19 48.66 83.68 48.90 83.17 50.25 82.88 51.61 82.60 52.79 82.39 53.97 82.18 54.88 82.06 55.78 81.93 56.45 81.91 57.12 81.90 58.27 81.69 59.42 81.48 59.42 81.48 59.43 81.48 59.43 81.49 59.44 81.49 58.40 83.14 57.37 84.80 56.79 84.89 56.21 84.98 55.36 85.10 54.51 85.22 53.38 85.42 52.24 85.62 50.79 85.93 49.33 86.23 48.23 86.29 47.13 86.36 46.50 85.93 45.88 85.50 45.60 84.80 45.31 84.10 45.34 83.43 45.37 82.77 45.46 81.52 45.55 80.26 45.55 78.49 45.54 76.71 45.44 74.31 45.33 71.90 45.09 68.84 44.85 65.78 44.61 64.47 44.37 63.16 44.18 60.95 43.99 58.74 43.97 58.59 43.96 58.44 43.98 58.30 44.00 58.15 44.06 58.01 44.12 57.87 44.21 57.75 44.29 57.63 44.41 57.54 44.52 57.44 44.66 57.37 44.79 57.31 44.93 57.28 45.08 57.25 45.23 57.25 45.38 57.25 45.52 57.29 45.67 57.33 45.80 57.41 45.93 57.48 46.03 57.58 46.14 57.68 46.22 57.81 46.31 57.93 46.35 58.07 46.40 58.21 46.27 58.63 46.14 59.05 45.87 59.62 45.60 60.20 45.59 60.20 Z" data-drauu_index="0"></path><path fill="#000000" d="M 61.74 74.72 Q 61.74 74.72 62.36 74.75 62.99 74.78 63.39 74.46 63.79 74.14 63.88 73.57 63.96 73.01 63.86 72.13 63.75 71.26 63.53 72.00 63.30 72.75 63.09 73.48 62.88 74.22 62.77 75.84 62.67 77.46 62.81 78.44 62.95 79.42 63.85 79.95 64.75 80.48 65.25 80.60 65.75 80.72 66.41 80.60 67.07 80.49 68.76 80.14 70.45 79.78 70.45 79.79 70.46 79.79 70.46 79.79 70.47 79.80 68.99 81.53 67.52 83.25 66.33 83.43 65.13 83.61 64.38 83.42 63.62 83.23 62.45 82.62 61.28 82.02 60.67 80.97 60.06 79.92 59.89 78.58 59.73 77.25 59.90 75.33 60.06 73.41 60.32 72.54 60.58 71.67 61.04 70.59 61.49 69.50 62.18 68.87 62.88 68.23 63.90 68.30 64.92 68.37 65.33 68.81 65.74 69.25 66.10 69.97 66.45 70.69 66.58 71.67 66.70 72.65 66.60 73.21 66.50 73.77 66.15 74.62 65.80 75.46 65.11 75.96 64.41 76.47 63.37 76.38 62.34 76.30 62.03 75.52 61.73 74.74 61.73 74.73 Z" data-drauu_index="1"></path><path fill="#000000" d="M 73.91 51.32 Q 73.91 51.32 74.86 53.39 75.81 55.46 76.17 59.03 76.52 62.60 76.66 65.99 76.81 69.38 76.87 72.29 76.93 75.19 76.95 77.40 76.98 79.60 76.92 80.88 76.87 82.17 77.83 81.57 78.78 80.96 79.94 79.61 81.09 78.26 81.10 78.27 81.10 78.27 81.11 78.27 81.11 78.27 80.82 80.36 80.54 82.45 79.73 83.47 78.93 84.48 77.85 84.78 76.77 85.08 75.43 84.02 74.09 82.97 73.97 81.30 73.85 79.63 73.83 77.44 73.81 75.26 73.76 72.38 73.71 69.50 73.58 66.18 73.46 62.87 73.20 59.32 72.93 55.77 73.41 53.55 73.90 51.32 73.91 51.32 Z" data-drauu_index="2"></path><path fill="#000000" d="M 68.26 66.11 Q 68.26 66.11 70.01 65.73 71.76 65.36 73.25 65.44 74.74 65.52 76.05 65.55 77.36 65.59 79.37 66.32 81.38 67.05 81.38 67.05 81.38 67.06 81.38 67.06 81.38 67.07 79.32 67.73 77.26 68.39 75.90 68.33 74.54 68.26 72.94 68.11 71.33 67.96 69.79 67.05 68.25 66.13 68.26 66.12 Z" data-drauu_index="3"></path><path fill="#000000" d="M 98.40 68.74 Q 98.40 68.74 98.98 69.87 99.56 71.00 99.61 71.89 99.66 72.77 99.65 74.06 99.65 75.36 99.70 76.96 99.76 78.57 99.96 79.45 100.15 80.34 100.96 79.59 101.77 78.85 102.30 78.06 102.83 77.27 103.28 76.09 103.73 74.91 104.06 73.56 104.38 72.21 104.54 70.88 104.69 69.56 104.76 68.90 104.83 68.23 104.84 67.86 104.86 67.49 104.90 67.31 104.94 67.12 105.03 66.96 105.11 66.79 105.23 66.65 105.36 66.51 105.51 66.40 105.66 66.29 105.83 66.22 106.01 66.15 106.19 66.13 106.38 66.11 106.56 66.13 106.75 66.15 106.92 66.21 107.10 66.27 107.26 66.38 107.41 66.48 107.54 66.62 107.66 66.76 107.75 66.92 107.84 67.09 107.89 67.27 107.93 67.45 107.94 67.64 107.94 67.82 107.80 68.57 107.65 69.32 107.51 70.38 107.36 71.44 107.25 72.81 107.14 74.18 107.09 75.61 107.04 77.05 107.13 78.51 107.23 79.98 107.54 80.79 107.84 81.60 108.63 81.97 109.41 82.33 109.95 81.96 110.50 81.58 111.56 80.22 112.62 78.87 113.54 77.21 114.45 75.54 114.90 73.59 115.35 71.64 115.27 70.65 115.19 69.66 114.81 69.12 114.42 68.58 114.43 68.39 114.44 68.20 114.49 68.01 114.55 67.83 114.65 67.66 114.75 67.50 114.88 67.36 115.02 67.23 115.18 67.13 115.35 67.02 115.53 66.97 115.71 66.91 115.91 66.90 116.10 66.88 116.29 66.92 116.48 66.95 116.65 67.03 116.83 67.11 116.98 67.22 117.13 67.34 117.25 67.49 117.37 67.64 117.45 67.82 117.53 67.99 117.57 68.18 117.60 68.37 117.17 69.58 116.74 70.78 116.67 71.73 116.60 72.67 117.23 74.03 117.86 75.39 118.63 76.52 119.40 77.64 120.10 78.49 120.80 79.33 121.31 80.10 121.82 80.86 121.95 81.93 122.07 82.99 121.63 83.80 121.19 84.60 119.84 85.11 118.50 85.62 117.36 85.76 116.21 85.90 115.15 85.82 114.09 85.74 112.78 83.68 111.47 81.62 111.47 81.61 111.48 81.61 111.48 81.61 111.49 81.61 112.94 82.11 114.40 82.61 115.14 82.67 115.88 82.73 116.79 82.64 117.71 82.56 118.46 82.48 119.21 82.39 118.81 81.85 118.42 81.30 117.62 80.34 116.82 79.38 115.89 77.98 114.96 76.58 114.21 74.56 113.47 72.53 113.64 71.05 113.81 69.57 114.11 69.07 114.42 68.58 114.43 68.39 114.44 68.20 114.49 68.01 114.55 67.83 114.65 67.66 114.75 67.50 114.88 67.36 115.02 67.23 115.18 67.13 115.35 67.02 115.53 66.97 115.71 66.91 115.90 66.90 116.10 66.88 116.29 66.92 116.48 66.95 116.65 67.03 116.83 67.11 116.98 67.22 117.13 67.34 117.25 67.49 117.37 67.64 117.45 67.82 117.53 67.99 117.57 68.18 117.60 68.37 117.94 68.75 118.28 69.12 118.38 70.74 118.48 72.36 117.87 74.72 117.27 77.08 116.16 79.02 115.06 80.95 113.46 82.69 111.87 84.44 110.43 84.90 108.99 85.36 107.75 84.94 106.50 84.52 105.71 83.65 104.92 82.78 104.49 81.49 104.06 80.21 103.97 78.57 103.88 76.93 103.93 75.42 103.99 73.91 104.13 72.45 104.26 71.00 104.43 69.85 104.59 68.70 104.72 68.10 104.86 67.49 104.90 67.31 104.94 67.12 105.03 66.96 105.11 66.79 105.23 66.65 105.36 66.51 105.51 66.40 105.66 66.29 105.83 66.22 106.01 66.15 106.19 66.13 106.38 66.11 106.56 66.13 106.75 66.15 106.92 66.21 107.10 66.27 107.26 66.38 107.41 66.48 107.54 66.62 107.66 66.76 107.75 66.92 107.84 67.09 107.89 67.27 107.93 67.45 107.94 67.63 107.94 67.82 107.90 68.19 107.87 68.56 107.79 69.25 107.71 69.93 107.52 71.43 107.33 72.93 106.94 74.48 106.55 76.03 105.95 77.50 105.35 78.96 104.67 79.94 104.00 80.91 102.66 82.10 101.31 83.29 100.11 83.17 98.91 83.05 98.09 82.11 97.27 81.17 97.00 79.92 96.72 78.68 96.67 77.00 96.62 75.33 96.65 73.99 96.67 72.66 96.79 71.74 96.90 70.81 97.64 69.78 98.38 68.74 98.39 68.74 Z" data-drauu_index="4"></path><path fill="#000000" d="M 139.20 55.09 Q 139.20 55.09 138.73 54.64 138.25 54.20 138.19 54.01 138.13 53.82 138.14 53.69 138.16 53.56 138.20 53.44 138.25 53.32 138.32 53.21 138.40 53.10 138.50 53.02 138.59 52.93 138.71 52.87 138.83 52.81 138.95 52.78 139.08 52.75 139.21 52.75 139.34 52.75 139.47 52.78 139.59 52.81 139.71 52.87 139.82 52.93 139.92 53.02 140.02 53.10 140.09 53.21 140.17 53.32 140.21 53.44 140.26 53.56 140.28 53.69 140.29 53.82 140.71 55.99 141.12 58.15 141.27 59.60 141.41 61.05 141.51 63.73 141.60 66.41 141.64 68.73 141.68 71.04 141.69 73.39 141.71 75.75 141.77 77.24 141.84 78.74 141.92 79.40 142.00 80.07 142.64 80.39 143.28 80.70 145.05 80.62 146.83 80.54 146.83 80.55 146.84 80.55 146.84 80.56 146.85 80.56 144.87 82.16 142.89 83.77 142.40 83.60 141.92 83.44 141.06 82.93 140.20 82.42 139.63 81.54 139.07 80.66 138.94 79.76 138.81 78.86 138.75 77.31 138.69 75.77 138.68 73.42 138.66 71.08 138.64 68.79 138.61 66.50 138.55 63.91 138.49 61.32 138.37 59.91 138.25 58.50 138.19 56.16 138.13 53.82 138.14 53.69 138.16 53.56 138.20 53.44 138.25 53.32 138.32 53.21 138.40 53.10 138.50 53.02 138.59 52.93 138.71 52.87 138.83 52.81 138.95 52.78 139.08 52.75 139.21 52.75 139.34 52.75 139.47 52.78 139.59 52.81 139.71 52.87 139.82 52.93 139.92 53.02 140.02 53.10 140.09 53.21 140.17 53.32 140.21 53.44 140.26 53.56 140.28 53.69 140.29 53.82 140.23 54.01 140.17 54.20 139.69 54.64 139.22 55.09 139.21 55.09 Z" data-drauu_index="5"></path><path fill="#000000" d="M 151.86 71.84 Q 151.86 71.84 151.80 72.59 151.74 73.33 151.62 75.21 151.51 77.09 151.32 78.24 151.14 79.39 151.04 80.23 150.95 81.07 151.37 81.41 151.80 81.76 152.43 81.48 153.06 81.20 153.57 80.94 154.08 80.68 154.62 79.84 155.15 78.99 155.40 78.21 155.64 77.43 155.57 76.85 155.51 76.26 154.52 76.02 153.53 75.78 152.81 75.66 152.10 75.54 151.64 77.18 151.18 78.82 151.17 78.82 151.17 78.82 151.16 78.83 151.16 78.83 150.06 77.02 148.97 75.22 149.52 74.28 150.08 73.34 151.15 72.90 152.22 72.45 153.38 72.61 154.54 72.77 156.10 73.49 157.66 74.20 158.12 75.16 158.57 76.13 158.51 77.26 158.46 78.39 157.99 79.55 157.53 80.71 156.50 81.97 155.47 83.22 154.57 83.64 153.67 84.06 152.25 84.20 150.83 84.33 150.03 83.82 149.23 83.30 148.70 82.25 148.16 81.19 148.23 80.06 148.31 78.92 148.51 77.68 148.72 76.45 149.53 74.36 150.34 72.27 151.09 72.05 151.84 71.83 151.85 71.84 Z" data-drauu_index="6"></path><path fill="#000000" d="M 166.25 74.00 Q 166.25 74.00 165.42 74.67 164.59 75.34 164.37 76.29 164.14 77.25 163.97 78.04 163.81 78.84 163.70 79.35 163.60 79.86 164.05 80.53 164.51 81.21 165.74 81.21 166.98 81.21 167.51 80.94 168.04 80.66 168.47 80.03 168.90 79.41 169.12 78.30 169.34 77.19 168.95 76.28 168.55 75.38 167.85 74.80 167.14 74.21 166.54 74.01 165.93 73.81 165.27 74.26 164.61 74.71 164.61 76.96 164.62 79.22 164.61 79.22 164.61 79.22 164.60 79.23 164.60 79.23 162.97 76.88 161.35 74.53 162.25 73.23 163.16 71.93 164.76 71.39 166.36 70.85 167.81 71.41 169.26 71.96 170.29 73.16 171.33 74.35 171.75 76.01 172.16 77.66 171.66 79.38 171.16 81.10 170.25 82.13 169.35 83.16 168.36 83.59 167.38 84.02 165.81 84.09 164.25 84.15 163.18 83.38 162.10 82.61 161.50 81.17 160.89 79.73 161.00 78.92 161.12 78.11 161.48 76.96 161.85 75.82 162.86 74.84 163.87 73.87 165.06 73.92 166.24 73.98 166.24 73.99 Z" data-drauu_index="7"></path><path fill="#000000" d="M 173.59 55.83 Q 173.59 55.83 174.45 57.70 175.31 59.57 175.65 62.91 175.98 66.25 176.14 69.33 176.30 72.41 176.37 75.44 176.45 78.46 176.48 80.07 176.50 81.68 176.49 82.93 176.48 84.17 175.87 83.79 175.27 83.40 175.27 83.41 175.27 83.41 175.27 83.41 175.27 83.41 175.27 83.41 175.27 83.41 175.27 83.41 175.26 83.41 175.26 83.41 175.26 83.41 175.26 83.41 175.26 83.41 175.26 83.41 175.26 83.41 175.26 83.41 175.26 83.41 175.25 83.41 175.25 83.41 175.25 83.41 175.25 83.41 175.25 83.41 175.25 83.41 175.25 83.41 175.25 83.41 175.25 83.41 175.25 83.40 175.25 83.40 175.26 83.40 175.26 83.40 175.27 83.40 175.27 83.41 175.27 83.41 175.27 83.41 175.27 83.41 175.27 83.41 175.27 83.41 175.27 83.41 175.26 83.41 175.26 83.41 175.26 83.41 175.26 83.41 175.26 83.41 175.26 83.41 175.26 83.41 175.26 83.41 175.26 83.41 175.25 83.41 175.25 83.41 175.25 83.41 175.25 83.41 175.25 83.41 175.25 83.41 175.25 83.41 175.25 83.41 175.25 83.41 175.25 83.40 174.35 83.80 173.46 84.20 173.42 82.97 173.39 81.73 173.36 80.13 173.34 78.53 173.28 75.55 173.22 72.57 173.08 69.53 172.94 66.49 172.73 63.16 172.53 59.82 173.05 57.83 173.57 55.83 173.58 55.83 Z" data-drauu_index="8"></path><path fill="#000000" d="M 182.73 67.60 Q 182.73 67.60 182.74 68.84 182.75 70.08 181.86 71.23 180.96 72.38 179.54 73.49 178.12 74.60 177.07 75.27 176.02 75.94 175.60 76.14 175.18 76.34 175.02 76.42 174.87 76.49 174.69 76.53 174.52 76.56 174.35 76.56 174.17 76.55 174.00 76.50 173.84 76.45 173.68 76.37 173.53 76.28 173.41 76.16 173.28 76.04 173.19 75.89 173.09 75.74 173.04 75.58 172.98 75.41 172.97 75.23 172.95 75.06 172.98 74.89 173.01 74.71 173.08 74.55 173.14 74.39 173.25 74.25 173.35 74.11 173.49 74.00 173.62 73.89 174.39 73.29 175.15 72.70 176.40 72.59 177.65 72.48 178.78 73.19 179.90 73.91 180.91 75.52 181.91 77.13 182.71 78.66 183.51 80.18 183.94 81.01 184.36 81.84 184.63 82.32 184.89 82.80 185.50 82.94 186.11 83.07 187.49 82.89 188.87 82.71 188.87 82.71 188.87 82.72 188.87 82.72 188.88 82.73 187.75 84.26 186.63 85.79 185.50 85.88 184.38 85.98 183.85 85.67 183.31 85.37 182.80 84.81 182.29 84.25 182.01 83.72 181.72 83.18 181.30 82.35 180.89 81.52 180.16 80.05 179.43 78.59 178.76 77.34 178.09 76.10 177.72 75.63 177.35 75.17 176.63 75.29 175.91 75.41 175.55 75.88 175.18 76.34 175.02 76.42 174.87 76.49 174.70 76.53 174.52 76.56 174.35 76.56 174.17 76.55 174.01 76.50 173.84 76.45 173.68 76.37 173.53 76.28 173.41 76.16 173.28 76.04 173.19 75.89 173.09 75.74 173.04 75.58 172.98 75.41 172.97 75.23 172.95 75.06 172.98 74.89 173.01 74.71 173.08 74.55 173.14 74.39 173.25 74.25 173.35 74.11 173.49 74.00 173.62 73.89 174.05 73.70 174.48 73.52 175.43 72.93 176.37 72.33 177.64 71.37 178.91 70.41 179.80 69.70 180.68 68.98 181.70 68.29 182.71 67.59 182.72 67.60 Z" data-drauu_index="9"></path><path fill="#000000" d="M 208.33 71.97 Q 208.33 71.97 207.76 71.68 207.19 71.38 206.31 72.83 205.43 74.27 204.94 75.53 204.45 76.79 204.26 78.20 204.06 79.62 203.97 80.30 203.88 80.98 204.50 80.89 205.12 80.81 205.59 80.44 206.05 80.06 206.47 79.15 206.89 78.24 207.09 77.21 207.30 76.19 207.40 75.04 207.50 73.89 207.36 73.08 207.22 72.26 206.98 71.65 206.73 71.03 206.70 70.83 206.67 70.63 206.68 70.43 206.69 70.23 206.76 70.04 206.82 69.85 206.92 69.68 207.03 69.50 207.17 69.36 207.32 69.22 207.49 69.12 207.67 69.02 207.86 68.96 208.05 68.90 208.25 68.89 208.46 68.88 208.65 68.92 208.85 68.96 209.03 69.04 209.22 69.13 209.37 69.25 209.53 69.38 209.65 69.54 209.78 69.70 209.86 69.88 209.94 70.07 209.94 71.38 209.94 72.70 209.95 73.56 209.96 74.41 210.13 75.55 210.30 76.68 210.54 77.90 210.78 79.12 211.15 80.26 211.51 81.40 212.11 82.73 212.72 84.06 212.72 84.06 212.72 84.06 212.72 84.06 212.72 84.06 212.72 84.07 212.72 84.07 212.71 84.07 212.71 84.07 212.71 84.07 212.71 84.07 212.71 84.07 212.71 84.07 212.71 84.07 212.71 84.07 212.71 84.07 212.71 84.07 212.70 84.07 212.70 84.07 212.70 84.07 212.70 84.07 212.70 84.07 212.70 84.07 212.70 84.07 212.70 84.07 212.70 84.07 212.70 84.07 212.70 84.06 212.71 84.06 212.71 84.06 212.72 84.06 212.72 84.06 212.72 84.06 212.72 84.06 212.72 84.06 212.72 84.07 212.72 84.07 212.71 84.07 212.71 84.07 212.71 84.07 212.71 84.07 212.71 84.07 212.71 84.07 212.71 84.07 212.71 84.07 212.71 84.07 212.71 84.07 212.70 84.07 212.70 84.07 212.70 84.07 212.70 84.07 212.70 84.07 212.70 84.07 212.70 84.07 212.70 84.07 212.70 84.07 212.70 84.07 210.51 83.25 208.32 82.43 207.89 81.10 207.46 79.78 207.20 78.46 206.95 77.15 206.77 75.79 206.59 74.43 206.58 73.51 206.58 72.58 206.66 71.81 206.73 71.03 206.70 70.83 206.67 70.63 206.68 70.43 206.69 70.23 206.76 70.04 206.82 69.85 206.92 69.68 207.03 69.50 207.17 69.36 207.32 69.22 207.49 69.12 207.67 69.02 207.86 68.96 208.05 68.90 208.25 68.89 208.45 68.88 208.65 68.92 208.85 68.96 209.03 69.04 209.22 69.13 209.37 69.25 209.53 69.38 209.65 69.54 209.78 69.70 209.86 69.88 209.94 70.07 210.02 70.29 210.10 70.52 210.26 71.16 210.43 71.80 210.56 72.99 210.70 74.18 210.56 75.55 210.41 76.92 210.04 78.36 209.66 79.80 208.71 81.24 207.76 82.67 206.47 83.28 205.17 83.89 203.74 83.62 202.32 83.35 201.61 82.30 200.90 81.25 200.93 80.19 200.97 79.14 201.26 77.39 201.56 75.63 202.21 74.08 202.87 72.52 204.11 70.93 205.36 69.35 206.15 69.13 206.94 68.91 207.71 69.16 208.48 69.41 208.91 70.02 209.34 70.62 208.85 71.30 208.35 71.97 208.34 71.97 Z" data-drauu_index="10"></path><path fill="#000000" d="M 220.80 52.94 Q 220.80 52.94 221.66 54.72 222.52 56.51 222.82 59.58 223.11 62.66 223.22 65.70 223.32 68.75 223.27 71.65 223.21 74.56 223.13 76.91 223.05 79.26 223.01 80.83 222.97 82.41 224.24 81.37 225.51 80.34 227.06 78.72 228.61 77.11 228.62 77.11 228.62 77.11 228.63 77.11 228.63 77.12 228.16 79.59 227.69 82.06 226.62 83.55 225.55 85.04 224.39 85.57 223.22 86.11 222.03 85.63 220.84 85.15 220.25 83.80 219.65 82.45 219.68 80.80 219.71 79.14 219.80 76.81 219.89 74.49 219.97 71.66 220.05 68.83 220.00 65.84 219.95 62.85 219.89 59.82 219.83 56.79 220.30 54.86 220.78 52.94 220.79 52.94 Z" data-drauu_index="11"></path><path fill="#000000" d="M 211.64 68.87 Q 211.64 68.87 214.45 68.09 217.26 67.32 219.45 67.03 221.63 66.74 223.09 66.47 224.55 66.20 226.48 66.19 228.41 66.17 228.42 66.17 228.42 66.17 228.43 66.17 228.43 66.17 226.76 67.71 225.09 69.25 223.54 69.52 221.99 69.78 219.65 70.03 217.31 70.28 214.47 69.58 211.64 68.89 211.64 68.88 Z" data-drauu_index="12"></path><path fill="#000000" d="M 250.52 50.25 Q 250.52 50.25 250.98 51.45 251.43 52.64 251.74 54.69 252.06 56.74 252.47 60.31 252.88 63.87 253.17 66.99 253.47 70.11 253.76 73.04 254.05 75.96 254.28 77.72 254.52 79.48 254.64 80.36 254.77 81.23 254.22 80.67 253.67 80.10 253.67 80.10 253.67 80.11 253.67 80.11 253.67 80.11 253.67 80.11 253.67 80.11 253.67 80.11 253.66 80.11 253.66 80.11 253.66 80.11 253.66 80.11 253.66 80.11 253.66 80.11 253.66 80.11 253.66 80.11 253.66 80.11 253.65 80.11 253.65 80.11 253.65 80.11 253.65 80.11 253.65 80.11 253.65 80.11 253.65 80.11 253.65 80.11 253.65 80.11 253.65 80.11 253.65 80.11 253.66 80.10 253.66 80.10 253.67 80.10 253.67 80.10 253.67 80.11 253.67 80.11 253.67 80.11 253.67 80.11 253.67 80.11 253.67 80.11 253.66 80.11 253.66 80.11 253.66 80.11 253.66 80.11 253.66 80.11 253.66 80.11 253.66 80.11 253.66 80.11 253.66 80.11 253.65 80.11 253.65 80.11 253.65 80.11 253.65 80.11 253.65 80.11 253.65 80.11 253.65 80.11 253.65 80.11 253.65 80.11 253.65 80.11 252.64 80.91 251.63 81.72 251.48 80.80 251.34 79.89 251.10 78.08 250.87 76.26 250.61 73.33 250.35 70.39 250.09 67.27 249.83 64.16 249.55 60.50 249.28 56.85 249.44 54.75 249.60 52.64 250.05 51.45 250.50 50.25 250.51 50.25 Z" data-drauu_index="13"></path><path fill="#000000" d="M 243.86 68.19 Q 243.86 68.19 245.52 68.21 247.19 68.22 248.73 68.28 250.28 68.35 252.00 68.15 253.72 67.95 254.90 67.53 256.07 67.11 256.82 66.53 257.56 65.95 258.03 64.89 258.50 63.83 258.74 63.03 258.97 62.22 259.06 61.10 259.15 59.99 258.97 58.64 258.78 57.29 258.61 56.43 258.44 55.57 258.33 55.15 258.23 54.73 258.22 54.54 258.20 54.36 258.23 54.18 258.27 54.00 258.34 53.83 258.42 53.66 258.53 53.51 258.64 53.37 258.78 53.25 258.93 53.14 259.10 53.06 259.26 52.99 259.44 52.95 259.62 52.92 259.81 52.93 259.99 52.94 260.17 52.99 260.35 53.04 260.50 53.14 260.66 53.23 260.79 53.36 260.92 53.49 261.02 53.65 261.12 53.80 261.17 53.98 261.23 54.15 261.30 55.53 261.38 56.91 261.68 58.79 261.97 60.67 262.47 64.05 262.97 67.43 263.28 69.70 263.59 71.98 263.80 73.66 264.01 75.35 264.18 77.69 264.36 80.03 264.43 81.14 264.51 82.26 264.54 82.70 264.58 83.13 264.56 83.32 264.55 83.52 264.50 83.70 264.44 83.88 264.34 84.05 264.24 84.22 264.10 84.35 263.97 84.49 263.80 84.59 263.64 84.69 263.45 84.75 263.27 84.81 263.08 84.82 262.88 84.83 262.69 84.80 262.50 84.76 262.33 84.68 262.15 84.60 262.00 84.49 261.85 84.37 261.73 84.22 261.61 84.06 261.53 83.89 261.45 83.71 261.41 83.52 261.38 83.33 261.38 82.77 261.39 82.21 261.40 80.43 261.41 78.65 261.43 76.96 261.45 75.27 261.80 73.61 262.16 71.96 262.75 70.93 263.34 69.90 264.30 69.30 265.25 68.71 266.46 68.85 267.66 69.00 268.88 70.32 270.11 71.64 270.70 72.70 271.29 73.76 271.64 75.72 271.99 77.67 271.37 79.92 270.76 82.16 270.76 82.16 270.76 82.17 270.76 82.17 270.76 82.17 270.76 82.17 270.76 82.17 270.76 82.17 270.76 82.17 270.76 82.17 270.75 82.17 270.75 82.17 270.75 82.17 270.75 82.17 270.75 82.17 270.75 82.17 270.75 82.17 270.75 82.17 270.75 82.17 270.74 82.17 270.74 82.17 270.74 82.17 270.74 82.17 270.74 82.17 270.74 82.17 270.74 82.17 270.74 82.17 270.74 82.17 270.75 82.16 270.75 82.16 270.76 82.16 270.76 82.16 270.76 82.17 270.76 82.17 270.76 82.17 270.76 82.17 270.76 82.17 270.76 82.17 270.76 82.17 270.76 82.17 270.75 82.17 270.75 82.17 270.75 82.17 270.75 82.17 270.75 82.17 270.75 82.17 270.75 82.17 270.75 82.17 270.75 82.17 270.74 82.17 270.74 82.17 270.74 82.17 270.74 82.17 270.74 82.17 270.74 82.17 270.74 82.17 270.74 82.17 269.75 80.16 268.77 78.15 268.61 76.68 268.46 75.22 268.04 74.41 267.61 73.60 266.75 72.62 265.89 71.64 265.54 72.17 265.19 72.69 264.89 73.99 264.59 75.29 264.60 76.97 264.62 78.66 264.60 80.90 264.58 83.13 264.56 83.32 264.55 83.52 264.50 83.70 264.44 83.88 264.34 84.05 264.24 84.22 264.10 84.35 263.97 84.49 263.80 84.59 263.64 84.69 263.45 84.75 263.27 84.81 263.08 84.82 262.88 84.83 262.69 84.80 262.50 84.76 262.33 84.68 262.15 84.60 262.00 84.49 261.85 84.37 261.73 84.22 261.61 84.06 261.53 83.89 261.45 83.71 261.41 83.52 261.38 83.33 261.35 82.90 261.33 82.46 261.26 81.36 261.20 80.25 261.04 77.99 260.88 75.74 260.67 74.07 260.47 72.40 260.17 70.14 259.87 67.88 259.38 64.51 258.90 61.14 258.61 59.16 258.32 57.18 258.27 55.95 258.23 54.73 258.22 54.54 258.20 54.36 258.23 54.18 258.27 54.00 258.34 53.83 258.41 53.66 258.53 53.51 258.64 53.37 258.78 53.25 258.93 53.14 259.10 53.06 259.26 52.99 259.44 52.95 259.62 52.92 259.81 52.93 259.99 52.94 260.17 52.99 260.35 53.04 260.50 53.14 260.66 53.23 260.79 53.36 260.92 53.49 261.02 53.65 261.12 53.80 261.17 53.98 261.23 54.15 261.31 54.58 261.39 55.01 261.57 55.97 261.74 56.93 261.92 58.60 262.09 60.26 261.94 61.67 261.78 63.08 261.44 64.14 261.10 65.19 260.22 66.69 259.34 68.19 258.17 68.99 257.00 69.79 255.50 70.26 254.00 70.73 251.97 70.88 249.93 71.03 248.20 70.66 246.47 70.28 245.16 69.25 243.85 68.21 243.85 68.20 Z" data-drauu_index="14"></path><path fill="#000000" d="M 277.41 76.13 Q 277.41 76.13 280.53 76.42 283.64 76.71 283.64 76.71 283.64 76.72 283.64 76.72 283.64 76.73 280.53 76.44 277.41 76.15 277.41 76.14 Z" data-drauu_index="15"></path><path fill="#000000" d="M 277.68 73.98 Q 277.68 73.98 278.38 73.59 279.07 73.21 279.61 73.05 280.15 72.89 280.62 72.47 281.10 72.06 281.42 71.18 281.74 70.30 281.32 69.63 280.89 68.96 280.30 69.02 279.71 69.08 278.78 70.50 277.84 71.91 277.40 73.26 276.96 74.62 276.76 75.58 276.57 76.55 276.67 77.74 276.76 78.94 277.45 79.82 278.15 80.70 278.62 81.17 279.09 81.64 279.88 81.81 280.66 81.98 281.46 82.10 282.27 82.21 282.92 82.15 283.57 82.09 285.56 80.96 287.54 79.83 287.54 79.83 287.55 79.83 287.55 79.83 287.56 79.83 286.64 82.28 285.72 84.73 284.77 85.06 283.82 85.40 282.79 85.44 281.75 85.49 280.68 85.30 279.61 85.11 278.26 84.56 276.90 84.01 276.16 83.24 275.43 82.46 274.54 80.89 273.66 79.31 273.60 77.62 273.53 75.94 273.79 74.77 274.04 73.61 274.65 71.94 275.25 70.28 276.49 68.54 277.72 66.80 278.54 66.44 279.37 66.07 280.39 66.07 281.41 66.07 282.25 66.54 283.10 67.01 283.75 68.00 284.39 68.99 284.44 69.99 284.49 70.99 284.18 71.92 283.87 72.85 283.23 73.60 282.58 74.36 281.50 74.90 280.41 75.44 279.55 75.33 278.69 75.23 278.19 74.61 277.68 74.00 277.68 73.99 Z" data-drauu_index="16"></path><path fill="#000000" d="M 532.05 120.78 Q 532.05 120.78 532.05 120.78 532.04 120.79 532.04 120.79 532.04 120.79 532.04 120.79 Z" data-drauu_index="20"></path><path fill="#000000" d="M 323.95 74.09 Q 323.95 74.09 325.01 73.84 326.06 73.59 326.07 73.59 326.07 73.60 326.07 73.60 326.07 73.60 325.02 73.86 323.96 74.11 323.96 74.10 Z" data-drauu_index="2"></path>
</svg>