<svg width="980" height="551" xmlns="http://www.w3.org/2000/svg" xmlns:xlink="http://www.w3.org/1999/xlink">
<path fill="#ff595e" d="M 601.75 32.02 Q 601.75 32.02 602.75 34.05 603.74 36.08 603.74 38.66 603.74 41.24 603.74 44.20 603.74 47.16 603.74 49.87 603.74 52.59 603.74 54.78 603.74 56.98 603.74 58.68 603.74 60.38 603.74 61.53 603.74 62.68 605.24 62.48 606.74 62.29 608.13 62.26 609.53 62.23 610.81 62.21 612.10 62.20 613.12 62.20 614.13 62.19 615.27 62.19 616.41 62.19 615.77 60.27 615.14 58.35 615.14 57.00 615.14 55.65 615.14 54.26 615.14 52.86 615.14 51.63 615.14 50.40 615.14 49.08 615.14 47.77 615.90 46.68 616.65 45.59 617.85 45.51 619.05 45.43 620.91 45.62 622.78 45.81 623.88 45.84 624.98 45.88 626.59 45.93 628.19 45.98 629.42 46.29 630.64 46.59 631.16 47.47 631.68 48.36 631.66 49.50 631.65 50.65 631.59 53.25 631.54 55.85 631.53 58.51 631.53 61.18 631.52 64.67 631.52 68.17 631.57 71.71 631.62 75.26 631.78 78.37 631.94 81.49 632.13 84.12 632.32 86.76 632.47 88.66 632.63 90.56 631.80 93.04 630.98 95.52 630.98 95.52 630.98 95.53 630.98 95.53 630.98 95.53 630.98 95.53 630.97 95.53 630.97 95.53 630.97 95.53 630.97 95.53 630.97 95.53 630.97 95.53 630.97 95.53 630.97 95.53 630.97 95.53 630.97 95.53 630.96 95.53 630.96 95.53 630.96 95.53 630.96 95.53 630.96 95.53 630.96 95.53 630.96 95.53 630.96 95.53 630.96 95.53 630.96 95.53 630.96 95.53 630.96 95.52 630.97 95.52 630.97 95.52 630.98 95.52 630.98 95.52 630.98 95.53 630.98 95.53 630.98 95.53 630.98 95.53 630.97 95.53 630.97 95.53 630.97 95.53 630.97 95.53 630.97 95.53 630.97 95.53 630.97 95.53 630.97 95.53 630.97 95.53 630.97 95.53 630.96 95.53 630.96 95.53 630.96 95.53 630.96 95.53 630.96 95.53 630.96 95.53 630.96 95.53 630.96 95.53 630.96 95.53 630.96 95.53 630.96 95.53 629.80 93.20 628.64 90.88 628.49 88.96 628.33 87.04 628.14 84.37 627.95 81.69 627.78 78.50 627.62 75.32 627.57 71.74 627.52 68.17 627.52 64.67 627.53 61.17 627.53 58.49 627.54 55.81 627.56 54.07 627.57 52.33 627.78 51.15 627.98 49.97 626.41 49.92 624.85 49.87 623.66 49.83 622.47 49.79 621.29 49.70 620.10 49.61 618.80 49.40 617.49 49.18 618.32 48.48 619.14 47.77 619.14 49.08 619.14 50.40 619.14 51.63 619.14 52.87 619.14 54.26 619.14 55.65 619.14 57.01 619.14 58.36 619.13 60.33 619.12 62.29 618.99 63.37 618.85 64.45 617.68 65.31 616.50 66.18 615.33 66.18 614.15 66.19 613.15 66.20 612.14 66.20 610.88 66.21 609.61 66.23 608.30 66.25 606.98 66.28 604.99 66.44 603.00 66.59 601.60 65.98 600.19 65.37 599.97 64.03 599.74 62.68 599.74 61.53 599.74 60.38 599.74 58.68 599.74 56.98 599.74 54.78 599.74 52.59 599.74 49.87 599.74 47.16 599.74 44.20 599.74 41.24 599.74 38.66 599.74 36.08 600.74 34.05 601.73 32.02 601.74 32.02 Z" data-drauu_index="0"></path>
</svg>