<?xml version="1.0" encoding="UTF-8"?>
<svg xmlns="http://www.w3.org/2000/svg" xmlns:xlink="http://www.w3.org/1999/xlink" width="1920" height="1080" viewBox="0 0 1920 1080">
<defs>
<g>
<g id="glyph-0-0">
<path d="M 0.0898438 -0.0625 C 0.226562 -0.0742188 0.316406 -0.101562 0.363281 -0.140625 C 0.410156 -0.183594 0.4375 -0.265625 0.4375 -0.382812 L 0.4375 -2.503906 C 0.4375 -2.601562 0.429688 -2.664062 0.414062 -2.703125 C 0.382812 -2.761719 0.324219 -2.792969 0.238281 -2.792969 C 0.21875 -2.792969 0.195312 -2.789062 0.171875 -2.785156 C 0.148438 -2.78125 0.117188 -2.777344 0.0820312 -2.765625 L 0.0820312 -2.839844 C 0.277344 -2.890625 0.511719 -2.960938 0.785156 -3.046875 C 0.796875 -3.046875 0.800781 -3.042969 0.804688 -3.035156 C 0.804688 -3.027344 0.808594 -3.007812 0.808594 -2.976562 L 0.808594 -0.375 C 0.808594 -0.25 0.828125 -0.167969 0.871094 -0.132812 C 0.914062 -0.09375 1.003906 -0.0703125 1.140625 -0.0625 L 1.140625 0 L 0.0898438 0 Z "/>
</g>
<g id="glyph-0-1">
<path d="M 0.363281 -2.800781 C 0.363281 -2.863281 0.386719 -2.917969 0.429688 -2.960938 C 0.472656 -3.007812 0.527344 -3.03125 0.589844 -3.03125 C 0.652344 -3.03125 0.707031 -3.007812 0.75 -2.964844 C 0.792969 -2.917969 0.816406 -2.867188 0.816406 -2.800781 C 0.816406 -2.738281 0.792969 -2.6875 0.75 -2.640625 C 0.707031 -2.597656 0.652344 -2.574219 0.589844 -2.574219 C 0.527344 -2.574219 0.472656 -2.597656 0.429688 -2.640625 C 0.386719 -2.6875 0.363281 -2.738281 0.363281 -2.800781 Z M 0.0859375 -0.0625 C 0.242188 -0.0742188 0.339844 -0.101562 0.378906 -0.140625 C 0.421875 -0.179688 0.441406 -0.28125 0.441406 -0.453125 L 0.441406 -1.488281 C 0.441406 -1.582031 0.433594 -1.644531 0.421875 -1.683594 C 0.398438 -1.742188 0.355469 -1.769531 0.285156 -1.769531 C 0.269531 -1.769531 0.253906 -1.769531 0.238281 -1.765625 C 0.222656 -1.761719 0.179688 -1.753906 0.105469 -1.730469 L 0.105469 -1.800781 L 0.199219 -1.828125 C 0.453125 -1.910156 0.628906 -1.972656 0.730469 -2.015625 C 0.769531 -2.035156 0.796875 -2.042969 0.808594 -2.042969 C 0.8125 -2.03125 0.8125 -2.019531 0.8125 -2.007812 L 0.8125 -0.453125 C 0.8125 -0.285156 0.832031 -0.183594 0.871094 -0.140625 C 0.910156 -0.0976562 1 -0.0742188 1.140625 -0.0625 L 1.140625 0 L 0.0859375 0 Z "/>
</g>
<g id="glyph-0-2">
<path d="M 0.0859375 -0.0625 C 0.238281 -0.0703125 0.339844 -0.0976562 0.390625 -0.144531 C 0.4375 -0.195312 0.460938 -0.300781 0.460938 -0.460938 L 0.460938 -1.855469 L 0.0898438 -1.855469 L 0.0898438 -2 L 0.460938 -2 C 0.460938 -2.230469 0.492188 -2.421875 0.554688 -2.582031 C 0.675781 -2.882812 0.890625 -3.035156 1.207031 -3.035156 C 1.335938 -3.035156 1.449219 -3.007812 1.550781 -2.957031 C 1.652344 -2.90625 1.703125 -2.839844 1.703125 -2.753906 C 1.703125 -2.707031 1.683594 -2.664062 1.648438 -2.625 C 1.613281 -2.589844 1.574219 -2.570312 1.523438 -2.570312 C 1.480469 -2.570312 1.445312 -2.582031 1.414062 -2.605469 C 1.382812 -2.632812 1.347656 -2.675781 1.304688 -2.742188 L 1.269531 -2.796875 C 1.25 -2.828125 1.226562 -2.851562 1.199219 -2.875 C 1.171875 -2.894531 1.132812 -2.90625 1.082031 -2.90625 C 0.972656 -2.90625 0.898438 -2.851562 0.859375 -2.742188 C 0.835938 -2.683594 0.828125 -2.609375 0.828125 -2.515625 L 0.828125 -2 L 1.371094 -2 L 1.371094 -1.855469 L 0.832031 -1.855469 L 0.832031 -0.460938 C 0.832031 -0.296875 0.851562 -0.195312 0.898438 -0.148438 C 0.941406 -0.101562 1.058594 -0.0742188 1.242188 -0.0625 L 1.242188 0 L 0.0859375 0 Z "/>
</g>
<g id="glyph-0-3">
<path d="M 1.128906 -2 L 1.128906 -1.84375 L 0.6875 -1.84375 L 0.683594 -0.59375 C 0.683594 -0.484375 0.691406 -0.402344 0.710938 -0.34375 C 0.746094 -0.246094 0.816406 -0.195312 0.914062 -0.195312 C 0.96875 -0.195312 1.011719 -0.207031 1.050781 -0.230469 C 1.089844 -0.257812 1.132812 -0.296875 1.183594 -0.347656 L 1.238281 -0.300781 L 1.191406 -0.238281 C 1.117188 -0.136719 1.035156 -0.0625 0.953125 -0.0234375 C 0.867188 0.0195312 0.789062 0.0429688 0.710938 0.0429688 C 0.539062 0.0429688 0.421875 -0.0351562 0.363281 -0.1875 C 0.328125 -0.269531 0.3125 -0.382812 0.3125 -0.53125 L 0.3125 -1.84375 L 0.0742188 -1.84375 C 0.0664062 -1.847656 0.0625 -1.851562 0.0585938 -1.859375 C 0.0546875 -1.863281 0.0546875 -1.867188 0.0546875 -1.875 C 0.0546875 -1.890625 0.0585938 -1.902344 0.0625 -1.910156 C 0.0703125 -1.917969 0.0898438 -1.933594 0.125 -1.964844 C 0.226562 -2.046875 0.296875 -2.113281 0.339844 -2.164062 C 0.386719 -2.214844 0.488281 -2.351562 0.652344 -2.570312 C 0.671875 -2.570312 0.683594 -2.570312 0.6875 -2.566406 C 0.691406 -2.5625 0.691406 -2.554688 0.691406 -2.535156 L 0.691406 -2 Z "/>
</g>
</g>
</defs>
<g fill="rgb(85.098039%, 46.666667%, 34.117647%)" fill-opacity="1">
<use xlink:href="#glyph-0-0" x="30" y="23.333008"/>
<use xlink:href="#glyph-0-1" x="31" y="23.333008"/>
<use xlink:href="#glyph-0-2" x="32" y="23.333008"/>
<use xlink:href="#glyph-0-3" x="33" y="23.333008"/>
</g>
</svg>
