<?xml version="1.0" encoding="UTF-8"?>
<svg xmlns="http://www.w3.org/2000/svg" xmlns:xlink="http://www.w3.org/1999/xlink" width="1920" height="1080" viewBox="0 0 1920 1080">
<defs>
<g>
<g id="glyph-0-0">
<path d="M 0.484375 -0.894531 C 0.5625 -0.894531 0.628906 -0.875 0.6875 -0.835938 C 0.746094 -0.792969 0.773438 -0.75 0.773438 -0.699219 C 0.773438 -0.679688 0.765625 -0.660156 0.75 -0.640625 C 0.738281 -0.621094 0.714844 -0.613281 0.683594 -0.613281 C 0.660156 -0.613281 0.644531 -0.621094 0.625 -0.636719 C 0.609375 -0.652344 0.597656 -0.675781 0.589844 -0.703125 L 0.578125 -0.75 C 0.570312 -0.78125 0.554688 -0.804688 0.535156 -0.820312 C 0.515625 -0.832031 0.488281 -0.839844 0.453125 -0.839844 C 0.378906 -0.839844 0.320312 -0.808594 0.269531 -0.746094 C 0.21875 -0.683594 0.195312 -0.597656 0.195312 -0.496094 C 0.195312 -0.398438 0.222656 -0.3125 0.277344 -0.238281 C 0.332031 -0.160156 0.40625 -0.125 0.5 -0.125 C 0.566406 -0.125 0.625 -0.144531 0.675781 -0.1875 C 0.703125 -0.210938 0.738281 -0.25 0.773438 -0.304688 L 0.800781 -0.289062 C 0.765625 -0.214844 0.726562 -0.152344 0.6875 -0.109375 C 0.609375 -0.0234375 0.519531 0.0195312 0.421875 0.0195312 C 0.324219 0.0195312 0.234375 -0.0195312 0.160156 -0.0976562 C 0.0820312 -0.175781 0.0429688 -0.28125 0.0429688 -0.414062 C 0.0429688 -0.546875 0.0859375 -0.660156 0.167969 -0.753906 C 0.25 -0.847656 0.355469 -0.894531 0.484375 -0.894531 Z "/>
</g>
<g id="glyph-0-1">
<path d="M 0.300781 -0.878906 L 0.300781 -0.273438 C 0.300781 -0.230469 0.308594 -0.195312 0.320312 -0.167969 C 0.34375 -0.121094 0.386719 -0.0976562 0.449219 -0.0976562 C 0.492188 -0.0976562 0.535156 -0.109375 0.574219 -0.136719 C 0.597656 -0.152344 0.621094 -0.175781 0.644531 -0.203125 L 0.644531 -0.722656 C 0.644531 -0.773438 0.636719 -0.804688 0.617188 -0.820312 C 0.597656 -0.835938 0.558594 -0.84375 0.503906 -0.847656 L 0.503906 -0.878906 L 0.808594 -0.878906 L 0.808594 -0.210938 C 0.808594 -0.167969 0.816406 -0.136719 0.832031 -0.121094 C 0.847656 -0.105469 0.882812 -0.0976562 0.929688 -0.101562 L 0.929688 -0.0742188 C 0.894531 -0.0664062 0.871094 -0.0585938 0.855469 -0.0507812 C 0.839844 -0.046875 0.808594 -0.0390625 0.773438 -0.0273438 C 0.757812 -0.0195312 0.71875 -0.0078125 0.664062 0.015625 C 0.660156 0.015625 0.660156 0.0117188 0.65625 0.0117188 C 0.65625 0.0078125 0.65625 0.00390625 0.65625 0 L 0.65625 -0.152344 C 0.613281 -0.101562 0.574219 -0.0625 0.539062 -0.0390625 C 0.484375 0 0.429688 0.0195312 0.367188 0.0195312 C 0.3125 0.0195312 0.261719 0 0.210938 -0.0390625 C 0.164062 -0.078125 0.136719 -0.144531 0.136719 -0.234375 L 0.136719 -0.726562 C 0.136719 -0.777344 0.128906 -0.8125 0.105469 -0.828125 C 0.09375 -0.839844 0.0625 -0.847656 0.015625 -0.851562 L 0.015625 -0.878906 Z "/>
</g>
<g id="glyph-0-2">
<path d="M 0.308594 -0.175781 C 0.328125 -0.132812 0.351562 -0.0976562 0.382812 -0.078125 C 0.417969 -0.0585938 0.453125 -0.046875 0.5 -0.046875 C 0.566406 -0.046875 0.625 -0.0820312 0.675781 -0.148438 C 0.722656 -0.214844 0.746094 -0.3125 0.746094 -0.433594 C 0.746094 -0.550781 0.722656 -0.636719 0.671875 -0.695312 C 0.621094 -0.753906 0.5625 -0.78125 0.496094 -0.78125 C 0.449219 -0.78125 0.40625 -0.765625 0.367188 -0.738281 C 0.328125 -0.707031 0.308594 -0.679688 0.308594 -0.652344 Z M 0.0078125 0.390625 C 0.0664062 0.386719 0.105469 0.375 0.121094 0.355469 C 0.136719 0.332031 0.144531 0.296875 0.144531 0.253906 L 0.144531 -0.660156 C 0.144531 -0.707031 0.140625 -0.738281 0.128906 -0.75 C 0.117188 -0.765625 0.09375 -0.773438 0.0625 -0.773438 C 0.0546875 -0.773438 0.0507812 -0.773438 0.0429688 -0.769531 C 0.0351562 -0.769531 0.0273438 -0.769531 0.015625 -0.765625 L 0.015625 -0.796875 L 0.105469 -0.828125 C 0.109375 -0.828125 0.175781 -0.851562 0.296875 -0.894531 C 0.300781 -0.894531 0.304688 -0.890625 0.304688 -0.890625 C 0.304688 -0.886719 0.308594 -0.882812 0.308594 -0.878906 L 0.308594 -0.75 C 0.351562 -0.792969 0.386719 -0.824219 0.417969 -0.84375 C 0.476562 -0.878906 0.535156 -0.898438 0.59375 -0.898438 C 0.679688 -0.898438 0.757812 -0.859375 0.820312 -0.785156 C 0.882812 -0.710938 0.914062 -0.609375 0.914062 -0.480469 C 0.914062 -0.355469 0.875 -0.238281 0.800781 -0.136719 C 0.722656 -0.03125 0.628906 0.0195312 0.515625 0.0195312 C 0.480469 0.0195312 0.449219 0.015625 0.421875 0.00390625 C 0.382812 -0.0078125 0.34375 -0.03125 0.308594 -0.0664062 L 0.308594 0.242188 C 0.308594 0.308594 0.320312 0.347656 0.339844 0.359375 C 0.363281 0.375 0.410156 0.386719 0.476562 0.390625 L 0.476562 0.421875 L 0.0078125 0.421875 Z "/>
</g>
</g>
</defs>
<g fill="rgb(100%, 100%, 100%)" fill-opacity="1">
<use xlink:href="#glyph-0-0" x="30" y="21.458008"/>
<use xlink:href="#glyph-0-1" x="31" y="21.458008"/>
<use xlink:href="#glyph-0-2" x="32" y="21.458008"/>
</g>
</svg>
