<?xml version="1.0" encoding="UTF-8"?>
<svg xmlns="http://www.w3.org/2000/svg" xmlns:xlink="http://www.w3.org/1999/xlink" width="1920" height="1080" viewBox="0 0 1920 1080">
<defs>
<g>
<g id="glyph-0-0">
<path d="M 0.304688 -0.949219 C 0.382812 -0.738281 0.476562 -0.570312 0.585938 -0.441406 C 0.773438 -0.222656 1.007812 -0.113281 1.285156 -0.113281 C 1.433594 -0.113281 1.566406 -0.160156 1.675781 -0.257812 C 1.785156 -0.351562 1.839844 -0.484375 1.839844 -0.65625 C 1.839844 -0.808594 1.785156 -0.941406 1.675781 -1.054688 C 1.601562 -1.128906 1.449219 -1.238281 1.21875 -1.382812 L 0.8125 -1.632812 C 0.691406 -1.710938 0.597656 -1.789062 0.523438 -1.867188 C 0.390625 -2.015625 0.324219 -2.179688 0.324219 -2.359375 C 0.324219 -2.597656 0.402344 -2.796875 0.558594 -2.953125 C 0.71875 -3.113281 0.929688 -3.191406 1.191406 -3.191406 C 1.296875 -3.191406 1.425781 -3.164062 1.578125 -3.113281 C 1.730469 -3.058594 1.816406 -3.03125 1.835938 -3.03125 C 1.894531 -3.03125 1.9375 -3.046875 1.957031 -3.074219 C 1.980469 -3.101562 2 -3.140625 2.011719 -3.191406 L 2.109375 -3.191406 L 2.210938 -2.1875 L 2.097656 -2.1875 C 2.019531 -2.488281 1.898438 -2.699219 1.726562 -2.820312 C 1.558594 -2.941406 1.390625 -3 1.222656 -3 C 1.09375 -3 0.984375 -2.960938 0.886719 -2.886719 C 0.789062 -2.808594 0.742188 -2.703125 0.742188 -2.570312 C 0.742188 -2.449219 0.78125 -2.34375 0.851562 -2.257812 C 0.925781 -2.171875 1.042969 -2.078125 1.195312 -1.984375 L 1.613281 -1.726562 C 1.871094 -1.566406 2.054688 -1.421875 2.160156 -1.285156 C 2.265625 -1.152344 2.316406 -0.992188 2.316406 -0.808594 C 2.316406 -0.558594 2.222656 -0.351562 2.039062 -0.1875 C 1.851562 -0.0195312 1.613281 0.0625 1.320312 0.0625 C 1.175781 0.0625 1.023438 0.0351562 0.863281 -0.0195312 C 0.703125 -0.0742188 0.613281 -0.105469 0.589844 -0.105469 C 0.535156 -0.105469 0.496094 -0.0859375 0.476562 -0.0546875 C 0.457031 -0.0195312 0.445312 0.015625 0.441406 0.0546875 L 0.335938 0.0546875 L 0.195312 -0.949219 Z "/>
</g>
<g id="glyph-0-1">
<path d="M 1.203125 -2.125 L 1.203125 -1.960938 L 0.730469 -1.960938 L 0.726562 -0.632812 C 0.726562 -0.515625 0.738281 -0.425781 0.757812 -0.367188 C 0.792969 -0.261719 0.867188 -0.207031 0.972656 -0.207031 C 1.027344 -0.207031 1.078125 -0.21875 1.117188 -0.246094 C 1.15625 -0.273438 1.203125 -0.3125 1.257812 -0.371094 L 1.316406 -0.320312 L 1.265625 -0.25 C 1.1875 -0.144531 1.101562 -0.0664062 1.011719 -0.0234375 C 0.921875 0.0195312 0.835938 0.0429688 0.753906 0.0429688 C 0.574219 0.0429688 0.449219 -0.0351562 0.386719 -0.199219 C 0.351562 -0.285156 0.332031 -0.40625 0.332031 -0.5625 L 0.332031 -1.960938 L 0.0820312 -1.960938 C 0.0742188 -1.964844 0.0664062 -1.96875 0.0625 -1.972656 C 0.0585938 -1.976562 0.0585938 -1.984375 0.0585938 -1.992188 C 0.0585938 -2.007812 0.0625 -2.019531 0.0664062 -2.027344 C 0.0742188 -2.035156 0.0976562 -2.054688 0.132812 -2.085938 C 0.238281 -2.175781 0.316406 -2.246094 0.363281 -2.300781 C 0.410156 -2.355469 0.519531 -2.5 0.695312 -2.734375 C 0.714844 -2.734375 0.726562 -2.730469 0.730469 -2.726562 C 0.734375 -2.722656 0.734375 -2.714844 0.734375 -2.695312 L 0.734375 -2.125 Z "/>
</g>
<g id="glyph-0-2">
<path d="M 1.355469 -1.277344 C 1.175781 -1.21875 1.03125 -1.15625 0.914062 -1.082031 C 0.695312 -0.945312 0.582031 -0.792969 0.582031 -0.617188 C 0.582031 -0.476562 0.628906 -0.375 0.722656 -0.308594 C 0.78125 -0.265625 0.847656 -0.246094 0.921875 -0.246094 C 1.023438 -0.246094 1.121094 -0.273438 1.214844 -0.328125 C 1.308594 -0.386719 1.355469 -0.457031 1.355469 -0.546875 Z M 0.171875 -0.457031 C 0.171875 -0.679688 0.285156 -0.867188 0.507812 -1.015625 C 0.648438 -1.109375 0.929688 -1.234375 1.355469 -1.394531 L 1.355469 -1.589844 C 1.355469 -1.746094 1.339844 -1.855469 1.308594 -1.917969 C 1.253906 -2.019531 1.148438 -2.070312 0.980469 -2.070312 C 0.902344 -2.070312 0.828125 -2.050781 0.757812 -2.011719 C 0.6875 -1.96875 0.652344 -1.914062 0.652344 -1.839844 C 0.652344 -1.820312 0.65625 -1.789062 0.664062 -1.746094 C 0.671875 -1.703125 0.675781 -1.675781 0.675781 -1.664062 C 0.675781 -1.578125 0.648438 -1.515625 0.589844 -1.484375 C 0.558594 -1.464844 0.519531 -1.453125 0.476562 -1.453125 C 0.40625 -1.453125 0.351562 -1.476562 0.316406 -1.519531 C 0.277344 -1.566406 0.261719 -1.617188 0.261719 -1.671875 C 0.261719 -1.78125 0.328125 -1.890625 0.460938 -2.007812 C 0.59375 -2.125 0.789062 -2.1875 1.042969 -2.1875 C 1.34375 -2.1875 1.546875 -2.089844 1.652344 -1.894531 C 1.707031 -1.789062 1.738281 -1.636719 1.738281 -1.433594 L 1.738281 -0.507812 C 1.738281 -0.417969 1.742188 -0.355469 1.753906 -0.324219 C 1.773438 -0.261719 1.816406 -0.234375 1.878906 -0.234375 C 1.914062 -0.234375 1.945312 -0.238281 1.96875 -0.25 C 1.992188 -0.261719 2.03125 -0.285156 2.085938 -0.328125 L 2.085938 -0.207031 C 2.039062 -0.148438 1.984375 -0.0976562 1.929688 -0.0585938 C 1.84375 0 1.753906 0.0273438 1.664062 0.0273438 C 1.558594 0.0273438 1.484375 -0.0078125 1.4375 -0.0742188 C 1.390625 -0.140625 1.363281 -0.222656 1.359375 -0.316406 C 1.242188 -0.214844 1.144531 -0.140625 1.0625 -0.0898438 C 0.921875 -0.0078125 0.789062 0.0351562 0.660156 0.0351562 C 0.527344 0.0351562 0.414062 -0.0117188 0.316406 -0.105469 C 0.222656 -0.199219 0.171875 -0.316406 0.171875 -0.457031 Z "/>
</g>
<g id="glyph-0-3">
<path d="M 1.082031 -2.164062 C 1.296875 -2.164062 1.488281 -2.089844 1.652344 -1.9375 C 1.816406 -1.789062 1.894531 -1.574219 1.894531 -1.300781 L 0.429688 -1.300781 C 0.445312 -0.945312 0.527344 -0.683594 0.671875 -0.519531 C 0.820312 -0.359375 0.992188 -0.277344 1.191406 -0.277344 C 1.351562 -0.277344 1.488281 -0.320312 1.601562 -0.402344 C 1.710938 -0.488281 1.8125 -0.609375 1.90625 -0.761719 L 1.988281 -0.734375 C 1.925781 -0.539062 1.808594 -0.359375 1.632812 -0.195312 C 1.460938 -0.0273438 1.25 0.0546875 1 0.0546875 C 0.710938 0.0546875 0.484375 -0.0546875 0.328125 -0.273438 C 0.171875 -0.492188 0.09375 -0.742188 0.09375 -1.027344 C 0.09375 -1.335938 0.183594 -1.601562 0.367188 -1.828125 C 0.550781 -2.050781 0.789062 -2.164062 1.082031 -2.164062 Z M 0.949219 -1.996094 C 0.773438 -1.996094 0.640625 -1.917969 0.546875 -1.761719 C 0.496094 -1.679688 0.460938 -1.574219 0.441406 -1.449219 L 1.414062 -1.449219 C 1.398438 -1.601562 1.367188 -1.714844 1.324219 -1.792969 C 1.25 -1.925781 1.125 -1.996094 0.949219 -1.996094 Z "/>
</g>
<g id="glyph-0-4">
<rect x="0" y="0" width="0" height="0" mask="url(#mask-0)"/>
</g>
<g id="glyph-0-5">
<path d="M 0.0546875 -0.0859375 C 0.25 -0.105469 0.375 -0.148438 0.429688 -0.21875 C 0.484375 -0.285156 0.511719 -0.445312 0.511719 -0.695312 L 0.511719 -2.613281 C 0.511719 -2.785156 0.484375 -2.894531 0.429688 -2.945312 C 0.375 -2.996094 0.253906 -3.027344 0.0664062 -3.035156 L 0.0664062 -3.125 L 1 -3.125 L 2.089844 -0.742188 L 3.136719 -3.125 L 4.078125 -3.125 L 4.078125 -3.035156 C 3.902344 -3.023438 3.789062 -2.992188 3.738281 -2.941406 C 3.6875 -2.890625 3.660156 -2.78125 3.660156 -2.613281 L 3.660156 -0.511719 C 3.660156 -0.339844 3.6875 -0.230469 3.738281 -0.179688 C 3.789062 -0.132812 3.902344 -0.101562 4.078125 -0.0859375 L 4.078125 0 L 2.753906 0 L 2.753906 -0.0859375 C 2.945312 -0.101562 3.0625 -0.136719 3.109375 -0.1875 C 3.15625 -0.242188 3.179688 -0.367188 3.179688 -0.566406 L 3.179688 -2.6875 L 1.972656 0 L 1.90625 0 L 0.71875 -2.578125 L 0.71875 -0.695312 C 0.71875 -0.4375 0.757812 -0.265625 0.832031 -0.1875 C 0.882812 -0.136719 0.992188 -0.105469 1.164062 -0.0859375 L 1.164062 0 L 0.0546875 0 Z "/>
</g>
<g id="glyph-0-6">
<path d="M 0.0546875 -0.0859375 C 0.226562 -0.105469 0.339844 -0.136719 0.390625 -0.179688 C 0.441406 -0.222656 0.46875 -0.332031 0.46875 -0.511719 L 0.46875 -2.613281 C 0.46875 -2.78125 0.441406 -2.890625 0.390625 -2.941406 C 0.339844 -2.992188 0.226562 -3.023438 0.0546875 -3.035156 L 0.0546875 -3.125 L 1.386719 -3.125 L 1.386719 -3.035156 C 1.214844 -3.027344 1.097656 -3 1.039062 -2.953125 C 0.980469 -2.90625 0.949219 -2.800781 0.949219 -2.644531 L 0.949219 -0.375 C 0.949219 -0.324219 0.957031 -0.28125 0.976562 -0.253906 C 0.996094 -0.222656 1.03125 -0.203125 1.09375 -0.195312 C 1.128906 -0.191406 1.164062 -0.1875 1.203125 -0.1875 C 1.242188 -0.183594 1.316406 -0.183594 1.425781 -0.183594 C 1.84375 -0.183594 2.128906 -0.21875 2.277344 -0.289062 C 2.425781 -0.359375 2.566406 -0.535156 2.703125 -0.820312 L 2.824219 -0.820312 L 2.59375 0 L 0.0546875 0 Z "/>
</g>
<g id="glyph-0-7">
<path d="M 2.042969 -2.265625 C 2.042969 -2.554688 1.917969 -2.753906 1.667969 -2.863281 C 1.535156 -2.921875 1.367188 -2.949219 1.164062 -2.949219 C 1.066406 -2.949219 1.003906 -2.941406 0.984375 -2.921875 C 0.960938 -2.902344 0.949219 -2.859375 0.949219 -2.792969 L 0.949219 -1.5625 C 1.035156 -1.554688 1.089844 -1.550781 1.117188 -1.546875 C 1.144531 -1.546875 1.167969 -1.546875 1.191406 -1.546875 C 1.410156 -1.546875 1.578125 -1.574219 1.703125 -1.636719 C 1.929688 -1.75 2.042969 -1.960938 2.042969 -2.265625 Z M 0.0742188 -0.0859375 C 0.253906 -0.101562 0.367188 -0.136719 0.414062 -0.191406 C 0.457031 -0.246094 0.480469 -0.371094 0.480469 -0.566406 L 0.480469 -2.613281 C 0.480469 -2.777344 0.453125 -2.886719 0.40625 -2.9375 C 0.355469 -2.988281 0.246094 -3.023438 0.0742188 -3.035156 L 0.0742188 -3.125 L 1.320312 -3.125 C 1.71875 -3.125 2.027344 -3.046875 2.238281 -2.890625 C 2.449219 -2.734375 2.558594 -2.53125 2.558594 -2.277344 C 2.558594 -1.957031 2.441406 -1.722656 2.203125 -1.578125 C 1.96875 -1.433594 1.675781 -1.363281 1.320312 -1.363281 C 1.269531 -1.363281 1.207031 -1.363281 1.125 -1.367188 C 1.046875 -1.367188 0.988281 -1.371094 0.949219 -1.371094 L 0.949219 -0.511719 C 0.949219 -0.332031 0.976562 -0.222656 1.03125 -0.175781 C 1.085938 -0.128906 1.207031 -0.0976562 1.398438 -0.0859375 L 1.398438 0 L 0.0742188 0 Z "/>
</g>
</g>
<image id="source-576" x="0" y="0" width="0" height="0"/>
<mask id="mask-0">
<use xlink:href="#source-576"/>
</mask>
</defs>
<g fill="rgb(100%, 100%, 100%)" fill-opacity="1">
<use xlink:href="#glyph-0-0" x="30" y="23.541992"/>
<use xlink:href="#glyph-0-1" x="33" y="23.541992"/>
<use xlink:href="#glyph-0-2" x="34" y="23.541992"/>
<use xlink:href="#glyph-0-1" x="36" y="23.541992"/>
<use xlink:href="#glyph-0-3" x="37" y="23.541992"/>
<use xlink:href="#glyph-0-4" x="39" y="23.541992"/>
<use xlink:href="#glyph-0-5" x="40" y="23.541992"/>
<use xlink:href="#glyph-0-6" x="44" y="23.541992"/>
<use xlink:href="#glyph-0-7" x="47" y="23.541992"/>
</g>
</svg>
