<?xml version="1.0" encoding="UTF-8"?>
<svg xmlns="http://www.w3.org/2000/svg" xmlns:xlink="http://www.w3.org/1999/xlink" width="1920" height="1080" viewBox="0 0 1920 1080">
<defs>
<g>
<g id="glyph-0-0">
<path d="M 1.320312 -4.875 C 1.320312 -4.84375 1.320312 -4.792969 1.3125 -4.730469 C 1.304688 -4.664062 1.300781 -4.613281 1.296875 -4.570312 L 1.113281 -3.015625 L 0.941406 -3.015625 L 0.746094 -4.5625 C 0.734375 -4.632812 0.726562 -4.699219 0.722656 -4.761719 C 0.71875 -4.824219 0.714844 -4.882812 0.714844 -4.933594 C 0.714844 -5.03125 0.742188 -5.105469 0.800781 -5.167969 C 0.855469 -5.226562 0.929688 -5.253906 1.015625 -5.253906 C 1.132812 -5.253906 1.210938 -5.222656 1.253906 -5.15625 C 1.300781 -5.089844 1.320312 -4.996094 1.320312 -4.875 Z M 2.070312 -3.015625 L 1.878906 -4.527344 C 1.863281 -4.679688 1.851562 -4.773438 1.847656 -4.800781 C 1.84375 -4.832031 1.84375 -4.855469 1.84375 -4.875 C 1.84375 -5.011719 1.867188 -5.109375 1.921875 -5.167969 C 1.976562 -5.226562 2.054688 -5.253906 2.148438 -5.253906 C 2.269531 -5.253906 2.351562 -5.222656 2.394531 -5.152344 C 2.4375 -5.082031 2.457031 -4.988281 2.457031 -4.871094 C 2.457031 -4.847656 2.457031 -4.824219 2.453125 -4.800781 C 2.449219 -4.773438 2.441406 -4.695312 2.425781 -4.5625 L 2.25 -3.015625 Z "/>
</g>
<g id="glyph-0-1">
<path d="M 1.933594 -3.582031 C 2.25 -3.582031 2.523438 -3.5 2.75 -3.335938 C 2.980469 -3.171875 3.09375 -2.992188 3.09375 -2.796875 C 3.09375 -2.714844 3.066406 -2.636719 3.007812 -2.566406 C 2.949219 -2.492188 2.859375 -2.457031 2.738281 -2.457031 C 2.648438 -2.457031 2.570312 -2.488281 2.503906 -2.546875 C 2.4375 -2.609375 2.386719 -2.699219 2.359375 -2.8125 L 2.3125 -2.996094 C 2.28125 -3.128906 2.222656 -3.226562 2.140625 -3.28125 C 2.058594 -3.335938 1.949219 -3.359375 1.8125 -3.359375 C 1.523438 -3.359375 1.277344 -3.234375 1.082031 -2.984375 C 0.882812 -2.730469 0.78125 -2.394531 0.78125 -1.976562 C 0.78125 -1.59375 0.890625 -1.253906 1.109375 -0.949219 C 1.328125 -0.644531 1.625 -0.492188 1.996094 -0.492188 C 2.261719 -0.492188 2.496094 -0.578125 2.699219 -0.75 C 2.816406 -0.851562 2.949219 -1.007812 3.09375 -1.222656 L 3.203125 -1.160156 C 3.058594 -0.855469 2.90625 -0.613281 2.746094 -0.4375 C 2.4375 -0.0976562 2.085938 0.0703125 1.683594 0.0703125 C 1.289062 0.0703125 0.9375 -0.0820312 0.632812 -0.394531 C 0.328125 -0.707031 0.179688 -1.128906 0.179688 -1.664062 C 0.179688 -2.1875 0.34375 -2.636719 0.675781 -3.015625 C 1.007812 -3.394531 1.425781 -3.582031 1.933594 -3.582031 Z "/>
</g>
<g id="glyph-0-2">
<path d="M 1.203125 -3.515625 L 1.203125 -1.085938 C 1.203125 -0.914062 1.226562 -0.777344 1.277344 -0.671875 C 1.371094 -0.480469 1.542969 -0.382812 1.792969 -0.382812 C 1.964844 -0.382812 2.132812 -0.441406 2.296875 -0.554688 C 2.390625 -0.617188 2.484375 -0.703125 2.582031 -0.816406 L 2.582031 -2.898438 C 2.582031 -3.09375 2.542969 -3.21875 2.46875 -3.28125 C 2.390625 -3.34375 2.242188 -3.378906 2.011719 -3.390625 L 2.011719 -3.515625 L 3.238281 -3.515625 L 3.238281 -0.84375 C 3.238281 -0.671875 3.269531 -0.550781 3.332031 -0.488281 C 3.394531 -0.421875 3.523438 -0.394531 3.726562 -0.402344 L 3.726562 -0.296875 C 3.585938 -0.257812 3.484375 -0.230469 3.417969 -0.210938 C 3.351562 -0.191406 3.242188 -0.15625 3.085938 -0.105469 C 3.019531 -0.0820312 2.878906 -0.0273438 2.65625 0.0585938 C 2.640625 0.0585938 2.632812 0.0507812 2.632812 0.0390625 C 2.628906 0.0273438 2.628906 0.015625 2.628906 0 L 2.628906 -0.613281 C 2.457031 -0.40625 2.296875 -0.253906 2.15625 -0.15625 C 1.941406 -0.00390625 1.714844 0.0703125 1.472656 0.0703125 C 1.253906 0.0703125 1.046875 -0.0078125 0.851562 -0.164062 C 0.652344 -0.316406 0.554688 -0.578125 0.554688 -0.941406 L 0.554688 -2.914062 C 0.554688 -3.117188 0.511719 -3.25 0.425781 -3.320312 C 0.371094 -3.363281 0.25 -3.390625 0.0664062 -3.410156 L 0.0664062 -3.515625 Z "/>
</g>
<g id="glyph-0-3">
<path d="M 1.242188 -0.699219 C 1.308594 -0.527344 1.40625 -0.398438 1.535156 -0.3125 C 1.667969 -0.226562 1.820312 -0.1875 1.996094 -0.1875 C 2.269531 -0.1875 2.503906 -0.320312 2.699219 -0.59375 C 2.890625 -0.867188 2.988281 -1.246094 2.988281 -1.730469 C 2.988281 -2.195312 2.886719 -2.546875 2.6875 -2.777344 C 2.484375 -3.007812 2.25 -3.121094 1.984375 -3.121094 C 1.796875 -3.121094 1.628906 -3.0625 1.472656 -2.949219 C 1.320312 -2.832031 1.242188 -2.71875 1.242188 -2.609375 Z M 0.0351562 1.570312 C 0.273438 1.554688 0.421875 1.503906 0.488281 1.417969 C 0.550781 1.332031 0.585938 1.195312 0.585938 1.011719 L 0.585938 -2.636719 C 0.585938 -2.828125 0.5625 -2.953125 0.515625 -3.003906 C 0.46875 -3.058594 0.378906 -3.085938 0.25 -3.085938 C 0.222656 -3.085938 0.195312 -3.085938 0.171875 -3.082031 C 0.148438 -3.082031 0.113281 -3.074219 0.0664062 -3.070312 L 0.0664062 -3.195312 L 0.429688 -3.3125 C 0.441406 -3.3125 0.695312 -3.402344 1.191406 -3.574219 C 1.203125 -3.574219 1.214844 -3.566406 1.222656 -3.554688 C 1.226562 -3.542969 1.230469 -3.53125 1.230469 -3.515625 L 1.230469 -3.003906 C 1.398438 -3.171875 1.542969 -3.296875 1.671875 -3.375 C 1.898438 -3.515625 2.132812 -3.589844 2.375 -3.589844 C 2.722656 -3.589844 3.023438 -3.441406 3.273438 -3.140625 C 3.527344 -2.84375 3.652344 -2.4375 3.652344 -1.921875 C 3.652344 -1.414062 3.503906 -0.957031 3.199219 -0.542969 C 2.898438 -0.128906 2.515625 0.0742188 2.058594 0.0742188 C 1.917969 0.0742188 1.792969 0.0585938 1.691406 0.0234375 C 1.527344 -0.03125 1.378906 -0.128906 1.242188 -0.269531 L 1.242188 0.972656 C 1.242188 1.226562 1.285156 1.386719 1.367188 1.441406 C 1.449219 1.5 1.632812 1.539062 1.914062 1.5625 L 1.914062 1.695312 L 0.0351562 1.695312 Z "/>
</g>
</g>
</defs>
<g fill="rgb(85.098039%, 46.666667%, 34.117647%)" fill-opacity="1">
<use xlink:href="#glyph-0-0" x="30" y="25.833008"/>
<use xlink:href="#glyph-0-1" x="33" y="25.833008"/>
<use xlink:href="#glyph-0-2" x="36" y="25.833008"/>
<use xlink:href="#glyph-0-3" x="40" y="25.833008"/>
<use xlink:href="#glyph-0-0" x="44" y="25.833008"/>
</g>
</svg>
