<?xml version="1.0" encoding="UTF-8"?>
<svg xmlns="http://www.w3.org/2000/svg" xmlns:xlink="http://www.w3.org/1999/xlink" width="1920" height="1080" viewBox="0 0 1920 1080">
<defs>
<g>
<g id="glyph-0-0">
<path d="M 0.386719 -1.128906 L 0.386719 -0.347656 C 0.386719 -0.292969 0.394531 -0.25 0.410156 -0.214844 C 0.441406 -0.152344 0.496094 -0.125 0.578125 -0.125 C 0.632812 -0.125 0.6875 -0.140625 0.738281 -0.179688 C 0.769531 -0.199219 0.800781 -0.226562 0.828125 -0.261719 L 0.828125 -0.929688 C 0.828125 -0.992188 0.816406 -1.035156 0.792969 -1.054688 C 0.769531 -1.074219 0.71875 -1.085938 0.648438 -1.089844 L 0.648438 -1.128906 L 1.042969 -1.128906 L 1.042969 -0.269531 C 1.042969 -0.214844 1.050781 -0.175781 1.070312 -0.15625 C 1.089844 -0.136719 1.132812 -0.125 1.199219 -0.128906 L 1.199219 -0.09375 C 1.152344 -0.0820312 1.121094 -0.0742188 1.097656 -0.0664062 C 1.078125 -0.0625 1.042969 -0.0507812 0.992188 -0.0351562 C 0.972656 -0.0273438 0.925781 -0.0078125 0.851562 0.0195312 C 0.847656 0.0195312 0.847656 0.015625 0.847656 0.0117188 C 0.84375 0.0078125 0.84375 0.00390625 0.84375 0 L 0.84375 -0.195312 C 0.789062 -0.128906 0.738281 -0.0820312 0.695312 -0.0507812 C 0.625 0 0.550781 0.0234375 0.472656 0.0234375 C 0.402344 0.0234375 0.335938 -0.00390625 0.273438 -0.0507812 C 0.210938 -0.101562 0.179688 -0.1875 0.179688 -0.304688 L 0.179688 -0.9375 C 0.179688 -1 0.164062 -1.046875 0.136719 -1.066406 C 0.117188 -1.082031 0.0820312 -1.089844 0.0234375 -1.097656 L 0.0234375 -1.128906 Z "/>
</g>
<g id="glyph-0-1">
<path d="M 0.398438 -0.226562 C 0.421875 -0.171875 0.453125 -0.128906 0.492188 -0.101562 C 0.535156 -0.0742188 0.585938 -0.0585938 0.640625 -0.0585938 C 0.730469 -0.0585938 0.804688 -0.105469 0.867188 -0.191406 C 0.929688 -0.277344 0.960938 -0.398438 0.960938 -0.554688 C 0.960938 -0.707031 0.929688 -0.816406 0.863281 -0.890625 C 0.796875 -0.964844 0.722656 -1.003906 0.636719 -1.003906 C 0.578125 -1.003906 0.523438 -0.984375 0.472656 -0.949219 C 0.421875 -0.910156 0.398438 -0.875 0.398438 -0.839844 Z M 0.0117188 0.503906 C 0.0859375 0.5 0.136719 0.484375 0.15625 0.457031 C 0.175781 0.429688 0.1875 0.382812 0.1875 0.324219 L 0.1875 -0.847656 C 0.1875 -0.910156 0.179688 -0.949219 0.164062 -0.964844 C 0.148438 -0.984375 0.121094 -0.992188 0.0820312 -0.992188 C 0.0703125 -0.992188 0.0625 -0.992188 0.0546875 -0.992188 C 0.046875 -0.992188 0.0351562 -0.988281 0.0234375 -0.984375 L 0.0234375 -1.027344 L 0.136719 -1.0625 C 0.140625 -1.066406 0.222656 -1.09375 0.382812 -1.148438 C 0.386719 -1.148438 0.390625 -1.148438 0.390625 -1.144531 C 0.394531 -1.140625 0.394531 -1.136719 0.394531 -1.128906 L 0.394531 -0.964844 C 0.449219 -1.019531 0.496094 -1.058594 0.539062 -1.085938 C 0.609375 -1.132812 0.6875 -1.152344 0.761719 -1.152344 C 0.875 -1.152344 0.972656 -1.105469 1.054688 -1.011719 C 1.132812 -0.914062 1.175781 -0.785156 1.175781 -0.617188 C 1.175781 -0.453125 1.125 -0.308594 1.027344 -0.175781 C 0.929688 -0.0429688 0.808594 0.0234375 0.660156 0.0234375 C 0.617188 0.0234375 0.578125 0.0195312 0.542969 0.0078125 C 0.492188 -0.0078125 0.441406 -0.0429688 0.398438 -0.0859375 L 0.398438 0.3125 C 0.398438 0.394531 0.414062 0.445312 0.4375 0.464844 C 0.464844 0.484375 0.523438 0.496094 0.617188 0.5 L 0.617188 0.542969 L 0.0117188 0.542969 Z "/>
</g>
</g>
</defs>
<g fill="rgb(100%, 100%, 100%)" fill-opacity="1">
<use xlink:href="#glyph-0-0" x="30" y="21.875"/>
<use xlink:href="#glyph-0-1" x="31" y="21.875"/>
</g>
</svg>
