<?xml version="1.0" encoding="UTF-8"?>
<svg xmlns="http://www.w3.org/2000/svg" xmlns:xlink="http://www.w3.org/1999/xlink" width="1920" height="1080" viewBox="0 0 1920 1080">
<defs>
<g>
<g id="glyph-0-0">
<path d="M 0.308594 -0.175781 C 0.328125 -0.132812 0.351562 -0.0976562 0.382812 -0.078125 C 0.417969 -0.0585938 0.453125 -0.046875 0.5 -0.046875 C 0.566406 -0.046875 0.625 -0.0820312 0.675781 -0.148438 C 0.722656 -0.214844 0.746094 -0.3125 0.746094 -0.433594 C 0.746094 -0.550781 0.722656 -0.636719 0.671875 -0.695312 C 0.621094 -0.753906 0.5625 -0.78125 0.496094 -0.78125 C 0.449219 -0.78125 0.40625 -0.765625 0.367188 -0.738281 C 0.328125 -0.707031 0.308594 -0.679688 0.308594 -0.652344 Z M 0.0078125 0.390625 C 0.0664062 0.386719 0.105469 0.375 0.121094 0.355469 C 0.136719 0.332031 0.144531 0.296875 0.144531 0.253906 L 0.144531 -0.660156 C 0.144531 -0.707031 0.140625 -0.738281 0.128906 -0.75 C 0.117188 -0.765625 0.09375 -0.773438 0.0625 -0.773438 C 0.0546875 -0.773438 0.0507812 -0.773438 0.0429688 -0.769531 C 0.0351562 -0.769531 0.0273438 -0.769531 0.015625 -0.765625 L 0.015625 -0.796875 L 0.105469 -0.828125 C 0.109375 -0.828125 0.175781 -0.851562 0.296875 -0.894531 C 0.300781 -0.894531 0.304688 -0.890625 0.304688 -0.890625 C 0.304688 -0.886719 0.308594 -0.882812 0.308594 -0.878906 L 0.308594 -0.75 C 0.351562 -0.792969 0.386719 -0.824219 0.417969 -0.84375 C 0.476562 -0.878906 0.535156 -0.898438 0.59375 -0.898438 C 0.679688 -0.898438 0.757812 -0.859375 0.820312 -0.785156 C 0.882812 -0.710938 0.914062 -0.609375 0.914062 -0.480469 C 0.914062 -0.355469 0.875 -0.238281 0.800781 -0.136719 C 0.722656 -0.03125 0.628906 0.0195312 0.515625 0.0195312 C 0.480469 0.0195312 0.449219 0.015625 0.421875 0.00390625 C 0.382812 -0.0078125 0.34375 -0.03125 0.308594 -0.0664062 L 0.308594 0.242188 C 0.308594 0.308594 0.320312 0.347656 0.339844 0.359375 C 0.363281 0.375 0.410156 0.386719 0.476562 0.390625 L 0.476562 0.421875 L 0.0078125 0.421875 Z "/>
</g>
<g id="glyph-0-1">
<path d="M 0.160156 -1.226562 C 0.160156 -1.253906 0.167969 -1.277344 0.1875 -1.296875 C 0.207031 -1.316406 0.230469 -1.324219 0.257812 -1.324219 C 0.285156 -1.324219 0.308594 -1.316406 0.328125 -1.296875 C 0.347656 -1.277344 0.355469 -1.253906 0.355469 -1.226562 C 0.355469 -1.199219 0.347656 -1.175781 0.328125 -1.15625 C 0.308594 -1.136719 0.285156 -1.125 0.257812 -1.125 C 0.230469 -1.125 0.207031 -1.136719 0.1875 -1.15625 C 0.167969 -1.175781 0.160156 -1.199219 0.160156 -1.226562 Z M 0.0390625 -0.0273438 C 0.105469 -0.03125 0.148438 -0.0429688 0.167969 -0.0625 C 0.183594 -0.078125 0.191406 -0.125 0.191406 -0.199219 L 0.191406 -0.648438 C 0.191406 -0.691406 0.191406 -0.71875 0.183594 -0.734375 C 0.175781 -0.761719 0.15625 -0.773438 0.125 -0.773438 C 0.117188 -0.773438 0.109375 -0.773438 0.105469 -0.773438 C 0.0976562 -0.773438 0.078125 -0.765625 0.046875 -0.757812 L 0.046875 -0.785156 L 0.0859375 -0.800781 C 0.199219 -0.835938 0.273438 -0.863281 0.320312 -0.882812 C 0.335938 -0.890625 0.347656 -0.894531 0.351562 -0.894531 C 0.355469 -0.890625 0.355469 -0.882812 0.355469 -0.878906 L 0.355469 -0.199219 C 0.355469 -0.125 0.363281 -0.078125 0.382812 -0.0625 C 0.398438 -0.0429688 0.4375 -0.03125 0.5 -0.0273438 L 0.5 0 L 0.0390625 0 Z "/>
</g>
<g id="glyph-0-2">
<path d="M 0.484375 -0.894531 C 0.5625 -0.894531 0.628906 -0.875 0.6875 -0.835938 C 0.746094 -0.792969 0.773438 -0.75 0.773438 -0.699219 C 0.773438 -0.679688 0.765625 -0.660156 0.75 -0.640625 C 0.738281 -0.621094 0.714844 -0.613281 0.683594 -0.613281 C 0.660156 -0.613281 0.644531 -0.621094 0.625 -0.636719 C 0.609375 -0.652344 0.597656 -0.675781 0.589844 -0.703125 L 0.578125 -0.75 C 0.570312 -0.78125 0.554688 -0.804688 0.535156 -0.820312 C 0.515625 -0.832031 0.488281 -0.839844 0.453125 -0.839844 C 0.378906 -0.839844 0.320312 -0.808594 0.269531 -0.746094 C 0.21875 -0.683594 0.195312 -0.597656 0.195312 -0.496094 C 0.195312 -0.398438 0.222656 -0.3125 0.277344 -0.238281 C 0.332031 -0.160156 0.40625 -0.125 0.5 -0.125 C 0.566406 -0.125 0.625 -0.144531 0.675781 -0.1875 C 0.703125 -0.210938 0.738281 -0.25 0.773438 -0.304688 L 0.800781 -0.289062 C 0.765625 -0.214844 0.726562 -0.152344 0.6875 -0.109375 C 0.609375 -0.0234375 0.519531 0.0195312 0.421875 0.0195312 C 0.324219 0.0195312 0.234375 -0.0195312 0.160156 -0.0976562 C 0.0820312 -0.175781 0.0429688 -0.28125 0.0429688 -0.414062 C 0.0429688 -0.546875 0.0859375 -0.660156 0.167969 -0.753906 C 0.25 -0.847656 0.355469 -0.894531 0.484375 -0.894531 Z "/>
</g>
<g id="glyph-0-3">
<path d="M 0.00390625 -0.0273438 C 0.0664062 -0.03125 0.105469 -0.0429688 0.125 -0.0585938 C 0.144531 -0.0742188 0.152344 -0.105469 0.152344 -0.160156 L 0.152344 -1.109375 C 0.152344 -1.15625 0.144531 -1.183594 0.128906 -1.195312 C 0.113281 -1.207031 0.09375 -1.214844 0.0664062 -1.214844 C 0.0546875 -1.214844 0.0429688 -1.214844 0.0351562 -1.214844 C 0.0234375 -1.214844 0.015625 -1.210938 0.00390625 -1.210938 L 0.00390625 -1.238281 L 0.0898438 -1.261719 C 0.15625 -1.277344 0.210938 -1.292969 0.253906 -1.308594 C 0.28125 -1.316406 0.300781 -1.324219 0.304688 -1.324219 C 0.308594 -1.324219 0.308594 -1.320312 0.3125 -1.320312 C 0.3125 -1.320312 0.3125 -1.316406 0.3125 -1.308594 L 0.3125 -0.511719 L 0.574219 -0.742188 C 0.59375 -0.757812 0.605469 -0.773438 0.613281 -0.785156 C 0.621094 -0.792969 0.625 -0.800781 0.625 -0.808594 C 0.625 -0.824219 0.617188 -0.832031 0.601562 -0.835938 C 0.585938 -0.839844 0.5625 -0.84375 0.527344 -0.847656 L 0.527344 -0.871094 L 0.921875 -0.871094 L 0.921875 -0.847656 C 0.851562 -0.84375 0.792969 -0.828125 0.75 -0.804688 C 0.707031 -0.78125 0.625 -0.710938 0.503906 -0.601562 L 0.445312 -0.546875 L 0.621094 -0.320312 C 0.710938 -0.203125 0.78125 -0.128906 0.824219 -0.0898438 C 0.871094 -0.0507812 0.921875 -0.0273438 0.972656 -0.0234375 L 0.972656 0 L 0.546875 0 L 0.546875 -0.0273438 L 0.582031 -0.0273438 C 0.59375 -0.0273438 0.601562 -0.03125 0.613281 -0.0351562 C 0.621094 -0.0390625 0.625 -0.046875 0.625 -0.0546875 C 0.625 -0.0625 0.625 -0.0664062 0.621094 -0.0742188 C 0.617188 -0.078125 0.613281 -0.0859375 0.605469 -0.09375 L 0.3125 -0.480469 L 0.3125 -0.128906 C 0.3125 -0.0859375 0.328125 -0.0585938 0.359375 -0.0429688 C 0.378906 -0.0351562 0.414062 -0.0273438 0.457031 -0.0273438 L 0.457031 0 L 0.00390625 0 Z "/>
</g>
</g>
</defs>
<g fill="rgb(100%, 100%, 100%)" fill-opacity="1">
<use xlink:href="#glyph-0-0" x="30" y="21.458008"/>
<use xlink:href="#glyph-0-1" x="31" y="21.458008"/>
<use xlink:href="#glyph-0-2" x="32" y="21.458008"/>
<use xlink:href="#glyph-0-3" x="33" y="21.458008"/>
</g>
</svg>
