<?xml version="1.0" encoding="UTF-8"?>
<svg xmlns="http://www.w3.org/2000/svg" xmlns:xlink="http://www.w3.org/1999/xlink" width="1920" height="1080" viewBox="0 0 1920 1080">
<defs>
<g>
<g id="glyph-0-0">
<path d="M 0.0703125 -0.0703125 C 0.230469 -0.0820312 0.328125 -0.109375 0.363281 -0.15625 C 0.402344 -0.199219 0.421875 -0.300781 0.421875 -0.46875 L 0.421875 -2.152344 C 0.421875 -2.292969 0.402344 -2.382812 0.359375 -2.425781 C 0.316406 -2.464844 0.21875 -2.492188 0.0703125 -2.5 L 0.0703125 -2.574219 L 1.179688 -2.574219 L 1.179688 -2.5 C 1.027344 -2.492188 0.929688 -2.46875 0.886719 -2.425781 C 0.839844 -2.382812 0.820312 -2.292969 0.820312 -2.152344 L 0.820312 -1.355469 C 1.058594 -1.558594 1.253906 -1.730469 1.40625 -1.875 C 1.679688 -2.132812 1.8125 -2.300781 1.8125 -2.375 C 1.8125 -2.425781 1.789062 -2.460938 1.746094 -2.476562 C 1.699219 -2.492188 1.632812 -2.5 1.546875 -2.5 L 1.546875 -2.574219 L 2.566406 -2.574219 L 2.566406 -2.511719 C 2.441406 -2.5 2.34375 -2.472656 2.273438 -2.4375 C 2.203125 -2.398438 2.101562 -2.320312 1.976562 -2.195312 L 1.238281 -1.472656 L 2.140625 -0.492188 C 2.308594 -0.3125 2.425781 -0.199219 2.484375 -0.15625 C 2.546875 -0.109375 2.636719 -0.0820312 2.753906 -0.0664062 L 2.753906 0 L 1.566406 0 L 1.566406 -0.0703125 C 1.671875 -0.0742188 1.746094 -0.0820312 1.785156 -0.0976562 C 1.820312 -0.109375 1.839844 -0.136719 1.839844 -0.175781 C 1.839844 -0.195312 1.828125 -0.230469 1.804688 -0.273438 C 1.777344 -0.316406 1.738281 -0.367188 1.6875 -0.425781 L 0.949219 -1.238281 L 0.820312 -1.125 L 0.820312 -0.421875 C 0.820312 -0.277344 0.839844 -0.1875 0.882812 -0.148438 C 0.925781 -0.109375 1.023438 -0.0820312 1.171875 -0.0703125 L 1.171875 0 L 0.0703125 0 Z "/>
</g>
</g>
</defs>
<g fill="rgb(49.019608%, 64.313725%, 53.333333%)" fill-opacity="1">
<use xlink:href="#glyph-0-0" x="30" y="22.916992"/>
</g>
</svg>
